<?xml version="1.0" standalone="no"?>
<!DOCTYPE svg PUBLIC "-//W3C//DTD SVG 1.1//EN" "http://www.w3.org/Graphics/SVG/1.1/DTD/svg11.dtd" >
<svg>
<metadata>
Created by FontForge 20090914 at Fri Feb 24 12:41:41 2012
 By root
LinLinux Libertine by Philipp H. Poll, Open Font under Terms of following Free Software Licenses:
GPL (General Public License) and OFL (Open Font License).
Created with FontForge 1.0 (http://fontforge.sf.net) Sept 2003, 2004, 2005, 2006, 2007
</metadata>
<defs>
<font id="LinLibertineOC" horiz-adv-x="0" >
  <font-face 
    font-family="Linux Libertine O C"
    font-weight="400"
    font-stretch="normal"
    units-per-em="1000"
    panose-1="2 0 5 3 0 0 0 0 0 0"
    ascent="800"
    descent="-200"
    x-height="462"
    cap-height="646"
    bbox="-446 -297.999 6171 893"
    underline-thickness="40"
    underline-position="-98"
    stemh="27"
    stemv="81"
    unicode-range="U+0020-U+FFFD"
  />
<missing-glyph horiz-adv-x="500" 
d="M0 0v700h500v-700h-500zM250 395l170 255h-340zM280 350l170 -255v510zM80 50h340l-170 255zM50 605v-510l170 255z" />
    <glyph glyph-name=".notdef" horiz-adv-x="500" 
d="M0 0v700h500v-700h-500zM250 395l170 255h-340zM280 350l170 -255v510zM80 50h340l-170 255zM50 605v-510l170 255z" />
    <glyph glyph-name="space" unicode=" " horiz-adv-x="250" 
 />
    <glyph glyph-name="exclam" unicode="!" horiz-adv-x="227" 
d="M60 43c0 29 24 53 53 53s53 -24 53 -53s-24 -53 -53 -53s-53 24 -53 53zM113 658c27 0 56 -23 56 -73c0 -65 -15.7998 -107 -26 -193c-12.7998 -108 -14 -168 -16 -182c-1 -11 -4 -20 -14 -20c-11 0 -13 7 -14 13c-2 21 -7 111 -15 189c-9 88 -25 123 -25 193
c0 54 32 73 54 73z" />
    <glyph glyph-name="quotedbl" unicode="&#x22;" horiz-adv-x="336" 
d="M215 427c0 0 -26 159 -26 168c0 22 21 50 51 50c26 0 35 -17 35 -33s-33 -181 -33 -181zM89 426c0 0 -26 159 -26 168c0 22 21 50 51 50c26 0 35 -17 35 -33s-33 -181 -33 -181z" />
    <glyph glyph-name="numbersign" unicode="#" horiz-adv-x="438" 
d="M316 341l-18 -110h90l-7 -48h-89l-28 -170h-33l26 170h-109l-28 -170h-33l27 170h-90l7 48h91l17 110h-90l8 49h90l27 170h34l-28 -170h111l26 170h33l-27 -170h91l-8 -49h-90zM266 231l17 110h-110l-18 -110h111z" />
    <glyph glyph-name="dollar" unicode="$" horiz-adv-x="438" 
d="M197 341.3v199.399c-47.2002 -7.09961 -88 -43.6992 -88 -102.699c0 -46.9004 49.2002 -78.6006 88 -96.7002zM231 250.899v-228.501c39.5 5.90039 96 31.8008 96 104.601c0 79.7002 -55.5 108.101 -96 123.9zM91 9.99805c-16 0 -13 -10.999 -35 -10.999
c0 37 -7 91 -15 147l26 3c15.7998 -61.4004 61 -119.301 130 -127.101v242.3c-59.4004 26.4004 -152 71.6006 -152 169.801c0 86.4004 85.4004 130.5 152 137.1v55.9004h34v-55.2998c49.5 -1.90039 90.7998 -11.3008 116 -7.70117c2 -45 12 -94 20 -143l-26 -4l-5 18
c-19.0996 65.5996 -49.7998 100.5 -105 106.2v-213.9c56.7002 -21.7002 168 -69.7002 168 -171.3c0 -32.7998 -8.40039 -158.7 -168 -167.5v-69.5h-34v69.5c-54.9004 3.09961 -85.9004 21.5 -106 21.5z" />
    <glyph glyph-name="percent" unicode="%" horiz-adv-x="637" 
d="M110 392c0 -52 27 -66 45 -66c55 0 91 89 91 147c0 49 -27 60 -45 60c-49 0 -91 -83 -91 -141zM364 515c42 0 109 10 150 54l38 -7l-413 -576l-37 9l360 502c-39 -16 -78 -19 -108 -19c-23 0 -61 10 -80 21c2 -8 3 -17 3 -25c0 -65 -44 -177 -128 -177
c-62 0 -90 57 -90 109c0 76 59 159 131 159c28 0 57 -13 67 -25c54 -25 89 -25 107 -25zM380 91c0 76 58 159 132 159c40 0 86 -19 86 -91c0 -68 -44 -178 -127 -178c-61 0 -91 58 -91 110zM432 77c0 -52 26 -67 45 -67c55 0 91 92 91 147c0 52 -31 61 -45 61
c-49 0 -91 -84 -91 -141z" />
    <glyph glyph-name="ampersand" unicode="&#x26;" horiz-adv-x="705" 
d="M288 411c64 42 103 92 103 128c0 45 -24 71 -65 71c-26 0 -76 -25 -76 -91c0 -23 12 -59 38 -108zM421 94c-46 -63 -101 -106 -186 -106c-107 0 -191 46 -191 168c0 79 52 145 184 219c-37 64 -50 104 -50 142c0 59 53 127 153 127c70 0 127 -42 127 -105
c0 -55 -65 -120 -148 -168l4 -8c18 -31 76 -114 122 -176c71 105 102 168 102 193c0 11 -6 16 -16 16h-28c-5 0 -5 4 -5 7v17l1 2s53 -2 87 -2s87 2 87 2l2 -2v-16c0 -6 -5 -8 -9 -8h-28c-32 0 -48 -28 -84 -94c0 0 -45 -88 -85 -149l34 -46c31 -44 61 -65 77 -65
c33 0 56 17 76 56l16 -8c-23 -70 -63 -102 -98 -102c-31 0 -68 4 -115 69zM250 338c-103 -57 -127 -111 -127 -182c0 -98 56 -135 119 -135c71 0 105 40 154 107c-57 75 -135 190 -146 210z" />
    <glyph glyph-name="quotesingle" unicode="'" horiz-adv-x="190" 
d="M79 426c0 0 -26 159 -26 168c0 22 21 50 51 50c26 0 35 -17 35 -33s-33 -181 -33 -181z" />
    <glyph glyph-name="parenleft" unicode="(" horiz-adv-x="295" 
d="M44 252c0 187 93 353 212 455l18 -18c-32 -36 -152 -175 -152 -437c0 -263 118 -402 152 -439l-18 -17c-208 180 -212 411 -212 456z" />
    <glyph glyph-name="parenright" unicode=")" horiz-adv-x="295" 
d="M252 252c0 -187 -93 -353 -212 -455l-18 18c32 36 152 175 152 437c0 263 -118 402 -152 439l18 17c208 -180 212 -411 212 -456z" />
    <glyph glyph-name="asterisk" unicode="*" horiz-adv-x="433" 
d="M198 567c-13 3 -27 4 -42 4c-49 0 -81 7 -81 37c0 14 9 30 33 30c34 0 52 -33 96 -51c-4 39 -23 66 -23 92c0 21 12 39 30 39s33 -11 33 -35c0 -27 -17 -67 -19 -97c46 20 62 52 95 52c27 0 34 -20 34 -30c0 -30 -35 -37 -69 -37c-19 0 -37 -1 -55 -4
c34 -37 83 -47 83 -87c0 -18 -15 -29 -29 -29c-39 0 -46 65 -71 104c-25 -45 -32 -104 -70 -104c-17 0 -29 13 -29 28c0 43 51 51 84 88z" />
    <glyph glyph-name="plus" unicode="+" horiz-adv-x="527" 
d="M289 257h172v-49h-172v-174h-51v174h-172v49h172v174h51v-174z" />
    <glyph glyph-name="comma" unicode="," horiz-adv-x="220" 
d="M104 95c40 0 66 -39 66 -99c0 -70 -60 -118 -120 -129c-7 6 -8 15 -5 25c52 13 86 58 86 79c0 23 -17 29 -36 31c-18 3 -44 12 -44 44c0 28 22 49 53 49z" />
    <glyph glyph-name="hyphen" unicode="-" horiz-adv-x="333" 
d="M274 217h-226c-9 0 -15 8 -15 17c0 16 13 37 25 37h229c10 0 14 -9 14 -18c0 -11 -14 -36 -27 -36z" />
    <glyph glyph-name="period" unicode="." horiz-adv-x="220" 
d="M57 43c0 29 24 53 53 53s53 -24 53 -53s-24 -53 -53 -53s-53 24 -53 53z" />
    <glyph glyph-name="slash" unicode="/" horiz-adv-x="291" 
d="M282 682l-237 -703h-41l237 703h41z" />
    <glyph glyph-name="zero" unicode="0" horiz-adv-x="440" 
d="M216 -11c-107 0 -179 136 -179 289c0 187 89 300 183 300c43 0 86 -27 115 -66c42 -55 64 -131 64 -225c0 -222 -110 -298 -183 -298zM220 543c-43 0 -102 -42 -102 -275c0 -82 11 -246 99 -246c17 0 62.9004 10 84 88c13 48 18 108 18 195c0 127 -28 198 -57 223
c-11 10 -26 15 -42 15z" />
    <glyph glyph-name="one" unicode="1" horiz-adv-x="440" 
d="M189 477c-19 0 -63 -18 -85 -28l-12 31c88 41 133 62 186 98c4 0 5 0 5 -5v-496c0 -36 5 -44.7002 38 -46l52 -2c3 0 8 -2 8 -8v-21l-2 -2l-135 2l-137 -2l-2 2v21c0 3 3 8 8 8l60 2c37 1.2002 38 17 38 46v342c0 34 0 58 -22 58z" />
    <glyph glyph-name="two" unicode="2" horiz-adv-x="440" 
d="M59 443c0 57 55 135 160 135c77 0 169 -42 169 -144c0 -72 -41.0996 -113.8 -95 -166l-95 -92c-5 -5 -72 -73 -72 -118h170c34 0 52 17 66 72l25 -4l-20 -126h-309c0 56 9 99 102 194l70 69c56 57 79 106 79 167c0 91 -62 117 -96 117c-69 0 -88 -36 -88 -60
c0 -8 2 -16 4 -23s4 -14 4 -22c0 -26 -20 -36 -36 -36c-22 0 -38 17 -38 37z" />
    <glyph glyph-name="three" unicode="3" horiz-adv-x="440" 
d="M217 547c-25 0 -98 -14 -98 -75c0 -18 -7 -49 -34 -49c-26 0 -28 29 -28 32c0 31 41 123 180 123c97 0 126 -61 126 -101c0 -25 -8 -75 -98 -132c56 -9 130 -50 130 -154c0 -132 -100 -201 -213 -201c-57 0 -137 25 -137 63c0 15 15 32 35 32c19 0 28 -10 37 -23
c11 -17 29 -41 77 -41c33 0 124 31 124 157c0 107 -72 124 -126 124c-9 0 -20 -2 -31 -4l-4 30c77 13 138 88 138 134c0 57 -37 85 -78 85z" />
    <glyph glyph-name="four" unicode="4" horiz-adv-x="440" 
d="M407 198c10 0 14 -6 14 -15c0 -11 -14 -30 -27 -30h-67v-81c0 -28 5 -40.9004 33 -43l27 -2c6 0 7 -5 7 -7v-20l-2 -2s-63 2 -104 2s-105 -2 -105 -2l-2 2v20c0 2 1 7 7 7l27 2c30 2.2002 44 14 44 43v81h-186c-29 0 -37 26 -40 40c0 1 1 2 2 3c65 72 186 294 226 377
c2 4 3 5 7 5c3 0 23 -9 35 -11c-51 -122 -129 -253 -202 -369h158v157c0 7 1 15 10 20c11 8 29 17 44 17c13 0 14 -11 14 -31v-163h80z" />
    <glyph glyph-name="five" unicode="5" horiz-adv-x="440" 
d="M306 169c0 103 -52 154 -114 154c-46 0 -81 -7 -120 -23l32 273c33 -3 67 -5 102 -5c50 0 102 4 156 10l6 -3l-15 -65c-39 -4 -71 -5 -99 -5c-45 0 -79 4 -114 8l-19 -158c21 8 57 15 96 15c106 0 166 -92 166 -184c0 -112 -79 -196 -192 -196c-57 0 -140 32 -140 71
c0 19 16 32 34 32c20 0 33 -15 45 -31c14.2002 -18.9004 31 -38 63 -38c64 0 113 58 113 145z" />
    <glyph glyph-name="six" unicode="6" horiz-adv-x="440" 
d="M379 552c-65 -6 -121 -23 -169 -70c-46 -45 -76 -112 -87 -192c23 28 75 49 113 49c148 0 169 -122 169 -168c0 -68 -36 -181 -174 -181c-73 0 -187 41 -187 240c0 92 34.2998 181.7 103 251c64.2998 64.7998 131 92 229 97zM120 262c-1 -10 -1 -25 -1 -35
c0 -168 72 -208 122 -208c46 0 89 41 89 145c0 47 -18 143 -114 143c-21 0 -56 -2 -96 -45z" />
    <glyph glyph-name="seven" unicode="7" horiz-adv-x="440" 
d="M162 509c-30 0 -65 -1 -84 -70l-26 3c8 49 14 91 15 136c0 2 2 3 4 3c17 -3 15 -13 47 -13h195c36 0 57 5 73 10l15 -11c-106 -258 -162 -415 -216 -576l-65 -3l-3 6c64 144 140 331 214 515h-169z" />
    <glyph glyph-name="eight" unicode="8" horiz-adv-x="440" 
d="M216 18c43 0 115 21 115 116c0 45 -25.0996 89.9004 -84 126l-44 27c-81 -54 -96 -121 -96 -149c0 -85 66 -120 109 -120zM373 459c0 -61 -66 -109 -108 -137l58 -38c49 -32.0996 74 -76 74 -131c0 -72 -59 -163 -183 -163c-100 0 -169 51 -169 148c0 37 16 80 55 114
c24 21 45 39 69 57l-17 10c-58 36 -84 75 -84 128c0 73 63 131 160 131c93 0 145 -51 145 -119zM223 554c-57 0 -88 -45 -88 -89c0 -29 6 -64 66 -103l29 -18c26 19 81 65 81 116c0 44 -26 94 -88 94z" />
    <glyph glyph-name="nine" unicode="9" horiz-adv-x="440" 
d="M57 16c65 6 121 23 169 70c46 45 76 112 87 192c-23 -28 -75 -49 -113 -49c-148 0 -169 122 -169 168c0 68 36 181 174 181c73 0 187 -41 187 -240c0 -92 -34.2998 -181.7 -103 -251c-64.2998 -64.7998 -131 -92 -229 -97zM316 306c1 10 1 25 1 35
c0 168 -72 208 -122 208c-46 0 -89 -41 -89 -145c0 -47 18 -143 114 -143c21 0 56 2 96 45z" />
    <glyph glyph-name="colon" unicode=":" horiz-adv-x="220" 
d="M64 355c0 29 24 53 53 53s53 -24 53 -53s-24 -53 -53 -53s-53 24 -53 53zM64 92c0 29 24 53 53 53s53 -24 53 -53s-24 -53 -53 -53s-53 24 -53 53z" />
    <glyph glyph-name="semicolon" unicode=";" horiz-adv-x="220" 
d="M54 355c0 29 24 53 53 53s53 -24 53 -53s-24 -53 -53 -53s-53 24 -53 53zM104 95c40 0 66 -39 66 -99c0 -70 -60 -118 -120 -129c-7 6 -8 15 -5 25c52 13 86 58 86 79c0 23 -17 29 -36 31c-18 3 -44 12 -44 44c0 28 22 49 53 49z" />
    <glyph glyph-name="less" unicode="&#x3c;" horiz-adv-x="487" 
d="M122 239l317 -116v-50l-390 142v48l390 141v-50z" />
    <glyph glyph-name="equal" unicode="=" horiz-adv-x="527" 
d="M461 193v-49h-395v49h395zM461 318v-49h-395v49h395z" />
    <glyph glyph-name="greater" unicode="&#x3e;" horiz-adv-x="487" 
d="M366 236l-317 116v50l390 -142v-48l-390 -141v50z" />
    <glyph glyph-name="question" unicode="?" horiz-adv-x="405" 
d="M127 43c0 29 24 53 53 53s53 -24 53 -53s-24 -53 -53 -53s-53 24 -53 53zM97 572c0 -15 2 -21 6 -26s6 -11 6 -24c0 -23 -20 -35 -39 -35c-16 0 -41 8 -41 43c0 38 21 66 51 90c29 25 71 39 124 39c102 0 165 -60 165 -151c0 -79 -59 -123 -106 -157
c-23 -17 -43 -33 -52 -50c-13 -25 -18 -49 -18 -73v-44c0 -7 -5 -10 -13 -10s-13 3 -13 10v46c0 43 2.59961 101.4 67 161c40 37 60 66 60 113c0 65 -43 125 -100 125s-97 -27 -97 -57z" />
    <glyph glyph-name="at" unicode="@" horiz-adv-x="895" 
d="M583 74c0 -10 9 -12 11 -12c102 0 166 47 166 213c0 206 -176 306 -301 306c-152 0 -320 -103 -320 -340c0 -150 76 -366 334 -366c85 0 147 23 201 66l13 -18c-60 -46 -120 -81 -233 -81c-239 0 -395 168 -395 381c0 215 185 388 410 388c215 0 370 -142 370 -329
c0 -114 -70 -255 -288 -255c-29 0 -36 25 -36 41c0 15 7 38 15 63l-2 1c-44 -74 -98 -103 -133 -103c-100 0 -122 84 -122 124c0 143 127 257 233 257c33 0 67 -17 77 -43l5 24l53 13l15 -5l-60 -258c-6 -27 -13 -60.5 -13 -67zM569 316c0 38 -29 63 -65 63
c-17 0 -60 -9 -90 -40c-51 -51 -68 -115 -68 -177c0 -48 15 -92 78 -92c35 0 84 57 115 130c13 31 30 82 30 116z" />
    <glyph glyph-name="A" unicode="A" horiz-adv-x="695" 
d="M152 79c-10 -25.4004 2.5 -47.4004 40 -50l29 -2c4 -0.299805 8 -3 8 -8v-19l-2 -2s-109 2 -133 2c-26 0 -90 -2 -90 -2l-2 2v19c0 5 3 7.7002 8 8c43.5 3 69.2002 10.7998 97 75l222.3 520.3c11 25.7998 19 35.7002 33.7002 35.7002c14 0 19.4004 -9.90039 27 -30
l205 -542c14 -39 34.2002 -54.4004 74 -58l11 -1c5 -0.5 10 -3 10 -8v-19l-3 -2s-77 2 -116 2c-35 0 -133 -2 -133 -2l-1 2v19c0 5 2 7.59961 7 8l28 2c37.7998 2.7002 52 15.2998 42 43l-61 169h-208c-24 0 -29.9004 -4.40039 -35 -17zM263 283h174l-97 267h-2
l-100.2 -253.7c-4.2002 -10.7998 3 -13.2998 25.2002 -13.2998z" />
    <glyph glyph-name="B" unicode="B" horiz-adv-x="582" 
d="M17 19c0 5 2 7.7002 7 8l30 2c41.7002 2.7998 52 7 52 42v503c0 34 -9.2998 39.2002 -52 42l-30 2c-5 0.299805 -7 3 -7 7v20l2 1s77.5 -1 127 -1c47.2002 0 86 1 121 1c186 0 215 -86 215 -153c0 -55 -42 -108 -93 -133c87 -25 152 -80 152 -176
c0 -86 -53 -186 -252 -186c-89 0 -87.2002 2 -143 2c-49.5 0 -127 -2 -127 -2l-2 2v19zM187 332v-254c0 -33 13 -46 83 -46c152 0 182 60 182 133c0 90 -59 167 -176 167h-89zM187 569v-203h74c83 0 144 30 144 115c0 102 -75 131 -131 131c-87 0 -87 -10 -87 -43z" />
    <glyph glyph-name="C" unicode="C" horiz-adv-x="644" 
d="M355 -10c-215 0 -318 164 -318 325c0 197 153 343 319 343c123 0 162 -42 219 -45c4 -54 12 -103 22 -155l-30 -4c-26 86 -84 167 -222 167c-79 0 -221 -84 -221 -287c0 -146 75 -303 230 -303c93 0 161 31 232 109l23 -15c-68 -89 -157 -135 -254 -135z" />
    <glyph glyph-name="D" unicode="D" horiz-adv-x="697" 
d="M187 72c0 -32 11 -40 109 -40c141 0 266 50 266 252c0 154 -75 328 -291 328c-49 0 -84 -3 -84 -38v-502zM17 18c0 5 3.00098 8.7002 7.00098 9l30 2c34.9004 2.2998 52 13 52 45v498c0 36 -11.4004 41.0996 -52 44l-28 2c-5 0.400391 -9 3 -9 8v19l2 2
c49.0996 -0.799805 76.8994 -2 125.999 -2c64.2998 0 100 2 164 2c192 0 345 -153 345 -339c0 -246 -186 -310 -327 -310c-103 0 -111 2 -182 2c-49.0996 0 -82 0 -126 -2l-2 2v18z" />
    <glyph glyph-name="E" unicode="E" horiz-adv-x="549" 
d="M445.3 646c1.40039 -7.59961 16.499 -104 21.6992 -145l-29 -5c-22 69 -40 109 -115 109h-105c-24 0 -36 -8 -36 -32v-212h127c35 0 46.5996 13.5996 50 42l3 25c0 4 3 8 7 8h22c3 0 4 -2 4 -4c0 0 -4 -53 -4 -86c0 -34 4 -91 4 -91l-3 -3h-23c-5 0 -8 4 -8 7l-2 26
c-2.2998 29.2998 -16 38 -50 38h-127v-251c0 -27 14 -33 36 -33h136c76 0 115 59 135 131l31 -5c-12 -52 -26.5 -115.5 -37 -167c0 0 -80.2998 2 -128 2h-213l-128 -2l-2 2v20c0 3 2 6.59961 8 7l30 2c39.4004 2.59961 51 15 51 43v501c0 31 -12.5996 40.4004 -51 43l-30 2
c-7 0.5 -8 4 -8 7v20l2 1s101 -1 128 -1h252.3c24.2002 0 29.5 0.599609 47 4c2.40039 0 3.60059 -0.700195 4.00098 -3z" />
    <glyph glyph-name="F" unicode="F" horiz-adv-x="477" 
d="M101 573c0 31 -12.6006 40.4004 -51.001 43l-30 2c-7 0.5 -8 4 -8 7v20l2 1s101 -1 128 -1h252.3c24.2002 0 29.5 0.599609 47 4c2.40039 0 3.60059 -0.700195 4.00098 -3c1.40039 -7.59961 16.5 -104 21.7002 -145l-29 -5c-22 69 -40 109 -115 109h-105
c-24 0 -36 -8 -36 -32v-212h127c35 0 46.5996 13.5996 50 42l3 25c0 4 3 8 7 8h22c3 0 4 -2 4 -4c0 0 -4 -55 -4 -88c0 -34 4 -89 4 -89l-3 -3h-23c-5 0 -8 4 -8 7l-2 26c-2.2998 29.2998 -16 38 -50 38h-127v-251c0 -31 15 -45 55 -45h26c5 0 8 -3 8 -8v-19l-1 -2
s-76.9004 2 -126 2c-50.2998 0 -129 -2 -129 -2l-2 2v19c0 5 3 8 8 8h26c41 0 54 17 54 45v501z" />
    <glyph glyph-name="G" unicode="G" horiz-adv-x="693" 
d="M375 658c122 0 158 -45 218 -45c7 -72 13 -112 22 -154l-30 -6c-26 86 -79 168 -224 168c-135 0 -242 -119 -242 -294c0 -132 96 -301 274 -301c54 0 113 16 147 48v153c0 31 -14.7998 38.9004 -55 42l-26 2c-4 0.299805 -8 3 -8 8v26l2 2s87 -2 126 -2c35 0 93 2 93 2
l2 -2v-26c0 -5 -3 -7.5 -8 -8c-29 -3 -45 -8.7998 -45 -44v-116c0 -11 5 -19 16 -28c-68 -58 -149 -93 -267 -93c-201 0 -338 144 -338 317c0 220 171 351 343 351z" />
    <glyph glyph-name="H" unicode="H" horiz-adv-x="700" 
d="M513 74v247h-326v-249c0 -31 15.2998 -39.9004 55 -43l26 -2c4 -0.299805 8 -3 8 -8v-19l-2 -2s-86 2 -126 2c-35 0 -128 -2 -128 -2l-2 2v19c0 5 3 7.7002 7 8l27 2c40.7998 3 54 15 54 43v502c0 30 -16.2002 39.2002 -54 42l-27 2c-4 0.299805 -8 3 -8 8v19l2 2
s87 -2 126 -2c36 0 129 2 129 2l2 -2v-19c0 -5 -3 -7.59961 -8 -8l-26 -2c-40.2002 -3.09961 -55 -14 -55 -42v-211h326v211c0 30 -14.7002 39 -54 42l-26 2c-5 0.400391 -9 3 -9 8v19l2 2s87 -2 126 -2c36 0 129 2 129 2l2 -2v-19c0 -5 -3 -7.59961 -8 -8l-26 -2
c-40.2998 -3.09961 -55 -14 -55 -42v-500c0 -31 14.4004 -41.9004 55 -45l26 -2c5 -0.400391 9 -3 9 -8v-19l-2 -2s-87 2 -126 2c-36 0 -129 -2 -129 -2l-2 2v19c0 5 3 7.59961 8 8l26 2c43 3.2998 54 17 54 45z" />
    <glyph glyph-name="I" unicode="I" horiz-adv-x="293" 
d="M187 574v-503c0 -30 15.2998 -38.9004 55 -42l26 -2c4 -0.299805 8 -3 8 -8v-19l-2 -2c-47.5 2 -77.5 2 -127 2s-78 0 -127 -2l-2 2v19c0 5 3 7.7002 7 8l27 2c41.5996 3.09961 54 14 54 42v503c0 30 -14.7002 39.0996 -54 42l-27 2c-4 0.299805 -8 3 -8 8v19l2 2
c50 -1 77.5 -2 127 -2c49.9004 0 79 1 128 2l2 -2v-19c0 -5 -3 -7.59961 -8 -8l-26 -2c-39.7998 -3.09961 -55 -14 -55 -42z" />
    <glyph glyph-name="J" unicode="J" horiz-adv-x="315" 
d="M59 -133c33 0 84 28 84 208v484c0 48.5 -19.7998 55.4004 -71 58l-20 1c-5 0.200195 -9 3 -9 8v19l2 2s98 -2 137 -2c35 0 119 2 119 2l2 -2v-19c0 -5 -3 -7.7002 -8 -8l-17 -1c-40.7998 -2.40039 -54 -15 -54 -43v-477c0 -128 -47 -190 -105 -236
c-45 -38 -89 -39 -114 -39c-22 0 -64 18 -64 54c0 22 24 36 38 36c31 0 42.2998 -13.7998 52 -27c7.2998 -10 14 -18 28 -18z" />
    <glyph glyph-name="K" unicode="K" horiz-adv-x="637" 
d="M187 309v-237.999c0 -30 15.2998 -38.9004 55 -42l26 -2c4 -0.299805 8 -3 8 -8v-19l-2 -2c-47.5 2 -77.5 2 -127 2s-78 0 -127 -2l-2 2v19c0 5 3 7.7002 7 8l27 2c41.5996 3.09961 54 14 54 42v503c0 30 -14.7002 39.0996 -54 42l-27 2c-4 0.299805 -8 3 -8 8v19l2 2
c50 -1 77.5 -2 127 -2c49.9004 0 79 1 128 2l2 -2v-19c0 -5 -3 -7.59961 -8 -8l-26 -2c-39.7998 -3.09961 -55 -14 -55 -42v-226.9c37.4004 2.2002 59.2002 17.1006 80 38.9004l168 176c28 31.0996 34.2002 50.3994 -4 53.999l-21 2c-4 0.400391 -8 3 -8 8v19l2 2
s76 -2 116 -2c35 0 96 2 96 2l5 -2v-19c0 -5 -5 -8 -11 -8c-40 -5 -79 -11 -125 -60l-140 -151c-32.7002 -35.2998 -37 -42 -37 -49c0 -8 3 -15 12 -25l219 -260c25 -31 49.2002 -40.9004 78 -45l7 -1c4 -0.599609 9 -3 9 -8v-19l-3 -2s-75 2 -114 2c-36 0 -60 -2 -60 -2
l-2 2v6c0 18 0 42 -20 67l-163 198c-20.7998 26.7002 -48.5 37.7998 -84 38z" />
    <glyph glyph-name="L" unicode="L" horiz-adv-x="526" 
d="M349 39c76 0 106 59 126 131l30 -5c-11 -52 -22 -111 -26 -167c0 0 -92.2998 2 -119.3 2h-212.7c-27 0 -128 -2 -128 -2l-2 2v19c0 5 4 7.7002 8 8l30 2c40.2998 2.7002 51 8 51 43v502c0 30 -16.2002 39.2002 -54 42l-27 2c-4 0.299805 -8 3 -8 8v19l2 2s87 -2 126 -2
c36 0 129 2 129 2l2 -2v-19c0 -5 -3 -7.59961 -8 -8l-26 -2c-40.7002 -3.09961 -55 -14 -55 -42v-485c0 -31 18 -50 47 -50h115z" />
    <glyph glyph-name="M" unicode="M" horiz-adv-x="839" 
d="M665 87l-28 447h-2l-225 -529c-4 -8 -8 -11 -14 -11s-12.2002 3.90039 -15 11l-207 519h-2l-42 -438c-2.7998 -28.9004 4.7002 -54.7002 34 -57l26 -2c5 -0.400391 10 -3 10 -8v-18l-2 -3s-52 2 -92 2c-35 0 -90 -2 -90 -2l-1 2v19c0 5 3 7.59961 9 8l27 2
c30.2002 2.2002 38 30 40 57l48 488c2.7998 28.9004 -4.7998 39.7002 -38 42l-29 2c-7 0.5 -10 3 -10 7v18l3 3h147l205 -509c3 -9 5 -13 8 -13c2 0 4.90039 4.09961 9 14l212 508h134l2 -3v-18c0 -6 -8 -6.7998 -11 -7l-27 -2c-29.2998 -2.2002 -39.7998 -16.5 -38 -42
l35 -487c2.2998 -32 8.09961 -55.5996 41 -58l27 -2c7 -0.5 11 -3 11 -8v-19l-2 -2s-73 2 -112 2c-36 0 -107 -2 -107 -2l-3 2v19c0 5 5 7.7002 9 8l27 2c27.7998 2.09961 34.5996 32.0996 33 58z" />
    <glyph glyph-name="N" unicode="N" horiz-adv-x="695" 
d="M603 557v-536c0 -19 -7 -31 -21 -31c-16 0 -29 9 -40 24l-349 441c-17 22 -28 33 -34 33c-8 0 -10 -15 -10 -49v-351c0 -30 15.4004 -56 55 -59l26 -2c4 -0.299805 8 -3 8 -8v-19l-2 -2s-71 2 -111 2c-35 0 -112 -2 -112 -2l-2 2v18c0 5 3 8.2002 13 9l26 2
c40.7998 3.09961 54 32 54 59v462c-6 26 -36 65 -68 68c-8 0.700195 -17 3 -17 8v19l3 2h136l343 -444c28.7002 -37.2002 42 -55 50 -55c7 0 7 11 7 30v379c0 27 -12.2002 55.7998 -54 59l-26 2c-5 0.400391 -14 3 -14 8v19l4 2s75 -2 111 -2c39 0 111 2 111 2l2 -2v-19
c0 -5 -4 -7.7002 -8 -8l-27 -2c-38.9004 -2.90039 -54 -29 -54 -59z" />
    <glyph glyph-name="O" unicode="O" horiz-adv-x="698" 
d="M662 329c0 -200 -123 -339 -314 -339c-172 0 -311 123 -311 320c0 196 131 348 310 348c180 0 315 -131 315 -329zM334 624c-96 0 -205 -87 -205 -297c0 -192 119 -303 239 -303c114 0 202 107 202 286c0 208 -95 314 -236 314z" />
    <glyph glyph-name="P" unicode="P" horiz-adv-x="521" 
d="M106 71v503c0 32 -27.0996 41.0996 -44 42l-39 2c-4 0.200195 -6 2 -6 6v21l2 1s81 -1 127 -1c30 0 104 9 130 9c185 0 221 -109 221 -168c0 -85 -52 -204 -234 -204c-35 0 -54 3 -76 10v-221c0 -30 14.9004 -39.0996 54 -42l27 -2c4 -0.299805 8 -3 8 -8v-19l-2 -2
s-87 2 -126 2c-36 0 -129 -2 -129 -2l-2 2v19c0 5 3 7.59961 8 8l26 2c40.0996 3.09961 55 14 55 42zM187 574v-253c11 -3 46 -5 71 -5c97 0 151 44 151 152c0 127 -71 152 -140 152c-72 0 -82 -17 -82 -46z" />
    <glyph glyph-name="Q" unicode="Q" horiz-adv-x="698" 
d="M139 -153c33.2998 48.2002 97.8008 107.4 169.601 145.2c-153.4 17.2998 -271.601 136.1 -271.601 317.8c0 196 131 348 310 348c180 0 315 -131 315 -329c0 -176.7 -96 -305.8 -250.1 -333.5c-32.5 -8.7998 -82.9004 -29.7002 -133.801 -67
c7.2002 1 13.9004 1.5 19.9004 1.5c110 0 191 -82 279 -82c29 0 65 10 87 37l17 -12c-39 -56 -81 -82 -144 -82c-130 0 -193 95 -286 95c-15 0 -53 -13 -73 -59zM334.001 624c-96 0 -205 -87 -205 -297c0 -192 119 -303 239 -303c114 0 202 107 202 286
c0 208 -95 314 -236 314z" />
    <glyph glyph-name="R" unicode="R" horiz-adv-x="579" 
d="M271 654c63 0 125 -5 173 -50c36 -34 53 -75 53 -125c0 -105 -90 -157 -133 -171l126 -210c26 -43.4004 51 -77 96 -77l1 -24c-10 -5 -27 -7 -42 -7c-60 0 -103.3 42.4004 -132 89l-107 174c-14.2998 23.2998 -35 38 -119 38v-219c0 -30 14.2002 -40.0996 54 -43l27 -2
c4 -0.299805 8 -3 8 -8v-19l-2 -2s-87 2 -126 2c-36 0 -129 -2 -129 -2l-2 2v19c0 5 3 7.59961 8 8l26 2c42.2998 3.2998 55 15 55 43v502c0 32 -27 41.0996 -44 42l-39 2c-4 0.200195 -6 2 -6 6v21l2 1s81 -1 127 -1c30 0 100 9 125 9zM272 620c-71 0 -85 -17 -85 -46v-249
h50c97 0 172 28 172 153c0 118 -76 142 -137 142z" />
    <glyph glyph-name="S" unicode="S" horiz-adv-x="475" 
d="M387 631c7 -54 8 -81 17 -129l-31 -6c-19 66 -45 128 -141 128c-66 0 -110 -51 -110 -112c0 -83 94 -121 136 -136c84 -30 176 -76 176 -192c0 -102 -92 -194 -207 -194c-84.5 0 -114 15 -174 15c-2 51 -7 84 -19 160l31 3c21 -99.5 81 -142 170 -142
c76 0 119 42 119 123c0 88 -49.5996 118.4 -111 142c-91 35 -189 82 -189 194c0 106 100 173 187 173c93 0 91 -19 146 -27z" />
    <glyph glyph-name="T" unicode="T" horiz-adv-x="567" 
d="M77 645h423c21 0 22 17 22 23l26 4c0 -49 5 -103 13 -154l-30 -5c-17 77 -24 93 -79 93h-66c-36 0 -48 -8 -48 -42v-492c0 -31 15.7002 -40 55 -43l26 -2c5 -0.400391 9 -3 9 -8v-19l-2 -2s-88 2 -127 2c-35 0 -128 -2 -128 -2l-2 2v19c0 5 3 7.59961 8 8l26 2
c42.2002 3.2002 54 15 54 43v495c0 31 -12 39 -49 39h-83c-55 0 -68 -13 -88 -93l-30 5c12 53 18 105 22 154l27 -4c0 -6 0 -23 21 -23z" />
    <glyph glyph-name="U" unicode="U" horiz-adv-x="661" 
d="M321 -10c-90 0 -232 42 -232 246v336c0 31 -14.7002 41.0996 -54 44l-27 2c-4 0.299805 -8 3 -8 8v19l2 2s87 -2 126 -2c36 0 129 2 129 2l2 -2v-19c0 -5 -3 -7.59961 -8 -8l-26 -2c-41.2998 -3.2002 -55 -16 -55 -44v-303c0 -65 0 -135 53 -188c30 -29 71 -50 119 -50
c169 0 184 134 184 246v293c0 31 -14.0996 43 -54 46l-27 2c-4 0.299805 -8 3 -8 8v19l2 2s71 -2 110 -2c36 0 110 2 110 2l2 -2v-19c0 -5 -3 -7.59961 -8 -8l-26 -2c-41.2998 -3.2002 -55 -18 -55 -46v-275c0 -178 -46 -305 -251 -305z" />
    <glyph glyph-name="V" unicode="V" horiz-adv-x="622" 
d="M484.2 565c13.5996 38.2998 -7.09961 49.7002 -44.1992 52l-16 1c-4 0.200195 -8 3 -8 8v19l2 2s71 -2 110 -2c35 0 92 2 92 2l2 -2v-19c0 -5 -3 -7.7002 -8 -8c-55.2998 -3.2998 -72.2998 -30.2998 -85.5 -65.5l-203.5 -541.5c-5.7002 -15.0996 -13 -23 -24 -23
c-10 0 -17.7002 8.09961 -23 23l-194.3 545c-15 42 -23.2002 57.5 -75.7002 62c-4 0.299805 -8 3 -8 8v19l2 2s78 -2 117 -2c35 0 114 2 114 2l2 -2v-19c0 -5 -3 -7.40039 -8 -8l-17 -2c-47.2998 -5.59961 -54.5 -14.0996 -44 -44l157.5 -445h4.59961z" />
    <glyph glyph-name="W" unicode="W" horiz-adv-x="924" 
d="M785 565c12.7998 39.0996 -7 49.7002 -44 52l-16 1c-4 0 -8 3 -8 8v19l2 2s71 -2 110 -2c35 0 92 2 92 2l2 -2v-19c0 -5 -3 -8 -8 -8c-55 -3 -72.9004 -30 -85 -65l-187 -542c-5 -15 -13 -23 -27 -23c-13 0 -25 7 -31 24l-117 355c-5 14 -10 28 -14 28
c-5 0 -10 -13 -14 -25l-119 -358c-4 -14 -14 -24 -28 -24c-15 0 -26 8 -31 24l-182 544c-18 53 -23 59 -68 62c-7 1 -12 3 -12 7v20l2 2s52 -2 90 -2c51 0 121 2 121 2l2 -2v-19c0 -5 -3 -8 -9 -8l-22 -1c-19 -1 -28 -6 -28 -19c0 -7 2 -15 6 -26l150 -461h2l106 331
c4 12 7 25 7 38c0 9 -1 18 -5 28l-15 46c-8.09961 25 -21 61 -74 64c-7 0 -12 3 -12 7v20l2 2s56 -2 96 -2c49 0 128 2 128 2l3 -2v-20c0 -5 -5 -7 -9 -7l-29 -2c-26 -2 -35.5996 -19.9004 -22 -62l144 -445h2z" />
    <glyph glyph-name="X" unicode="X" horiz-adv-x="655" 
d="M13 625l0.00195312 19l4 3s91 -2 102 -2c5 0 120 2 120 2s3 -3 4 -3v-19c0 -5 -2.2998 -6.7998 -5 -7l-32 -2c-32.5 -2 -24.4004 -16.9004 -5 -44l119 -176c5 -7 9 -11 12 -11s7 4 13 12l129 175c18.2998 25.5996 23.3994 42 -6.00098 44l-30 2c-4 0.299805 -7 2 -7 7v20
l2 2s88 -2 99 -2c5 0 97 2 97 2l3 -2v-20c0 -3 -1 -6.7002 -9 -7c-60.5 -2.2998 -83 -30 -110 -66l-131 -177c-8.90039 -12.0996 -13 -21 -13 -30c0 -10 6 -20 16 -33l154 -210c27 -39 61.5 -72 106 -75c5 -0.299805 7 -4 7 -7v-20l-2 -2c-27 1 -93 2 -105 2
c-6 0 -125 -2 -125 -2l-3 2v20c0 4 2 6.59961 6 7l20 2c40.0996 4 37.8994 10 12.999 44l-132 188c-6 8 -10 11 -14 11c-3 0 -9 -6 -15 -14l-132 -181c-16.5996 -24 -24.0996 -43.9004 15 -48l19 -2c5.09961 -0.5 6 -4 6 -7v-20l-3 -2s-97 2 -112 2c-5 0 -84 -2 -84 -2l-1 2
v20c0 5 5 6.7002 11 7c58 3 93 47 115 77l137 187c6 8 10 17 10 23c0 10 -5 19 -14 30l-144 205c-41 58 -71.5 66 -89 69c-9.90039 1.7002 -16 3 -16 7z" />
    <glyph glyph-name="Y" unicode="Y" horiz-adv-x="574" 
d="M254 72v187.001c0 10.7002 -3.2002 33.5 -8.5 42.7002l-145.8 245.3c-31.5996 53.2002 -41.7998 67 -77.7002 70l-12 1c-3 0.200195 -10 1 -10 7v20l2 2s92 -2 105 -2c6 0 114 2 114 2l2 -2v-19c0 -4 -2 -7.90039 -6 -8l-29 -1
c-35.2998 -1.2002 -28 -14.6006 -13 -41.001l137 -241h2l128 241c16.7002 31.5 8.40039 38.5 -14 40l-30 2c-4 0.299805 -5 4 -5 7v20l2 2s78 -2 91 -2c9 0 87 2 87 2l2 -2v-20c0 -5 -4 -6.40039 -10 -7l-21 -2c-35.2998 -3.40039 -45.5 -21.4004 -61.7998 -51l-140.9 -255
c-5.7998 -10.5996 -7.2998 -24 -7.2998 -42.2998v-195.7c0 -31 16 -45 55 -45h27c4 0 8 -3 8 -8v-19l-2 -2s-87 2 -126 2c-36 0 -129 -2 -129 -2l-2 2v19c0 5 3 8 8 8h26c41 0 55 17 55 45z" />
    <glyph glyph-name="Z" unicode="Z" horiz-adv-x="604" 
d="M551 -2c0 0 -99.7002 2 -126.7 2h-364.3c-14 0 -19 5 -19 15c0 7 2 15 8 23l389 541c5 7 8 13 8 18c0 6 -3 8 -10 8h-231c-75 0 -93 -50 -114 -119l-30 5c8 41 18 113 22 167c37 -3 34 -13 81 -13h321c31 3 51 10 63 10c19 0 23 -3 23 -10c0 -11 -4 -26 -24 -54
l-375 -519c-5 -9 -8 -15 -8 -20c0 -9 8 -13 25 -13h233c76 0 105 59 125 131l31 -5c-12 -52 -22 -111 -27 -167z" />
    <glyph glyph-name="bracketleft" unicode="[" horiz-adv-x="356" 
d="M110 -110v813h210v-30c-137 -10 -147 -25 -147 -112v-529c0 -87 9 -102 147 -113v-29h-210z" />
    <glyph glyph-name="backslash" unicode="\" horiz-adv-x="287" 
d="M55 698l230 -746h-44l-230 746h44z" />
    <glyph glyph-name="bracketright" unicode="]" horiz-adv-x="356" 
d="M246 703v-813h-210v30c137 10 147 25 147 112v529c0 87 -9 102 -147 113v29h210z" />
    <glyph glyph-name="asciicircum" unicode="^" horiz-adv-x="518" 
d="M259 593l-102 -247h-45l127 304h42l126 -304h-45z" />
    <glyph glyph-name="underscore" unicode="_" horiz-adv-x="486" 
d="M482 -110v-44h-477v44h477z" />
    <glyph glyph-name="grave" unicode="`" horiz-adv-x="392" 
d="M178 699l70 -126c5 -10 6 -17 6 -24c0 -5 -7 -11 -15 -11c-6 0 -13 5 -29 20l-114 109l2 11c8 6 31 23 65 23c5 0 11 -1 15 -2z" />
    <glyph glyph-name="a" unicode="a" horiz-adv-x="538" 
d="M342 204l-77 197h-2l-77 -183c0 -5 0 -14 20 -14h136zM161 164l-44 -105c-2 -5 -4 -10 -4 -13c0 -13 16 -16 41 -18l13 -1c3 0 6 -3 6 -6v-21l-2 -2s-83 2 -102 2c-20 0 -65 -2 -65 -2l-2 2v21c0 3 3 6 6 6c25 3 47 7 64 43l175 376c9.90039 21.4004 24 26 33 26
c21 0 33 -8 40 -25l146 -371c16 -40 29 -46 62 -49c7 -1 8 -3 8 -6v-21l-3 -2s-53 2 -83 2c-28 0 -112 -2 -112 -2l-2 2v21c0 3 3 6 7 6l18 2c23 3 40 6 40 19c0 3 -1 7 -2 11l-45 116h-171c-13 0 -20 -4 -22 -11z" />
    <glyph glyph-name="b" unicode="b" horiz-adv-x="487" 
d="M32 21c0 3 1 5.59961 6 6l23 2c30.5996 2.7002 40 18 40 43v330c0 24 -8 26.2002 -40 29l-23 2c-5 0.400391 -6 2 -6 4v25c34 -1 102 -2 102 -2s83 2 111 2c145 0 171 -62 171 -110c0 -39 -32 -84 -72 -102c70 -16 102 -60 102 -125c0 -62 -67 -127 -179 -127
c-56 0 -103 2 -133 2c-25 0 -102 -2 -102 -2v23zM178 233v-161c0 -24 0 -45 64 -45c102 0 118 61 118 105c0 65 -23 101 -114 101h-68zM178 402v-140h68c65 0 94 29 94 89c0 73 -52 82 -96 82c-64 0 -66 -7 -66 -31z" />
    <glyph glyph-name="c" unicode="c" horiz-adv-x="492" 
d="M276 -10c-154 0 -239 119 -239 234c0 146 102 246 234 246c80 0 125 -16 163 -16c1 -45 6 -87 12 -128l-26 -3c-12 70 -56 118 -143 118c-75 0 -153 -39 -153 -207c0 -99 36 -210 157 -210c67 0 102 20 148 74l20 -16c-47 -63 -95 -92 -173 -92z" />
    <glyph glyph-name="d" unicode="d" horiz-adv-x="561" 
d="M178 72c0 -28 7 -45 83 -45c110 0 172 41 172 181c0 104 -23 225 -191 225c-39 0 -64 -6 -64 -31v-330zM32 21c0 3 2 5.7002 6 6l23 2c29.5996 2.59961 40 12 40 43v330c0 26 -7.2002 26 -40 29l-22 2c-4 0.400391 -7 2 -7 5v22l1 2s88 -2 106 -2c19 0 106 2 132 2
c167 0 249 -104 249 -237c0 -175 -124 -227 -235 -227c-80 0 -115 2 -146 2c-30 0 -106 -2 -106 -2l-1 2v21z" />
    <glyph glyph-name="e" unicode="e" horiz-adv-x="454" 
d="M307 0h-175c-30 0 -99 -2 -99 -2l-1 2v22c0 2 1 4.59961 6 5l23 2c30.5996 2.7002 40 23 40 43v330c0 23 -12 26.5996 -40 29l-23 2c-6 0.5 -6 3 -6 4v23l1 2s78 -2 108 -2h147c30 0 101 2 101 2l2 -2c1 -43 8 -82 15 -120l-25 -4c-11 37 -30 90 -94 90h-80
c-19 0 -29 -7 -29 -24v-145h75c28 0 35 12 39 32l6 21c0 3 2 5 6 5h17c2 0 2 -1 2 -3c-2 -22 -6 -50 -6 -74c0 -25 4 -46 6 -69l-2 -2h-17c-5 0 -7 2 -7 5l-5 22c-4 20 -13 31 -39 31h-75v-153c0 -19 11 -38 29 -38h95c51 0 79 32 91 84l25 -3l-20 -115l-2 -2s-59 2 -89 2z
" />
    <glyph glyph-name="f" unicode="f" horiz-adv-x="436" 
d="M176 403v-161h86c27 0 34 12 39 32l5 21c1 3 3 6 6 6h17c2 0 3 -1 3 -3c0 0 -6 -51 -6 -75c0 -25 6 -69 6 -69l-2 -2h-18c-4 0 -6 3 -7 5l-4 22c-5 21 -13 31 -39 31h-86v-149c0 -22 13.5996 -28.7998 42 -32l18 -2c4 -0.400391 7 -3 7 -6v-21l-1 -2s-80 2 -111 2
c-27 0 -100 -2 -100 -2l-2 2v21c0 3 3 5.59961 7 6l20 2c30.5 3 43 12 43 32v341c0 21 -6.2002 26.2002 -40 29l-24 2c-5 0.400391 -6 4 -6 5v23l3 1s71 -2 101 -2h145c30 0 90 2 90 2l2 -2c1 -41 2 -80 8 -118l-25 -3c-8 36 -27 87 -76 87h-73c-19 0 -28 -6 -28 -23z" />
    <glyph glyph-name="g" unicode="g" horiz-adv-x="545" 
d="M397 160c0 22 -14.2998 28.0996 -43 31l-20 2c-3 0.299805 -6 2 -6 6v22l1 1s80 -1 110 -1c28 0 75 1 75 1l2 -1v-22c0 -4 -2.09961 -5.2998 -6 -6c-24 -4 -36 -8.2002 -36 -33v-75c0 -7 7 -16 14 -23c-62 -43 -135 -72 -203 -72c-143 0 -247 102 -247 230
c0 159 113 250 260 250c56 0 130 -16 160 -16c1 -47 6 -88 13 -128l-26 -3c-13 68 -56 118 -160 118c-105 0 -161 -87 -161 -208c0 -82 54 -214 179 -214c35 0 69 13 94 38v103z" />
    <glyph glyph-name="h" unicode="h" horiz-adv-x="590" 
d="M412 61v159h-233v-159c0 -22 11.5 -29.0996 42 -32l21 -2c3 -0.299805 6 -3 6 -6v-21l-1 -2s-77 2 -107 2c-28 0 -106 -2 -106 -2l-2 2v21c0 3 3 5.59961 7 6l20 2c34.5 3.40039 43 12 43 32v341c0 22 -11 25.7998 -43 29l-20 2c-4 0.400391 -7 2 -7 6v21l2 2
s75 -2 106 -2c27 0 107 2 107 2l1 -2v-21c0 -4 -2 -5.59961 -6 -6l-21 -2c-29.7998 -2.7998 -42 -9 -42 -29v-151h233v151c0 22 -13 26 -43 29l-20 2c-4 0.400391 -7 2 -7 6v21l2 2s74 -2 105 -2c28 0 108 2 108 2l1 -2v-21c0 -4 -2 -5.59961 -6 -6l-20 -2
c-32.7998 -3.2998 -43 -9 -43 -29v-341c0 -22 10.5 -28.7998 43 -32l20 -2c4 -0.400391 7 -3 7 -6v-21l-2 -2s-79 2 -109 2c-28 0 -104 -2 -104 -2l-1 2v21c0 3 2 5.59961 6 6l20 2c30.5 3 43 12 43 32z" />
    <glyph glyph-name="i" unicode="i" horiz-adv-x="279" 
d="M179 400v-333c0 -22 10.5 -35 42 -38l21 -2c3 -0.299805 6 -2 6 -6v-21l-1 -2s-76 2 -107 2c-28 0 -106 -2 -106 -2l-2 2v21c0 4 3 5.59961 7 6l20 2c33.5 3.2998 43 19 43 38v333c0 22 -12.2002 27.9004 -43 31l-20 2c-4 0.400391 -7 1 -7 4v23l1 2s79 -2 110 -2
c27 0 104 2 104 2l1 -2v-22c0 -3 -2 -4.59961 -6 -5l-21 -2c-30.7998 -2.90039 -42 -11 -42 -31z" />
    <glyph glyph-name="j" unicode="j" horiz-adv-x="301" 
d="M207 96c0 -126 -33 -192 -87 -235c-42 -35 -83 -36 -106 -36c-21 0 -60 17 -60 50c0 21 23 34 36 34c28 0 39 -13 48 -25c7 -10 13 -17 26 -17c31 0 66 28 66 208v326c0 22 -11.5996 27.7998 -43 30l-28 2c-3 0.200195 -6 2 -6 5v22l1 2s86 -2 116 -2c28 0 98 2 98 2
l2 -2v-22c0 -3 -3 -4.40039 -7 -5l-13 -2c-30.9004 -4.7998 -43 -10 -43 -30v-305z" />
    <glyph glyph-name="k" unicode="k" horiz-adv-x="523" 
d="M179 215v-148c0 -22 13.2998 -32.7998 42 -38l11 -2c3 -0.5 6 -2 6 -6v-21l-1 -2s-63 2 -93 2c-28 0 -110 -2 -110 -2l-2 2v21c0 4 3 5.59961 7 6l20 2c30.5 3 43 19 43 38v333c0 22 -11.2002 27.7998 -43 31l-20 2c-4 0.400391 -7 1 -7 4v23l1 2s82 -2 113 -2
c28 0 91 2 91 2l1 -2v-22c0 -3 -2.09961 -4.2998 -6 -5l-11 -2c-30.5996 -5.59961 -42 -11 -42 -31v-151c33 0 52 17 96 64c40 44 71 81 71 100c0 8 -9.2998 17 -29 20c-4 0.599609 -6 2 -6 5v23l1 1s81 -2 110 -2c26 0 70 2 70 2l3 -1v-23c0 -2.7998 -3 -4.59961 -8 -5
c-39 -3.09961 -66.2002 -4.7998 -102 -46l-86 -99c-17 -18 -23 -29 -23 -37c0 -6 4 -11 9 -17l151 -182c11.9004 -14.4004 36 -20 56 -24l5 -1c2.90039 -0.599609 7 -3 7 -6v-21l-3 -1s-53 1 -81 1c-25 0 -61 -1 -61 -1l-1 1v12c0 13 -1 24 -15 40l-111 138
c-15 20 -31 25 -53 25z" />
    <glyph glyph-name="l" unicode="l" horiz-adv-x="420" 
d="M277 34c61 0 81 40 97 91l25 -3c-12 -49 -19 -90 -21 -122h-245c-10 0 -20 -1 -100 -2l-1 2v21c0 4 3 5.7002 6 6l23 2c31.5996 2.7002 41 8 41 33v338c0 22 -12.2002 27.9004 -43 31l-20 2c-4 0.400391 -7 2 -7 6v21l1 2s79 -2 110 -2c27 0 104 2 104 2l1 -2v-21
c0 -4 -2 -5.59961 -6 -6l-21 -2c-31.7998 -3 -42 -11 -42 -31v-341c0 -19 10 -25 28 -25h70z" />
    <glyph glyph-name="m" unicode="m" horiz-adv-x="653" 
d="M478 382l-158.999 -385.998c-2 -5 -7 -8 -11 -8c-5 0 -10.0996 3 -12 8l-142 379h-2l-35 -306c0 -30 7.7002 -39 48 -42c3 -0.200195 7 -2 7 -6v-21l-1 -2s-47 2 -77 2c-28 0 -71 -2 -71 -2l-1 2v21c0 4 4 5.7002 8 6c37.7002 3 49 7 53 47l38 336
c0 19 -12.7002 19.7002 -52 23c-6 0.5 -8 2 -8 4v22l2 3l131 -2l135 -363l147 363l128 2l2 -2v-19c0 -6 -2 -7.5 -8 -8c-50 -4.2002 -54.7002 -7.7998 -52 -48l24 -316c2.59961 -34.4004 16.2998 -37.8008 50 -42.001c4 -0.5 9 -2 9 -6v-21l-2 -2s-57 2 -87 2
c-28 0 -98 -2 -98 -2l-2 2v21c0 4 3 5.59961 7 6l21 2c21.7998 2.09961 26.8994 10.6992 25.999 31.999l-14 321h-2z" />
    <glyph glyph-name="n" unicode="n" horiz-adv-x="571" 
d="M480 388v-373c0 -20 -8 -27 -20 -27c-15 0 -24 6 -39 22l-235 313c-13 16 -22 24 -27 24c-6 0 -10 -12 -10 -35v-241c0 -22 14.5 -39 45 -42l20 -2c4 -0.400391 7 -2 7 -6v-21l-1 -2s-61 2 -92 2c-27 0 -93 -2 -93 -2l-3 2v21c0 4 6 5.59961 10 6l20 2
c34.5 3.40039 43 23 43 42v326c-10 18 -22.7002 33 -61 36c-3 0.200195 -9 2 -9 6v20l2 3l135 -2l229 -311c14 -16 23 -24 28 -24c6 0 7 9 7 26v237c0 20 -14.2002 40.2002 -44 43l-21 2c-4 0.400391 -10 2 -10 5v22l2 2s68 -2 95 -2c31 0 89 2 89 2l3 -1v-23
c0 -3 -3 -4.59961 -7 -5l-20 -2c-31.7998 -3.2002 -43 -21 -43 -43z" />
    <glyph glyph-name="o" unicode="o" horiz-adv-x="563" 
d="M527 235c0 -130 -88 -245 -252 -245c-135 0 -238 96 -238 232c0 147 107 248 246 248c130 0 244 -93 244 -235zM274 437c-75 0 -150 -68 -150 -203c0 -123 69 -211 166 -211c89 0 150 75 150 198c0 134 -77 216 -166 216z" />
    <glyph glyph-name="p" unicode="p" horiz-adv-x="435" 
d="M100 62v336c0 31 -13 31.9004 -60 35c-6 0.400391 -7 3 -7 5v23l2 1c15 0 74 -2 103 -2c28 0 68 2 105 2c142 0 168 -70 168 -122c0 -60 -29 -154 -171 -154c-25 0 -45 2 -63 10v-134c0 -22 11.7002 -27.2002 44 -32l20 -3c4 -0.599609 7 -2 7 -6v-21l-1 -2s-80 2 -111 2
c-28 0 -103 -2 -103 -2l-1 2v21c0 4 2 5.40039 6 6l21 3c31.4004 4.5 41 13 41 32zM177 398v-174c20 -8 45 -9 65 -9c60 0 89 36 89 113c0 86 -39 105 -94 105c-48 0 -60 -9.09961 -60 -35z" />
    <glyph glyph-name="q" unicode="q" horiz-adv-x="555" 
d="M123 -118c24.5996 35.0996 73.0977 77 126.798 106.8c-124 9.7002 -212.8 104.4 -212.8 233.2c0 147 103 252 242 252c130 0 240 -97 240 -239c0 -113.2 -63.5996 -216.4 -188.3 -241.301c-25.5996 -8.7002 -58.6992 -23.2002 -91.7988 -45.2998
c4 0.400391 7.7002 0.600586 11.1006 0.600586c89 0 147 -65 218 -65c23 0 52 8 69 29l14 -10c-31 -45 -65 -66 -116 -66c-103 0 -148 77 -222 77c-12 0 -43 -10 -59 -47zM269.998 439c-75 0 -150 -70 -150 -205c0 -123 69 -212 166 -212c89 0 150 76 150 199
c0 134 -77 218 -166 218z" />
    <glyph glyph-name="r" unicode="r" horiz-adv-x="481" 
d="M101 62v335c0 29 -27.2998 32.7002 -60 36c-4 0.400391 -8 4 -8 6v21l2 2s62 -2 102 -2c37 0 71 2 96 2c96 0 165 -37 165 -116c0 -69 -52 -111 -110 -117v-1c33 -3 61 -36 73 -67l34 -75c19.4004 -42.7998 34 -67 70 -67l6 -21c-19 -7 -41 -8 -54 -8
c-48 0 -83 60 -97 89l-30 60c-13 31 -38 72 -106 72h-8v-145c0 -22 21.9004 -33.2002 45 -37l12 -2c3.90039 -0.700195 7 -2 7 -6v-21l-3 -2s-70 2 -100 2c-28 0 -104 -2 -104 -2l-1 2v21c0 4 2 5.59961 6 6l21 2c30.7998 2.90039 42 13 42 33zM323 346c0 61 -22 87 -86 87
c-52 0 -61 -12 -61 -31v-162h34c76 0 113 24 113 106z" />
    <glyph glyph-name="s" unicode="s" horiz-adv-x="392" 
d="M322 448c6 -41 9 -75 11 -108l-27 -2c-15 64 -59 103 -108 103c-52 0 -80 -32 -80 -75c0 -48 73 -85 97 -96c49 -21 139 -62 139 -141c0 -82 -56 -141 -145 -141c-77 0 -107 17 -126 17c-12 0 -19 -4 -33 -6c0 29 -3 73 -11 141l28 2c18 -89 68 -125 124 -125
c59 0 85 32 85 90c0 57 -43 80.9004 -108 111c-41 19 -119 57 -119 130c0 82 78 122 148 122c81 0 100 -22 125 -22z" />
    <glyph glyph-name="t" unicode="t" horiz-adv-x="489" 
d="M362 426h-37c-28 0 -37 -9 -37 -32v-333c0 -22 11.5 -28.9004 43 -32l20 -2c3 -0.299805 7 -3 7 -6v-21l-2 -2s-78 2 -108 2c-28 0 -105 -2 -105 -2l-1 2v21c0 3 2 5.59961 6 6l20 2c29.5 3 43 12 43 32v334c0 22 -9 31 -38 31h-45c-45 0 -57 -20 -77 -92l-27 3
c8 47 8 93 8 137h25c2 -6 11 -14 27 -14h321c16 0 25 8 27 14h25c0 -44 1 -89 8 -137l-27 -3c-20 72 -33 92 -76 92z" />
    <glyph glyph-name="u" unicode="u" horiz-adv-x="559" 
d="M275 -10c-69 0 -181 46 -181 191v219c0 22 -11.2998 27.5 -43 31l-18 2c-3 0.299805 -6 2 -6 5v22l2 2s75 -2 106 -2c28 0 103 2 103 2l2 -2v-22c0 -3 -2 -4.59961 -6 -5l-20 -2c-32 -3.2002 -43 -11 -43 -31v-198c0 -93 14 -183 121 -183c132 0 133 106 133 192v189
c0 22 -13 28 -43 31l-20 2c-4 0.400391 -7 2 -7 5v22l2 2s60 -2 90 -2c28 0 83 2 83 2l2 -2v-22c0 -3 -2 -4.5 -6 -5l-17 -2c-30.7002 -3.59961 -39 -11 -39 -31v-176c0 -139 -34 -234 -195 -234z" />
    <glyph glyph-name="v" unicode="v" horiz-adv-x="524" 
d="M403 399c8 20.7998 -9.2998 25.2012 -40 32.001l-9 2c-2.90039 0.700195 -7 2 -7 5v22l2 2s64 -2 94 -2c28 0 71 2 71 2l1 -2v-22c0 -3 -5 -4.7002 -9 -5c-34.2998 -3 -50 -19 -59 -42l-151 -363c-11 -28 -19 -40 -37 -40c-19 0 -31 23 -37 40l-143 365
c-8.2002 20.9004 -16.2998 37 -60 40c-3 0.200195 -9 2 -9 5v23l1 1s64 -2 94 -2c28 0 99 2 99 2l2 -1v-23c0 -3 -2.09961 -4.2998 -6 -5l-12 -2c-28 -4.7002 -42.7998 -6.60059 -34 -29.001l121 -308c1 -4 3 -6 5 -6c3 0 5 3 6 6z" />
    <glyph glyph-name="w" unicode="w" horiz-adv-x="768" 
d="M241 -12c-18 0 -30.001 29 -34.001 39l-135 368c-7 18 -22.0996 31.4004 -43 36l-9 2c-6.2002 1.40039 -10 2.7002 -10 5v22l2 2s41 -2 70 -2c40 0 106 2 106 2l1 -2v-21c0 -5 -4 -5.59961 -7 -6l-17 -2c-24.0996 -2.7998 -23.7998 -13.2002 -17 -29l117 -317l84 231
c3 9 6 19 6 26s0 14 -2 21l-15 39c-8.5 22.0996 -28.7002 28 -53 31c-5 0.599609 -9 2 -9 5v22l2 2s43 -2 75 -2c38 0 107 2 107 2l2 -2v-22c0 -4 -4 -4.7002 -7 -5l-23 -2c-20.9004 -1.7998 -26.1006 -14.5996 -16.001 -42l115 -311l118 321
c6.40039 12.7998 5.10059 29.2998 -22.999 32l-21 2c-4 0.400391 -6 3 -6 5v22l1 2s59 -2 91 -2c26 0 66 2 66 2l2 -1v-22c0 -5 -4 -5.7002 -9 -6c-44.2998 -3 -54.7998 -28 -61.3994 -46l-130.6 -359c-5 -13.5996 -16 -40 -42 -40c-31 0 -41 26 -46 40l-83 234
c-4 11 -8 21 -12 21c-3 0 -6 -7 -10 -18l-84 -237c-7.09961 -20 -15 -40 -40 -40z" />
    <glyph glyph-name="x" unicode="x" horiz-adv-x="536" 
d="M211 431c-25.2998 -3 -37.5 -3.90039 -8 -47l64 -96c4 -6 7 -10 11 -10c3 0 6 3 10 7l70 98c17.2998 23.5996 28.7002 44.1992 -4 47.999l-17 2c-4 0.5 -8 2 -8 7v19l4 3s51 -2 84 -2c34 0 86 2 86 2l2 -2v-19c0 -7 -6 -7.5 -13 -8c-40.7002 -3 -55 -14 -96 -64l-90 -115
c-2 -4 -3 -5 -3 -8s1 -5 3 -8l97 -137c47.7002 -67.4004 63 -70.9004 98 -74c10 -0.900391 15 -2 15 -9v-18l-2 -2s-58 2 -95 2c-43 0 -111 -2 -111 -2l-2 2v19c0 5 3.09961 7.2002 8 8l13 2c35.2998 5.40039 23.0996 23.8008 -4 61.001l-63 86c-4 6 -7 8 -10 8
c-2 0 -5 -4 -10 -11l-68 -96c-16.7002 -24.5 -28.2998 -43.7002 4 -48l15 -2c5 -0.700195 7 -3 7 -8v-19l-1 -2s-56 2 -91 2c-31 0 -80 -2 -80 -2l-3 2v17c0 6 5.09961 8.7998 15 10c24.7002 3 50 8 95 66l90 116c2 3 3 5 3 8s-1 5 -4 9l-93 136
c-30.0996 44 -49.2998 67.7998 -87 71c-7 0.599609 -15 3 -15 7v19l2 3s55 -2 85 -2s119 2 119 2l3 -3v-18c0 -5 -4 -7.5 -8 -8z" />
    <glyph glyph-name="y" unicode="y" horiz-adv-x="479" 
d="M204 61l-0.000976562 135.002l-126 207c-13 21 -29 27 -58 30c-3 0.299805 -8 1 -8 5v22l2 2c9 0 71 -2 82 -2c5 0 89 1 101 2l1 -1v-23c0 -2 -2 -4.7002 -5 -5l-22 -2c-24.0996 -2.2002 -20.0996 -10.5 -10 -27l101 -165h2l93 165
c13.0996 24.0996 13 24.8994 -11 26.999l-23 2c-3 0.299805 -4 3 -4 5v23l2 1c11 0 67 -2 77 -2c7 0 53 1 68 2l1 -2v-22c0 -2 0 -4.2002 -7 -5l-17 -2c-31.5 -3.7002 -36.5996 -9.60059 -52.3994 -37.501l-109.6 -193.5v-139c0 -22 11.2998 -29.0996 42 -32l21 -2
c4 -0.400391 7 -3 7 -6v-21l-2 -2s-76 2 -107 2c-28 0 -106 -2 -106 -2l-2 2v21c0 3 3 5.59961 7 6l20 2c31.2002 3.09961 43 12 43 32z" />
    <glyph glyph-name="z" unicode="z" horiz-adv-x="456" 
d="M107 460l234 -1c24 5 41 8 52 8c16 0 22 -4 22 -10c0 -8 -4 -15 -19 -36l-248 -362c-4 -6 -6 -11 -6 -15c0 -6 6 -10 20 -10h119c58 0 75 27 98 80l13 29l27 -7c-17 -58 -28 -105 -32 -136h-338c-11 0 -15 4 -15 10s3 11 7 17l263 378c4 6 7 11 7 14c0 4 -3 7 -9 7h-151
c-29 0 -63 -22 -84 -94l-26 3c9 49 14 91 15 136c0 2.40039 1.59961 3 4 3c17.5 -3.40039 14.9004 -13.9004 47 -14z" />
    <glyph glyph-name="braceleft" unicode="{" horiz-adv-x="273" 
d="M179 559v-168c0 -84 -19 -110 -68 -130c58 -23 68 -62 68 -141v-153c0 -38 6 -68 17 -86c19 -32 38 -35 48 -38v-13c-54 1 -94 12 -111 34c-18 22 -27 61 -27 117v163c0 57 -13 103 -67 114v5c56 15 67 66 67 112v177c0 50 9 86 28 107c19 22 58 33 110 34v-13
c-20 -5 -36 -18 -49 -38c-10 -17 -16 -44 -16 -83z" />
    <glyph glyph-name="bar" unicode="|" horiz-adv-x="205" 
d="M125 -185h-44v823h44v-823z" />
    <glyph glyph-name="braceright" unicode="}" horiz-adv-x="273" 
d="M94 -36v168c0 85 19 111 68 130c-58 23 -68 62 -68 141v153c0 38 -6 68 -17 86c-19 32 -38 35 -48 38v13c54 -1 95 -12 112 -34s26 -61 26 -117v-163c0 -57 13 -103 67 -114v-5c-56 -15 -67 -66 -67 -113v-176c0 -50 -9 -86 -27 -107c-19 -22 -59 -33 -111 -34v13
c20 5 37 18 50 38c10 17 15 44 15 83z" />
    <glyph glyph-name="asciitilde" unicode="~" horiz-adv-x="449" 
d="M26 209c13 65 67 128 128 128c45 0 102 -65 147 -65c28 0 77 17 99 67l17 -6c-31 -107 -96 -120 -120 -120c-52 0 -98 65 -149 65c-35 0 -86 -28 -109 -72z" />
    <glyph glyph-name="uni00A0" unicode="&#xa0;" horiz-adv-x="250" 
 />
    <glyph glyph-name="exclamdown" unicode="&#xa1;" horiz-adv-x="227" 
d="M168 387c0 -29 -24 -53 -53 -53s-53 24 -53 53s24 53 53 53s53 -24 53 -53zM115 -228c-27 0 -56 23 -56 73c0 65 15.7998 107 26 193c12.7998 108 14 168 16 182c1 11 4 20 14 20c11 0 13 -7 14 -13c2 -21 7 -111 15 -189c9 -88 25 -123 25 -193c0 -54 -32 -73 -54 -73z
" />
    <glyph glyph-name="cent" unicode="&#xa2;" horiz-adv-x="438" 
d="M222 111.4v366.1c-56.9004 -10.5996 -98 -77.5996 -98 -176.5c0 -94.7998 41.4004 -166 98 -189.6zM222 584h34v-71.2998c87.4004 -4 135 -51.9004 135 -101.7c0 -30 -18 -44 -39 -44s-41 10 -44 35c-3.59961 30.2002 -9.5 67.4004 -52 75.4004v-374.1
c2.59961 -0.200195 5.2998 -0.299805 8 -0.299805c43 0 81 28 112 73l18 -14c-40.5 -70.9004 -84.4004 -98.6006 -138 -102.501v-71.5h-34v71.9004c-108.4 9.59961 -176 97.3994 -176 219.1c0 132.2 78 221.101 176 232.7v72.2998z" />
    <glyph glyph-name="sterling" unicode="&#xa3;" horiz-adv-x="438" 
d="M147 85c59 0 85.001 -14.001 106.001 -28.001c17 -11 32 -19 58 -19c28 0 72 14 96 47l19 -13c-18 -49 -62 -84 -132 -84c-37 0 -66.9004 16.2002 -95 32c-25 14 -48 26 -74 26c-33 0 -42 -16 -42 -26c0 -26 -22 -37 -40 -37c-13 0 -26 12 -26 24
c0 22.4004 21.7998 41.2002 48.2998 54.7002c5.09961 4.2998 9.69922 8.7002 15.6992 15.2998c45 48 52 125 52 189v26h-66v40h66v8c0 80 22 132 74 183c33 34 76 52 126 52c22 0 76 -11 76 -44c0 -24 -16 -38 -39 -38c-14 0 -23 8 -34 18c-12 11 -26 22 -47 22
c-44 0 -83 -63 -83 -145v-56h130v-40h-130v-5c0 -117 -26 -171 -63 -199l-5 -3.59961c3.2998 0.400391 6.2998 0.600586 9 0.600586z" />
    <glyph glyph-name="currency" unicode="&#xa4;" horiz-adv-x="438" 
d="M218 113c-40 0 -76 12 -108 36l-43 -53l-41 40l54 43c-26 31 -39 68 -39 109c0 43 13 80 39 110l-52 41l37 40l46 -51c33 24 68 35 107 35c41 0 77 -12 109 -37l46 55l39 -41l-55 -44c25 -30 38 -66 38 -108c0 -40 -13 -76 -37 -107l52 -44l-36 -38l-46 51
c-33 -25 -69 -37 -110 -37zM101 289c0 -73 46 -134 117 -134c70 0 116 62 116 133c0 75 -52 133 -114 133c-70 0 -119 -61 -119 -132z" />
    <glyph glyph-name="yen" unicode="&#xa5;" horiz-adv-x="438" 
d="M398 166v-39h-137v-55c0 -31 15 -44 55 -44h26c4 0 8 -3 8 -8v-19l-2 -2s-87 2 -126 2c-35 0 -128 -2 -128 -2l-2 2v19c0 5 2 8 7 8h27c41 0 54 16 54 44v55h-138v39h138v63h-138v40h132.2l-111.2 232c-14 29 -27 46 -53 46h-7c-3 1 -10 2 -10 8v18l1 2
c11 -2 79 -3 92 -3c6 0 71 1 86 3l2 -2v-17c0 -4 -2 -9 -7 -9h-13c-18 0 -24 -5 -24 -13s5 -18 10 -31l101 -213l94 213c6 14 10 25 10 32c0 9 -6 13 -24 13h-16c-5 0 -6 4 -6 7v18l2 2c8 -1 65 -3 78 -3c8 0 53 1 72 3l1 -2v-17c0 -4 0 -8 -9 -8h-6c-30 0 -48 -18 -61 -47
l-102.6 -232h124.6v-40h-137v-63h137z" />
    <glyph glyph-name="brokenbar" unicode="&#xa6;" horiz-adv-x="205" 
d="M129 161v-362h-48v362h48zM129 674v-362h-48v362h48z" />
    <glyph glyph-name="section" unicode="&#xa7;" horiz-adv-x="466" 
d="M244 658c73 0 143 -53 143 -125c0 -21 -19 -38 -37 -38c-36 0 -41 31 -41 39c0 14 3 22 7 27c2 4 4 8 4 13s-15 53 -72 53s-98 -51 -98 -103c0 -47 29 -66 75 -87c79 -36.0996 193 -95 193 -218c0 -58 -21 -104 -61 -136c28 -24 34 -57 34 -96c0 -65 -76 -156 -168 -156
c-73 0 -142 53 -142 126c0 22 19 38 36 38c36 0 42 -31 42 -40c0 -22 -13 -28 -13 -40c0 -6 17 -54 75 -54c45 0 96 37 96 104c0 36 -21 69 -54 85c-159.8 77.5 -214 134 -214 226c0 57 19 102 59 134c-22 27 -25 62 -25 94c0 66 66 154 161 154zM340 98c22 19 34 43 34 73
c0 120 -173 192 -247 226c-23 -19 -34 -43 -34 -73c0 -67 67.2998 -138.3 133 -169c30 -14 68 -32 114 -57z" />
    <glyph glyph-name="dieresis" unicode="&#xa8;" horiz-adv-x="375" 
d="M55 575c0 25 20 45 45 45s46 -20 46 -45s-21 -46 -46 -46s-45 21 -45 46zM215 575c0 25 21 45 46 45s45 -20 45 -45s-20 -46 -45 -46s-46 21 -46 46z" />
    <glyph glyph-name="copyright" unicode="&#xa9;" horiz-adv-x="633" 
d="M317 557c-140 0 -252 -112 -252 -251c0 -138 112 -251 252 -251c138 0 251 112 251 251s-112 251 -251 251zM317 23c-157 0 -283 128 -283 283c0 156 127 282 283 282s282 -126 282 -282s-126 -283 -282 -283zM437 217c-20 -31 -60 -64 -115 -64c-96 0 -154 74 -154 154
c0 73 57 149 151 149c70 0 69 -14 103 -14l12 -78l-27 -4c-8 44 -14 75 -87 75c-37 0 -96 -25 -96 -130c0 -67 33 -125 101 -125c51 0 80 35 91 51z" />
    <glyph glyph-name="ordfeminine" unicode="&#xaa;" horiz-adv-x="297" 
d="M231 358c-25 0 -39 21 -42 39c-34 -30 -52 -39 -85 -39c-42 0 -77 27 -77 70c0 42 40.0996 69.7002 103 86l58 15c0 75 -31 83 -54 83c-33 0 -54 -11 -54 -27c0 -7 1 -11 2 -13s2 -7 2 -12c0 -8 -7 -21 -26 -21c-15 0 -26 10 -26 25c0 40 62 73 104 73
c49 0 106 -20 106 -114v-75c0 -41 5 -57 14 -57c4 0 9 2 12 5l10 -16c-9 -10 -28 -22 -47 -22zM188 502c-85 -22 -109 -40 -109 -71c0 -21 11 -41 45 -41c21 0 38 10 64 33v79z" />
    <glyph glyph-name="guillemotleft" unicode="&#xab;" horiz-adv-x="536" 
d="M288 429v-51c-45 -66 -93 -121 -144 -163c48 -37 96 -91 144 -163v-51c-81 93 -154 158 -220 195v38c71 50 144 115 220 195zM468 429v-51c-44 -66 -92 -121 -143 -163c49 -37 96 -91 143 -163v-51c-80 93 -153 158 -218 195v38c70 50 143 115 218 195z" />
    <glyph glyph-name="logicalnot" unicode="&#xac;" horiz-adv-x="560" 
d="M483 133v224h-459v44h513v-268h-54z" />
    <glyph glyph-name="uni00AD" unicode="&#xad;" horiz-adv-x="350" 
d="M274 217h-226c-9 0 -15 8 -15 17c0 16 13 37 25 37h229c10 0 14 -9 14 -18c0 -11 -14 -36 -27 -36z" />
    <glyph glyph-name="registered" unicode="&#xae;" horiz-adv-x="633" 
d="M317 557c-140 0 -252 -112 -252 -251c0 -138 112 -251 252 -251c138 0 251 112 251 251s-112 251 -251 251zM317 23c-157 0 -283 128 -283 283c0 156 127 282 283 282s282 -126 282 -282s-126 -283 -282 -283zM367 372c0 34 -17 58 -51 58c-11 0 -23 -2 -28 -3v-119
c31 0 79 2 79 64zM417 372c0 -52 -57 -76 -57 -76l48 -82c13 -22 25 -31 40 -31v-13c-10 -3 -18 -4 -23 -4c-29 0 -50 12 -62 38l-48 79c-4 3 -22 4 -27 4v-95c0 -5 0 -8 7 -8h12c8 0 11 -1 11 -6v-11s-42 2 -56 2l-55 -2v12c0 4 3 5 10 5h12c6 0 8 1 8 8v223
c0 6 -1 11 -4 11l-16 -1c-7 1 -10 3 -10 6v11c21 3 42 5 115 5c76 0 95 -45 95 -75z" />
    <glyph glyph-name="macron" unicode="&#xaf;" horiz-adv-x="397" 
d="M315 530h-244c-9 0 -12 7 -12 14c0 12 10 29 22 29h244c10 0 14 -7 14 -14c0 -12 -11 -29 -24 -29z" />
    <glyph glyph-name="degree" unicode="&#xb0;" horiz-adv-x="267" 
d="M34 525c0 55 45 100 100 100s99 -45 99 -100s-44 -99 -99 -99s-100 44 -100 99zM200 524c0 33 -21 73 -66 73c-43 0 -67 -37 -67 -73c0 -35 25 -70 67 -70c41 0 66 36 66 70z" />
    <glyph glyph-name="plusminus" unicode="&#xb1;" horiz-adv-x="527" 
d="M289 342h172v-49h-172v-174h-51v174h-172v49h172v174h51v-174zM461 67v-49h-395v49h395z" />
    <glyph glyph-name="two.superior" unicode="&#xb2;" horiz-adv-x="307" 
d="M73 587c-12 0 -26 11 -26 24c0 26 28 77 107 77c50 0 108 -19 108 -83c0 -46 -33 -79 -89 -119c-42 -30 -66 -59 -66 -90h81c31 0 47 39 58 67l24 -5c-9 -30 -16 -65 -19 -94h-206c0 48 43 90 91 127c45 36 67 59 67 113c0 47 -35 60 -53 60c-43 0 -54 -16 -54 -29
c0 -9 5 -16 5 -24c0 -16 -18 -24 -28 -24z" />
    <glyph glyph-name="three.superior" unicode="&#xb3;" horiz-adv-x="307" 
d="M188 624c0 31 -21 40 -40 40c-20 0 -54 -10 -55 -35c-1 -12 -3 -29 -26 -29c-19 0 -23 15 -23 18c0 17 29 70 116 70c52 0 85 -22 85 -59c0 -29 -22 -52 -51 -68c33 -3 80 -30 80 -88c0 -69 -66 -115 -146 -115c-37 0 -89 16 -89 37c0 10 13 20 24 20c14 0 20 -7 26 -14
c8 -11 18 -18 50 -18c19 0 76 13 76 82c0 57 -54 64 -78 64c-7 0 -12 -1 -20 -2l-2 24c44 6 73 32 73 73z" />
    <glyph glyph-name="acute" unicode="&#xb4;" horiz-adv-x="341" 
d="M175 703c3 1 9 2 14 2c28 0 41 -11 49 -18c2 -2 4 -4 6 -5l3 -11l-115 -109c-15 -15 -22 -20 -29 -20s-14 6 -14 12s0 13 6 23z" />
    <glyph glyph-name="uni00B5" unicode="&#xb5;" horiz-adv-x="485" 
d="M101 -234c-16 0 -54 24 -54 65c0 51 16 98 16 161c0 33 -9 84 -9 142v188c0 28 -10 111 -10 111l82 9s3 -67 3 -99v-196c0 -65 16 -114 69 -114c54 0 104 33 126 66v334l75 9v-318c0 -63 0 -89 26 -89c13 0 23 17 34 44l24 -11c-19 -50 -39 -80 -91 -80
c-38 0 -68 33 -68 72c-40 -44 -84 -72 -145 -72c-22 0 -46 12 -57 25c-6 0 -12 -4 -12 -9c0 -65 32 -135 32 -178c0 -41 -18 -60 -41 -60z" />
    <glyph glyph-name="paragraph" unicode="&#xb6;" horiz-adv-x="602" 
d="M407 -207c29 0 32 20 32 62v701c0 58 -13 59 -29 60c-32 0 -33 -32 -33 -63v-696c0 -29 4 -64 30 -64zM498 -144c0 -56 8 -61 40 -62h29c4 0 6 -3 6 -7v-21h-329v21c0 5 2 7 6 7h29c33 1 39 11 39 63v370c-14 -7 -45 -12 -77 -12c-83 0 -214 46 -214 224
c0 123 71 207 203 207c75 0 136 -5 163 -5c35 0 69 3 69 3l111 2v-21c0 -4 -2 -7 -6 -7h-29c-36 0 -40 -16 -40 -62v-700z" />
    <glyph glyph-name="periodcentered" unicode="&#xb7;" horiz-adv-x="250" 
d="M125 204c-33 0 -54 26 -54 54s25 55 54 55c27 0 54 -25 54 -55c0 -29 -23 -54 -54 -54z" />
    <glyph glyph-name="cedilla" unicode="&#xb8;" horiz-adv-x="541" 
d="M293 -80c-19 0 -29 -1 -45 -6l-6 6l39 87h34l-24 -58c8 2 17 3 26 3c40 0 71 -24 71 -62c0 -43 -46 -71 -107 -71c-32 0 -49 6 -74 17l10 22c27 -10 38 -14 58 -14c30 0 60 14 60 41c0 21 -19 35 -42 35z" />
    <glyph glyph-name="one.superior" unicode="&#xb9;" horiz-adv-x="307" 
d="M127 621c-13 0 -43 -9 -57 -16l-9 27c46 17 72 29 116 56h16v-261c0 -22 12 -37 25 -37h28c3 0 6 -1 6 -5v-21s-52 1 -86 1c-38 0 -98 -1 -98 -1v21c0 2 4 5 8 5h35c16 0 31 15 31 37v152c0 32 -2 42 -15 42z" />
    <glyph glyph-name="ordmasculine" unicode="&#xba;" horiz-adv-x="349" 
d="M171 541c-50 0 -74 -48 -74 -102c0 -49 26 -108 86 -108c27 0 71 16 71 88c0 80 -33 122 -83 122zM39 429c0 85 52 137 138 137c98 0 134 -64 134 -131c0 -68 -45 -132 -139 -132c-74 0 -133 54 -133 126z" />
    <glyph glyph-name="guillemotright" unicode="&#xbb;" horiz-adv-x="536" 
d="M228 1v51c45 66 93 121 144 163c-48 37 -96 91 -144 163v51c81 -93 154 -158 220 -195v-38c-71 -50 -144 -115 -220 -195zM48 1v51c44 66 92 121 143 163c-49 37 -96 91 -143 163v51c80 -93 153 -158 218 -195v-38c-70 -50 -143 -115 -218 -195z" />
    <glyph glyph-name="onequarter" unicode="&#xbc;" horiz-adv-x="660" 
d="M575 177v-119h51v-29h-51v-63c0 -19 3 -25 22 -25h16c4 0 5 -2 5 -4v-18l-70 1l-68 -1v18c0 2 1 4 5 4h18c18 0 23 3 23 25v63h-146l-4 7c29 34 44 71 52 98c7 27 16 76 16 108h35c0 -37 -6 -74 -12 -109c-6 -28 -20 -61 -29 -75h88v94zM124 572c-13 0 -43 -9 -57 -16
l-9 27c46 17 72 29 116 56h16v-261c0 -22 12 -37 25 -37h28c3 0 6 -1 6 -5v-21s-52 1 -86 1c-38 0 -98 -1 -98 -1v21c0 2 4 5 8 5h35c16 0 31 15 31 37v152c0 32 -2 42 -15 42zM532 601l42 -8l-459 -655l-41 8z" />
    <glyph glyph-name="onehalf" unicode="&#xbd;" horiz-adv-x="660" 
d="M431 144c-12 0 -26 11 -26 24c0 26 28 77 107 77c50 0 108 -19 108 -83c0 -46 -33 -79 -89 -119c-42 -30 -66 -59 -66 -90h81c31 0 47 39 58 67l24 -5c-9 -30 -16 -65 -19 -94h-206c0 48 43 90 91 127c45 36 67 59 67 113c0 47 -35 60 -53 60c-43 0 -54 -16 -54 -29
c0 -9 5 -16 5 -24c0 -16 -18 -24 -28 -24zM126 572c-13 0 -43 -9 -57 -16l-9 27c46 17 72 29 116 56h16v-261c0 -22 12 -37 25 -37h28c3 0 6 -1 6 -5v-21s-52 1 -86 1c-38 0 -98 -1 -98 -1v21c0 2 4 5 8 5h35c16 0 31 15 31 37v152c0 32 -2 42 -15 42zM532 601l42 -8
l-459 -655l-41 8z" />
    <glyph glyph-name="threequarters" unicode="&#xbe;" horiz-adv-x="660" 
d="M186 573c0 31 -21 40 -40 40c-20 0 -54 -10 -55 -35c-1 -12 -3 -29 -26 -29c-19 0 -23 15 -23 18c0 17 29 70 116 70c52 0 85 -22 85 -59c0 -29 -22 -52 -51 -68c33 -3 80 -30 80 -88c0 -69 -66 -115 -146 -115c-37 0 -89 16 -89 37c0 10 13 20 24 20c14 0 20 -7 26 -14
c8 -11 18 -18 50 -18c19 0 76 13 76 82c0 57 -54 64 -78 64c-7 0 -12 -1 -20 -2l-2 24c44 6 73 32 73 73zM579 179v-119h51v-29h-51v-63c0 -19 3 -25 22 -25h16c4 0 5 -2 5 -4v-18l-70 1l-68 -1v18c0 2 1 4 5 4h18c18 0 23 3 23 25v63h-146l-4 7c29 34 44 71 52 98
c7 27 16 76 16 108h35c0 -37 -6 -74 -12 -109c-6 -28 -20 -61 -29 -75h88v94zM532 601l42 -8l-459 -655l-41 8z" />
    <glyph glyph-name="questiondown" unicode="&#xbf;" horiz-adv-x="405" 
d="M279 387c0 -29 -24 -53 -53 -53s-53 24 -53 53s24 53 53 53s53 -24 53 -53zM309 -142c0 15 -2 21 -6 26s-6 11 -6 24c0 23 20 35 39 35c16 0 41 -8 41 -43c0 -38 -21 -66 -51 -90c-29 -25 -71 -39 -124 -39c-102 0 -165 60 -165 151c0 79 59 123 106 157
c23 17 43 33 52 50c13 25 18 49 18 73v44c0 7 5 10 13 10s13 -3 13 -10v-46c0 -43 -2.59961 -101.4 -67 -161c-40 -37 -60 -66 -60 -113c0 -65 43 -125 100 -125s97 27 97 57z" />
    <glyph glyph-name="Agrave" unicode="&#xc0;" horiz-adv-x="695" 
d="M284 818l121 -84c11 -8 15 -14 15 -21c0 -10 -5 -15 -15 -15c-8 0 -21 3 -43 12l-154 63zM152 79c-10 -25.4004 2.5 -47.4004 40 -50l29 -2c4 -0.299805 8 -3 8 -8v-19l-2 -2s-109 2 -133 2c-26 0 -90 -2 -90 -2l-2 2v19c0 5 3 7.7002 8 8c43.5 3 69.2002 10.7998 97 75
l222.3 520.3c11 25.7998 19 35.7002 33.7002 35.7002c14 0 19.4004 -9.90039 27 -30l205 -542c14 -39 34.2002 -54.4004 74 -58l11 -1c5 -0.5 10 -3 10 -8v-19l-3 -2s-77 2 -116 2c-35 0 -133 -2 -133 -2l-1 2v19c0 5 2 7.59961 7 8l28 2c37.7998 2.7002 52 15.2998 42 43
l-61 169h-208c-24 0 -29.9004 -4.40039 -35 -17zM263 283h174l-97 267h-2l-100.2 -253.7c-4.2002 -10.7998 3 -13.2998 25.2002 -13.2998z" />
    <glyph glyph-name="Aacute" unicode="&#xc1;" horiz-adv-x="695" 
d="M417 820l62 -52l-144 -58c-21 -9 -34 -12 -43 -12s-14 5 -14 15c0 7 2 12 15 21zM152 79c-10 -25.4004 2.5 -47.4004 40 -50l29 -2c4 -0.299805 8 -3 8 -8v-19l-2 -2s-109 2 -133 2c-26 0 -90 -2 -90 -2l-2 2v19c0 5 3 7.7002 8 8c43.5 3 69.2002 10.7998 97 75
l222.3 520.3c11 25.7998 19 35.7002 33.7002 35.7002c14 0 19.4004 -9.90039 27 -30l205 -542c14 -39 34.2002 -54.4004 74 -58l11 -1c5 -0.5 10 -3 10 -8v-19l-3 -2s-77 2 -116 2c-35 0 -133 -2 -133 -2l-1 2v19c0 5 2 7.59961 7 8l28 2c37.7998 2.7002 52 15.2998 42 43
l-61 169h-208c-24 0 -29.9004 -4.40039 -35 -17zM263 283h174l-97 267h-2l-100.2 -253.7c-4.2002 -10.7998 3 -13.2998 25.2002 -13.2998z" />
    <glyph glyph-name="Acircumflex" unicode="&#xc2;" horiz-adv-x="695" 
d="M379 805c30 -36 65 -67 101 -94l-16 -21c-39 18 -73 37 -106 62c-37 -27 -69 -45 -107 -62l-14 21c37 28 68 60 99 94h43zM152 79c-10 -25.4004 2.5 -47.4004 40 -50l29 -2c4 -0.299805 8 -3 8 -8v-19l-2 -2s-109 2 -133 2c-26 0 -90 -2 -90 -2l-2 2v19c0 5 3 7.7002 8 8
c43.5 3 69.2002 10.7998 97 75l222.3 520.3c11 25.7998 19 35.7002 33.7002 35.7002c14 0 19.4004 -9.90039 27 -30l205 -542c14 -39 34.2002 -54.4004 74 -58l11 -1c5 -0.5 10 -3 10 -8v-19l-3 -2s-77 2 -116 2c-35 0 -133 -2 -133 -2l-1 2v19c0 5 2 7.59961 7 8l28 2
c37.7998 2.7002 52 15.2998 42 43l-61 169h-208c-24 0 -29.9004 -4.40039 -35 -17zM263 283h174l-97 267h-2l-100.2 -253.7c-4.2002 -10.7998 3 -13.2998 25.2002 -13.2998z" />
    <glyph glyph-name="Atilde" unicode="&#xc3;" horiz-adv-x="695" 
d="M422 744c22 0 36 10 50 52l24 -6c-12 -60 -41 -90 -87 -90c-22 0 -43 12 -64 26c-18 11 -37 22 -54 22c-26 0 -39 -15 -49 -48l-24 5c14 59 37 89 80 89c30 0 52 -14 72 -28c16 -12 33 -22 52 -22zM152 79c-10 -25.4004 2.5 -47.4004 40 -50l29 -2c4 -0.299805 8 -3 8 -8
v-19l-2 -2s-109 2 -133 2c-26 0 -90 -2 -90 -2l-2 2v19c0 5 3 7.7002 8 8c43.5 3 69.2002 10.7998 97 75l222.3 520.3c11 25.7998 19 35.7002 33.7002 35.7002c14 0 19.4004 -9.90039 27 -30l205 -542c14 -39 34.2002 -54.4004 74 -58l11 -1c5 -0.5 10 -3 10 -8v-19l-3 -2
s-77 2 -116 2c-35 0 -133 -2 -133 -2l-1 2v19c0 5 2 7.59961 7 8l28 2c37.7998 2.7002 52 15.2998 42 43l-61 169h-208c-24 0 -29.9004 -4.40039 -35 -17zM263 283h174l-97 267h-2l-100.2 -253.7c-4.2002 -10.7998 3 -13.2998 25.2002 -13.2998z" />
    <glyph glyph-name="Adieresis" unicode="&#xc4;" horiz-adv-x="695" 
d="M152 79c-10 -25.4004 2.5 -47.4004 40 -50l29 -2c4 -0.299805 8 -3 8 -8v-19l-2 -2s-109 2 -133 2c-26 0 -90 -2 -90 -2l-2 2v19c0 5 3 7.7002 8 8c43.5 3 69.2002 10.7998 97 75l222.3 520.3c11 25.7998 19 35.7002 33.7002 35.7002c14 0 19.4004 -9.90039 27 -30
l205 -542c14 -39 34.2002 -54.4004 74 -58l11 -1c5 -0.5 10 -3 10 -8v-19l-3 -2s-77 2 -116 2c-35 0 -133 -2 -133 -2l-1 2v19c0 5 2 7.59961 7 8l28 2c37.7998 2.7002 52 15.2998 42 43l-61 169h-208c-24 0 -29.9004 -4.40039 -35 -17zM263 283h174l-97 267h-2
l-100.2 -253.7c-4.2002 -10.7998 3 -13.2998 25.2002 -13.2998zM198 685c0 25 21 45 46 45s45 -20 45 -45s-20 -45 -45 -45s-46 20 -46 45zM420 686c0 24 21 45 46 45s45 -21 45 -45c0 -25 -20 -46 -45 -46s-46 21 -46 46z" />
    <glyph glyph-name="Aring" unicode="&#xc5;" horiz-adv-x="695" 
d="M352 772c-31 0 -54 -26 -54 -56c0 -28 23 -56 54 -56s54 28 54 56c0 31 -25 56 -54 56zM152 79c-10 -25.4004 2.5 -47.3984 40 -49.998l29 -2c4 -0.299805 8 -3 8 -8v-19l-2 -2s-109 2 -133 2c-26 0 -90 -2 -90 -2l-2 2v19c0 5 3 7.7002 8 8
c43.5 3 69.2002 10.7998 97 75l222.3 520.3c1.90039 4.5 3.80078 8.59961 5.60059 12.1992c-38.7002 7.40039 -68.9004 41 -68.9004 81.5c0 46 39 83 85 83s86 -36 86 -83c0 -33.5996 -21.0996 -63.2998 -51.7998 -76.2002
c1.59961 -3.40039 3.09961 -7.40039 4.7998 -11.8008l205 -542c14 -39 34.2002 -54.4004 74 -58l11 -1c5 -0.5 10 -3 10 -8v-19l-3 -2s-77 2 -116 2c-35 0 -133 -2 -133 -2l-1 2v19c0 5 2 7.59961 7 8l28 2c37.7998 2.7002 52 15.2998 42 43l-61 169h-208
c-24 0 -29.9004 -4.40039 -35 -17zM263 283.002h174l-97 267h-2l-100.2 -253.7c-4.2002 -10.7998 3 -13.2998 25.2002 -13.2998z" />
    <glyph glyph-name="AE" unicode="&#xc6;" horiz-adv-x="870" 
d="M468 1c-35 0 -129 -2 -129 -2l-2 2v18c0 5 3 9 8 9h27c41 0 54 16 54 44v194h-178l-106 -198c-9 -17 -13 -23 -13 -29c0 -9 9 -11 33 -11h29c4 0 6 -3 6 -6v-21l-2 -2s-64 2 -103 2c-35 0 -91 -2 -91 -2l-1 2v19c0 5 4 8 10 8h22c29 0 41 7 60 42l267 507c3 5 4 10 4 14
c0 17 -17 27 -32 27h-32c-5 0 -7 3 -7 7v20l1 1l174 -1l77 1h246l14 -140l-27 -3c-7 43 -41 103 -92 103h-142c-24 0 -36 -8 -36 -32v-208h101c35 0 44 16 50 44l7 30c1 4 3 8 7 8h22c3 0 4 -2 4 -4c-3 -32 -8 -62 -8 -95c0 -35 4 -64 8 -96l-3 -3h-23c-5 0 -7 3 -8 7l-6 31
c-5 28 -16 44 -50 44h-101v-260c0 -27 14 -33 36 -33h152c66 0 94 53 110 126l26 -5l-25 -160h-262zM268 305h158v270c0 13 0 17 -1 23z" />
    <glyph glyph-name="Ccedilla" unicode="&#xc7;" horiz-adv-x="644" 
d="M358 -84c-19 0 -29 -0.998047 -45 -5.99805l-6 6l33.2998 74.2998c-205 7.2998 -303.3 167.399 -303.3 324.699c0 197 153 343 319 343c123 0 162 -42 219 -45c4 -54 12 -103 22 -155l-30 -4c-26 86 -84 167 -222 167c-79 0 -221 -84 -221 -287c0 -146 75 -303 230 -303
c93 0 161 31 232 109l23 -15c-63.2998 -82.9004 -144.899 -128.4 -234.1 -134.301l-18.9004 -45.7002c8 2 17 3 26 3c40 0 71 -24 71 -62c0 -43 -46 -71 -107 -71c-32 0 -49 6 -74 17l10 22c27 -10 38 -14 58 -14c30 0 60 14 60 41c0 21 -19 35 -42 35z" />
    <glyph glyph-name="Egrave" unicode="&#xc8;" horiz-adv-x="549" 
d="M245 817l121 -84c11 -8 15 -14 15 -21c0 -10 -5 -15 -15 -15c-8 0 -21 3 -43 12l-154 63zM445.3 646c1.40039 -7.59961 16.499 -104 21.6992 -145l-29 -5c-22 69 -40 109 -115 109h-105c-24 0 -36 -8 -36 -32v-212h127c35 0 46.5996 13.5996 50 42l3 25c0 4 3 8 7 8h22
c3 0 4 -2 4 -4c0 0 -4 -53 -4 -86c0 -34 4 -91 4 -91l-3 -3h-23c-5 0 -8 4 -8 7l-2 26c-2.2998 29.2998 -16 38 -50 38h-127v-251c0 -27 14 -33 36 -33h136c76 0 115 59 135 131l31 -5c-12 -52 -26.5 -115.5 -37 -167c0 0 -80.2998 2 -128 2h-213l-128 -2l-2 2v20
c0 3 2 6.59961 8 7l30 2c39.4004 2.59961 51 15 51 43v501c0 31 -12.5996 40.4004 -51 43l-30 2c-7 0.5 -8 4 -8 7v20l2 1s101 -1 128 -1h252.3c24.2002 0 29.5 0.599609 47 4c2.40039 0 3.60059 -0.700195 4.00098 -3z" />
    <glyph glyph-name="Eacute" unicode="&#xc9;" horiz-adv-x="549" 
d="M350 820l62 -52l-144 -58c-21 -9 -34 -12 -43 -12s-14 5 -14 15c0 7 2 12 15 21zM445.3 646c1.40039 -7.59961 16.499 -104 21.6992 -145l-29 -5c-22 69 -40 109 -115 109h-105c-24 0 -36 -8 -36 -32v-212h127c35 0 46.5996 13.5996 50 42l3 25c0 4 3 8 7 8h22
c3 0 4 -2 4 -4c0 0 -4 -53 -4 -86c0 -34 4 -91 4 -91l-3 -3h-23c-5 0 -8 4 -8 7l-2 26c-2.2998 29.2998 -16 38 -50 38h-127v-251c0 -27 14 -33 36 -33h136c76 0 115 59 135 131l31 -5c-12 -52 -26.5 -115.5 -37 -167c0 0 -80.2998 2 -128 2h-213l-128 -2l-2 2v20
c0 3 2 6.59961 8 7l30 2c39.4004 2.59961 51 15 51 43v501c0 31 -12.5996 40.4004 -51 43l-30 2c-7 0.5 -8 4 -8 7v20l2 1s101 -1 128 -1h252.3c24.2002 0 29.5 0.599609 47 4c2.40039 0 3.60059 -0.700195 4.00098 -3z" />
    <glyph glyph-name="Ecircumflex" unicode="&#xca;" horiz-adv-x="549" 
d="M317 805c30 -36 65 -67 101 -94l-16 -21c-39 18 -73 37 -106 62c-37 -27 -69 -45 -107 -62l-14 21c37 28 68 60 99 94h43zM445.3 646c1.40039 -7.59961 16.499 -104 21.6992 -145l-29 -5c-22 69 -40 109 -115 109h-105c-24 0 -36 -8 -36 -32v-212h127
c35 0 46.5996 13.5996 50 42l3 25c0 4 3 8 7 8h22c3 0 4 -2 4 -4c0 0 -4 -53 -4 -86c0 -34 4 -91 4 -91l-3 -3h-23c-5 0 -8 4 -8 7l-2 26c-2.2998 29.2998 -16 38 -50 38h-127v-251c0 -27 14 -33 36 -33h136c76 0 115 59 135 131l31 -5c-12 -52 -26.5 -115.5 -37 -167
c0 0 -80.2998 2 -128 2h-213l-128 -2l-2 2v20c0 3 2 6.59961 8 7l30 2c39.4004 2.59961 51 15 51 43v501c0 31 -12.5996 40.4004 -51 43l-30 2c-7 0.5 -8 4 -8 7v20l2 1s101 -1 128 -1h252.3c24.2002 0 29.5 0.599609 47 4c2.40039 0 3.60059 -0.700195 4.00098 -3z" />
    <glyph glyph-name="Edieresis" unicode="&#xcb;" horiz-adv-x="549" 
d="M163 750c0 25 20 45 45 45s45 -20 45 -45s-20 -45 -45 -45s-45 20 -45 45zM352 751c0 24 21 45 45 45c25 0 46 -21 46 -45c0 -25 -21 -46 -46 -46c-24 0 -45 21 -45 46zM445.3 646c1.40039 -7.59961 16.499 -104 21.6992 -145l-29 -5c-22 69 -40 109 -115 109h-105
c-24 0 -36 -8 -36 -32v-212h127c35 0 46.5996 13.5996 50 42l3 25c0 4 3 8 7 8h22c3 0 4 -2 4 -4c0 0 -4 -53 -4 -86c0 -34 4 -91 4 -91l-3 -3h-23c-5 0 -8 4 -8 7l-2 26c-2.2998 29.2998 -16 38 -50 38h-127v-251c0 -27 14 -33 36 -33h136c76 0 115 59 135 131l31 -5
c-12 -52 -26.5 -115.5 -37 -167c0 0 -80.2998 2 -128 2h-213l-128 -2l-2 2v20c0 3 2 6.59961 8 7l30 2c39.4004 2.59961 51 15 51 43v501c0 31 -12.5996 40.4004 -51 43l-30 2c-7 0.5 -8 4 -8 7v20l2 1s101 -1 128 -1h252.3c24.2002 0 29.5 0.599609 47 4
c2.40039 0 3.60059 -0.700195 4.00098 -3z" />
    <glyph glyph-name="Igrave" unicode="&#xcc;" horiz-adv-x="293" 
d="M99 817l121 -84c11 -8 15 -14 15 -21c0 -10 -5 -15 -15 -15c-8 0 -21 3 -43 12l-154 63zM187 574v-503c0 -30 15.2998 -38.9004 55 -42l26 -2c4 -0.299805 8 -3 8 -8v-19l-2 -2c-47.5 2 -77.5 2 -127 2s-78 0 -127 -2l-2 2v19c0 5 3 7.7002 7 8l27 2
c41.5996 3.09961 54 14 54 42v503c0 30 -14.7002 39.0996 -54 42l-27 2c-4 0.299805 -8 3 -8 8v19l2 2c50 -1 77.5 -2 127 -2c49.9004 0 79 1 128 2l2 -2v-19c0 -5 -3 -7.59961 -8 -8l-26 -2c-39.7998 -3.09961 -55 -14 -55 -42z" />
    <glyph glyph-name="Iacute" unicode="&#xcd;" horiz-adv-x="293" 
d="M210 819l62 -52l-144 -58c-21 -9 -34 -12 -43 -12s-14 5 -14 15c0 7 2 12 15 21zM187 574v-503c0 -30 15.2998 -38.9004 55 -42l26 -2c4 -0.299805 8 -3 8 -8v-19l-2 -2c-47.5 2 -77.5 2 -127 2s-78 0 -127 -2l-2 2v19c0 5 3 7.7002 7 8l27 2
c41.5996 3.09961 54 14 54 42v503c0 30 -14.7002 39.0996 -54 42l-27 2c-4 0.299805 -8 3 -8 8v19l2 2c50 -1 77.5 -2 127 -2c49.9004 0 79 1 128 2l2 -2v-19c0 -5 -3 -7.59961 -8 -8l-26 -2c-39.7998 -3.09961 -55 -14 -55 -42z" />
    <glyph glyph-name="Icircumflex" unicode="&#xce;" horiz-adv-x="293" 
d="M167 805c30 -36 65 -67 101 -94l-16 -21c-39 18 -73 37 -106 62c-37 -27 -69 -45 -107 -62l-14 21c37 28 68 60 99 94h43zM187 574v-503c0 -30 15.2998 -38.9004 55 -42l26 -2c4 -0.299805 8 -3 8 -8v-19l-2 -2c-47.5 2 -77.5 2 -127 2s-78 0 -127 -2l-2 2v19
c0 5 3 7.7002 7 8l27 2c41.5996 3.09961 54 14 54 42v503c0 30 -14.7002 39.0996 -54 42l-27 2c-4 0.299805 -8 3 -8 8v19l2 2c50 -1 77.5 -2 127 -2c49.9004 0 79 1 128 2l2 -2v-19c0 -5 -3 -7.59961 -8 -8l-26 -2c-39.7998 -3.09961 -55 -14 -55 -42z" />
    <glyph glyph-name="Idieresis" unicode="&#xcf;" horiz-adv-x="293" 
d="M7 749c0 25 20 45 45 45s45 -20 45 -45s-20 -45 -45 -45s-45 20 -45 45zM196 750c0 24 21 45 45 45c25 0 46 -21 46 -45c0 -25 -21 -46 -46 -46c-24 0 -45 21 -45 46zM187 574v-503c0 -30 15.2998 -38.9004 55 -42l26 -2c4 -0.299805 8 -3 8 -8v-19l-2 -2
c-47.5 2 -77.5 2 -127 2s-78 0 -127 -2l-2 2v19c0 5 3 7.7002 7 8l27 2c41.5996 3.09961 54 14 54 42v503c0 30 -14.7002 39.0996 -54 42l-27 2c-4 0.299805 -8 3 -8 8v19l2 2c50 -1 77.5 -2 127 -2c49.9004 0 79 1 128 2l2 -2v-19c0 -5 -3 -7.59961 -8 -8l-26 -2
c-39.7998 -3.09961 -55 -14 -55 -42z" />
    <glyph glyph-name="Eth" unicode="&#xd0;" horiz-adv-x="697" 
d="M187 72c0 -32 11 -40 109 -40c141 0 266 50 266 252c0 154 -75 328 -291 328c-49 0 -84 -3 -84 -38v-248h101v-39h-101v-215zM17 18c0 5 3.00098 8.7002 7.00098 9l30 2c34.9004 2.2998 52 13 52 45v213h-89v39h89v246c0 36 -11.4004 41.0996 -52 44l-28 2
c-5 0.400391 -9 3 -9 8v19l2 2c49.0996 -0.799805 76.8994 -2 125.999 -2c64.2998 0 100 2 164 2c192 0 345 -153 345 -339c0 -246 -186 -310 -327 -310c-103 0 -111 2 -182 2c-49.0996 0 -82 0 -126 -2l-2 2v18z" />
    <glyph glyph-name="Ntilde" unicode="&#xd1;" horiz-adv-x="695" 
d="M417 742c22 0 36 10 50 52l24 -6c-12 -60 -41 -90 -87 -90c-22 0 -43 12 -64 26c-18 11 -37 22 -54 22c-26 0 -39 -15 -49 -48l-24 5c14 59 37 89 80 89c30 0 52 -14 72 -28c16 -12 33 -22 52 -22zM603 557v-536c0 -19 -7 -31 -21 -31c-16 0 -29 9 -40 24l-349 441
c-17 22 -28 33 -34 33c-8 0 -10 -15 -10 -49v-351c0 -30 15.4004 -56 55 -59l26 -2c4 -0.299805 8 -3 8 -8v-19l-2 -2s-71 2 -111 2c-35 0 -112 -2 -112 -2l-2 2v18c0 5 3 8.2002 13 9l26 2c40.7998 3.09961 54 32 54 59v462c-6 26 -36 65 -68 68c-8 0.700195 -17 3 -17 8
v19l3 2h136l343 -444c28.7002 -37.2002 42 -55 50 -55c7 0 7 11 7 30v379c0 27 -12.2002 55.7998 -54 59l-26 2c-5 0.400391 -14 3 -14 8v19l4 2s75 -2 111 -2c39 0 111 2 111 2l2 -2v-19c0 -5 -4 -7.7002 -8 -8l-27 -2c-38.9004 -2.90039 -54 -29 -54 -59z" />
    <glyph glyph-name="Ograve" unicode="&#xd2;" horiz-adv-x="698" 
d="M304 819l121 -84c11 -8 15 -14 15 -21c0 -10 -5 -15 -15 -15c-8 0 -21 3 -43 12l-154 63zM662 329c0 -200 -123 -339 -314 -339c-172 0 -311 123 -311 320c0 196 131 348 310 348c180 0 315 -131 315 -329zM334 624c-96 0 -205 -87 -205 -297c0 -192 119 -303 239 -303
c114 0 202 107 202 286c0 208 -95 314 -236 314z" />
    <glyph glyph-name="Oacute" unicode="&#xd3;" horiz-adv-x="698" 
d="M387 820l62 -52l-144 -58c-21 -9 -34 -12 -43 -12s-14 5 -14 15c0 7 2 12 15 21zM662 329c0 -200 -123 -339 -314 -339c-172 0 -311 123 -311 320c0 196 131 348 310 348c180 0 315 -131 315 -329zM334 624c-96 0 -205 -87 -205 -297c0 -192 119 -303 239 -303
c114 0 202 107 202 286c0 208 -95 314 -236 314z" />
    <glyph glyph-name="Ocircumflex" unicode="&#xd4;" horiz-adv-x="698" 
d="M368 805c30 -36 65 -67 101 -94l-16 -21c-39 18 -73 37 -106 62c-37 -27 -69 -45 -107 -62l-14 21c37 28 68 60 99 94h43zM662 329c0 -200 -123 -339 -314 -339c-172 0 -311 123 -311 320c0 196 131 348 310 348c180 0 315 -131 315 -329zM334 624
c-96 0 -205 -87 -205 -297c0 -192 119 -303 239 -303c114 0 202 107 202 286c0 208 -95 314 -236 314z" />
    <glyph glyph-name="Otilde" unicode="&#xd5;" horiz-adv-x="698" 
d="M410 742c22 0 36 10 50 52l24 -6c-12 -60 -41 -90 -87 -90c-22 0 -43 12 -64 26c-18 11 -37 22 -54 22c-26 0 -39 -15 -49 -48l-24 5c14 59 37 89 80 89c30 0 52 -14 72 -28c16 -12 33 -22 52 -22zM662 329c0 -200 -123 -339 -314 -339c-172 0 -311 123 -311 320
c0 196 131 348 310 348c180 0 315 -131 315 -329zM334 624c-96 0 -205 -87 -205 -297c0 -192 119 -303 239 -303c114 0 202 107 202 286c0 208 -95 314 -236 314z" />
    <glyph glyph-name="Odieresis" unicode="&#xd6;" horiz-adv-x="698" 
d="M662 329c0 -200 -123 -339 -314 -339c-172 0 -311 123 -311 320c0 196 131 348 310 348c180 0 315 -131 315 -329zM334 624c-96 0 -205 -87 -205 -297c0 -192 119 -303 239 -303c114 0 202 107 202 286c0 208 -95 314 -236 314zM494 685c0 25 20 45 45 45s45 -20 45 -45
s-20 -45 -45 -45s-45 20 -45 45zM109 688c0 25 21 45 46 45s45 -20 45 -45s-20 -45 -45 -45s-46 20 -46 45z" />
    <glyph glyph-name="multiply" unicode="&#xd7;" horiz-adv-x="527" 
d="M298 230l123 -122l-35 -35l-122 122l-122 -122l-36 35l123 122l-123 123l36 35l122 -123l122 123l35 -35z" />
    <glyph glyph-name="Oslash" unicode="&#xd8;" horiz-adv-x="698" 
d="M527.4 510.7l-327.1 -403.501c45.0996 -54.0996 106.3 -83.1992 167.7 -83.1992c114 0 202 107 202 286c0 83.4004 -15.2002 150.4 -42.6006 200.7zM334.001 623.999c-96 0 -204.999 -87.001 -204.999 -297.001c0 -75.5 18.5 -138.6 48.0996 -187.199l328.5 404.2
c-41.4004 53.0996 -100.7 80 -171.601 80zM81.002 -40.002l-29 26l74.5 91.5996c-55.4004 55.2998 -89.5 134.8 -89.5 232.399c0 196 131 348 310 348c76.2998 0 144.5 -23.5 197.8 -65.7002l63.2002 77.7002l29 -24l-64.0996 -79.0996
c55.7002 -57.5 89.1006 -139.4 89.1006 -237.9c0 -200 -123 -339 -314 -339c-72.7002 0 -139.4 21.9004 -192.301 62.1006z" />
    <glyph glyph-name="Ugrave" unicode="&#xd9;" horiz-adv-x="661" 
d="M276 818l121 -84c11 -8 15 -14 15 -21c0 -10 -5 -15 -15 -15c-8 0 -21 3 -43 12l-154 63zM321 -10c-90 0 -232 42 -232 246v336c0 31 -14.7002 41.0996 -54 44l-27 2c-4 0.299805 -8 3 -8 8v19l2 2s87 -2 126 -2c36 0 129 2 129 2l2 -2v-19c0 -5 -3 -7.59961 -8 -8
l-26 -2c-41.2998 -3.2002 -55 -16 -55 -44v-303c0 -65 0 -135 53 -188c30 -29 71 -50 119 -50c169 0 184 134 184 246v293c0 31 -14.0996 43 -54 46l-27 2c-4 0.299805 -8 3 -8 8v19l2 2s71 -2 110 -2c36 0 110 2 110 2l2 -2v-19c0 -5 -3 -7.59961 -8 -8l-26 -2
c-41.2998 -3.2002 -55 -18 -55 -46v-275c0 -178 -46 -305 -251 -305z" />
    <glyph glyph-name="Uacute" unicode="&#xda;" horiz-adv-x="661" 
d="M405 819l62 -52l-144 -58c-21 -9 -34 -12 -43 -12s-14 5 -14 15c0 7 2 12 15 21zM321 -10c-90 0 -232 42 -232 246v336c0 31 -14.7002 41.0996 -54 44l-27 2c-4 0.299805 -8 3 -8 8v19l2 2s87 -2 126 -2c36 0 129 2 129 2l2 -2v-19c0 -5 -3 -7.59961 -8 -8l-26 -2
c-41.2998 -3.2002 -55 -16 -55 -44v-303c0 -65 0 -135 53 -188c30 -29 71 -50 119 -50c169 0 184 134 184 246v293c0 31 -14.0996 43 -54 46l-27 2c-4 0.299805 -8 3 -8 8v19l2 2s71 -2 110 -2c36 0 110 2 110 2l2 -2v-19c0 -5 -3 -7.59961 -8 -8l-26 -2
c-41.2998 -3.2002 -55 -18 -55 -46v-275c0 -178 -46 -305 -251 -305z" />
    <glyph glyph-name="Ucircumflex" unicode="&#xdb;" horiz-adv-x="661" 
d="M370 805c30 -36 65 -67 101 -94l-16 -21c-39 18 -73 37 -106 62c-37 -27 -69 -45 -107 -62l-14 21c37 28 68 60 99 94h43zM321 -10c-90 0 -232 42 -232 246v336c0 31 -14.7002 41.0996 -54 44l-27 2c-4 0.299805 -8 3 -8 8v19l2 2s87 -2 126 -2c36 0 129 2 129 2l2 -2
v-19c0 -5 -3 -7.59961 -8 -8l-26 -2c-41.2998 -3.2002 -55 -16 -55 -44v-303c0 -65 0 -135 53 -188c30 -29 71 -50 119 -50c169 0 184 134 184 246v293c0 31 -14.0996 43 -54 46l-27 2c-4 0.299805 -8 3 -8 8v19l2 2s71 -2 110 -2c36 0 110 2 110 2l2 -2v-19
c0 -5 -3 -7.59961 -8 -8l-26 -2c-41.2998 -3.2002 -55 -18 -55 -46v-275c0 -178 -46 -305 -251 -305z" />
    <glyph glyph-name="Udieresis" unicode="&#xdc;" horiz-adv-x="661" 
d="M320 -12c-89 0 -231 42 -231 246v338c0 40 -36 46 -70 46c-5 0 -9 3 -9 8v19l2 1s76 -1 115 -1c36 0 56 1 92 1c5 0 6 -4 6 -10v-10c0 -5 -3 -8 -8 -8c-40 -6 -48 -21 -48 -49v-302c0 -65 1 -135 54 -188c29 -29 71 -50 119 -50c168 0 184 134 184 246v294
c0 31 -14 42 -48 49c-4 0 -8 3 -8 8v11c0 6 6 9 9 9c27 0 31 -1 70 -1c35 0 100 1 100 1l2 -1v-19c0 -7 -8 -8 -25 -8c-41 0 -54 -18 -54 -46v-279c0 -178 -46 -305 -252 -305zM376 687c0 24 20 45 44 45c25 0 46 -21 46 -45c0 -25 -21 -46 -46 -46c-24 0 -44 21 -44 46z
M232 687c0 25 20 45 45 45s44 -20 44 -45s-19 -45 -44 -45s-45 20 -45 45z" />
    <glyph glyph-name="Yacute" unicode="&#xdd;" horiz-adv-x="574" 
d="M360 820l62 -52l-144 -58c-21 -9 -34 -12 -43 -12s-14 5 -14 15c0 7 2 12 15 21zM254 72v187.001c0 10.7002 -3.2002 33.5 -8.5 42.7002l-145.8 245.3c-31.5996 53.2002 -41.7998 67 -77.7002 70l-12 1c-3 0.200195 -10 1 -10 7v20l2 2s92 -2 105 -2c6 0 114 2 114 2
l2 -2v-19c0 -4 -2 -7.90039 -6 -8l-29 -1c-35.2998 -1.2002 -28 -14.6006 -13 -41.001l137 -241h2l128 241c16.7002 31.5 8.40039 38.5 -14 40l-30 2c-4 0.299805 -5 4 -5 7v20l2 2s78 -2 91 -2c9 0 87 2 87 2l2 -2v-20c0 -5 -4 -6.40039 -10 -7l-21 -2
c-35.2998 -3.40039 -45.5 -21.4004 -61.7998 -51l-140.9 -255c-5.7998 -10.5996 -7.2998 -24 -7.2998 -42.2998v-195.7c0 -31 16 -45 55 -45h27c4 0 8 -3 8 -8v-19l-2 -2s-87 2 -126 2c-36 0 -129 -2 -129 -2l-2 2v19c0 5 3 8 8 8h26c41 0 55 17 55 45z" />
    <glyph glyph-name="Thorn" unicode="&#xde;" horiz-adv-x="523" 
d="M98 575c0 30 -15.7002 38 -55 41l-26 2c-4 0.299805 -8 3 -8 8v19l2 1s87 -1 126 -1c35 0 129 1 129 1l2 -1v-19c0 -5 -3 -7.59961 -8 -8l-27 -2c-40.0996 -3 -54 -13 -54 -41v-56c36 2 71 2 90 2c185 0 220 -107 220 -178c0 -75 -56 -191 -234 -191c-35 0 -61 2 -76 7
v-87c0 -31 15.9004 -40.2002 54 -43l27 -2c4 -0.299805 8 -3 8 -8v-19l-2 -2s-87 2 -126 2c-36 0 -129 -2 -129 -2l-2 2v19c0 5 3 7.59961 8 8l26 2c41.7998 3.2002 55 15 55 43v503zM179 479v-291c9 -3 33 -5 71 -5c72 0 151 31 151 160c0 120 -74 147 -133 147
c-19 0 -68 -5 -89 -11z" />
    <glyph glyph-name="germandbls" unicode="&#xdf;" horiz-adv-x="542" 
d="M75 73v165c0 140 55 232 232 232c44 0 127 -11 168 -25v-16l-110 -156c-1 -1 -3 -6 -3 -7c0 -3 2 -4 5 -4c89 -4 134 -63 134 -132c0 -70 -51 -140 -146 -140c-40 0 -62 12 -85 12c-6 0 -17 -4 -24 -4c0 17 -4 53 -12 110l26 2c13 -58 35 -91 84 -91c36 0 79 24 79 108
c0 26 -21 113 -135 113c-4 0 -8 -1 -13 -2l-4 18c36 48 106 143 106 160c0 11 -53 25 -84 25c-85 0 -141 -49 -141 -185v-183c0 -22 10.5996 -39.4004 38 -44l12 -2c3.90039 -0.700195 6 -2 6 -6v-21l-1 -2s-64 2 -93 2c-26 0 -98 -2 -98 -2l-1 2v21c0 4 2 5.59961 5 6l17 2
c30.2998 3.59961 38 25 38 44z" />
    <glyph glyph-name="agrave" unicode="&#xe0;" horiz-adv-x="538" 
d="M292 672l70 -126c5 -10 6 -17 6 -24c0 -5 -7 -11 -15 -11c-6 0 -13 5 -29 20l-114 109l2 11c8 6 31 23 65 23c5 0 11 -1 15 -2zM342 204l-79 197h-1l-76 -183c0 -5 0 -14 20 -14h136zM161 164l-44 -105c-2 -5 -4 -10 -4 -13c0 -13 16 -16 41 -18l13 -1c3 0 6 -3 6 -6v-21
l-2 -2s-83 2 -102 2c-20 0 -65 -2 -65 -2l-2 2v21c0 3 3 6 6 6c25 3 47 7 64 43l176 378c7 16 23 26 32 26c21 0 33 -8 40 -25l146 -373c17 -40 29 -46 62 -49c7 -1 8 -3 8 -6v-21l-3 -2s-53 2 -83 2c-28 0 -112 -2 -112 -2l-2 2v21c0 3 3 6 7 6l18 2c23 3 40 6 40 19
c0 3 -1 7 -2 11l-45 116h-171c-13 0 -20 -4 -22 -11z" />
    <glyph glyph-name="aacute" unicode="&#xe1;" horiz-adv-x="538" 
d="M304 666c3 1 9 2 14 2c28 0 41 -11 49 -18c2 -2 4 -4 6 -5l3 -11l-115 -109c-15 -15 -22 -20 -29 -20s-14 6 -14 12s0 13 6 23zM342 204l-79 197h-1l-76 -183c0 -5 0 -14 20 -14h136zM161 164l-44 -105c-2 -5 -4 -10 -4 -13c0 -13 16 -16 41 -18l13 -1c3 0 6 -3 6 -6v-21
l-2 -2s-83 2 -102 2c-20 0 -65 -2 -65 -2l-2 2v21c0 3 3 6 6 6c25 3 47 7 64 43l176 378c7 16 23 26 32 26c21 0 33 -8 40 -25l146 -373c17 -40 29 -46 62 -49c7 -1 8 -3 8 -6v-21l-3 -2s-53 2 -83 2c-28 0 -112 -2 -112 -2l-2 2v21c0 3 3 6 7 6l18 2c23 3 40 6 40 19
c0 3 -1 7 -2 11l-45 116h-171c-13 0 -20 -4 -22 -11z" />
    <glyph glyph-name="acircumflex" unicode="&#xe2;" horiz-adv-x="538" 
d="M313 651c29 -47 65 -89 101 -129l-21 -14c-39 29 -72 54 -106 90c-37 -38 -69 -63 -107 -90l-20 14c36 40 74 83 103 129h50zM342 204l-79 197h-1l-76 -183c0 -5 0 -14 20 -14h136zM161 164l-44 -105c-2 -5 -4 -10 -4 -13c0 -13 16 -16 41 -18l13 -1c3 0 6 -3 6 -6v-21
l-2 -2s-83 2 -102 2c-20 0 -65 -2 -65 -2l-2 2v21c0 3 3 6 6 6c25 3 47 7 64 43l176 378c7 16 23 26 32 26c21 0 33 -8 40 -25l146 -373c17 -40 29 -46 62 -49c7 -1 8 -3 8 -6v-21l-3 -2s-53 2 -83 2c-28 0 -112 -2 -112 -2l-2 2v21c0 3 3 6 7 6l18 2c23 3 40 6 40 19
c0 3 -1 7 -2 11l-45 116h-171c-13 0 -20 -4 -22 -11z" />
    <glyph glyph-name="atilde" unicode="&#xe3;" horiz-adv-x="538" 
d="M354 571c22 0 36 10 50 52l24 -6c-12 -60 -41 -90 -87 -90c-22 0 -43 12 -64 26c-18 11 -37 22 -54 22c-26 0 -39 -15 -49 -48l-24 5c14 59 37 89 80 89c30 0 52 -14 72 -28c16 -12 33 -22 52 -22zM342 204l-79 197h-1l-76 -183c0 -5 0 -14 20 -14h136zM161 164l-44 -105
c-2 -5 -4 -10 -4 -13c0 -13 16 -16 41 -18l13 -1c3 0 6 -3 6 -6v-21l-2 -2s-83 2 -102 2c-20 0 -65 -2 -65 -2l-2 2v21c0 3 3 6 6 6c25 3 47 7 64 43l176 378c7 16 23 26 32 26c21 0 33 -8 40 -25l146 -373c17 -40 29 -46 62 -49c7 -1 8 -3 8 -6v-21l-3 -2s-53 2 -83 2
c-28 0 -112 -2 -112 -2l-2 2v21c0 3 3 6 7 6l18 2c23 3 40 6 40 19c0 3 -1 7 -2 11l-45 116h-171c-13 0 -20 -4 -22 -11z" />
    <glyph glyph-name="adieresis" unicode="&#xe4;" horiz-adv-x="538" 
d="M162 573c0 25 20 45 45 45s46 -20 46 -45s-21 -46 -46 -46s-45 21 -45 46zM322 573c0 25 21 45 46 45s45 -20 45 -45s-20 -46 -45 -46s-46 21 -46 46zM342 204l-79 197h-1l-76 -183c0 -5 0 -14 20 -14h136zM161 164l-44 -105c-2 -5 -4 -10 -4 -13c0 -13 16 -16 41 -18
l13 -1c3 0 6 -3 6 -6v-21l-2 -2s-83 2 -102 2c-20 0 -65 -2 -65 -2l-2 2v21c0 3 3 6 6 6c25 3 47 7 64 43l176 378c7 16 23 26 32 26c21 0 33 -8 40 -25l146 -373c17 -40 29 -46 62 -49c7 -1 8 -3 8 -6v-21l-3 -2s-53 2 -83 2c-28 0 -112 -2 -112 -2l-2 2v21c0 3 3 6 7 6
l18 2c23 3 40 6 40 19c0 3 -1 7 -2 11l-45 116h-171c-13 0 -20 -4 -22 -11z" />
    <glyph glyph-name="aring" unicode="&#xe5;" horiz-adv-x="538" 
d="M201 581c0 46 39 83 85 83s86 -36 86 -83c0 -45 -38 -83 -86 -83c-46 0 -85 37 -85 83zM287 637c-31 0 -54 -26 -54 -56c0 -28 23 -56 54 -56s54 28 54 56c0 31 -25 56 -54 56zM342 204l-79 197h-1l-76 -183c0 -5 0 -14 20 -14h136zM161 164l-44 -105
c-2 -5 -4 -10 -4 -13c0 -13 16 -16 41 -18l13 -1c3 0 6 -3 6 -6v-21l-2 -2s-83 2 -102 2c-20 0 -65 -2 -65 -2l-2 2v21c0 3 3 6 6 6c25 3 47 7 64 43l176 378c7 16 23 26 32 26c21 0 33 -8 40 -25l146 -373c17 -40 29 -46 62 -49c7 -1 8 -3 8 -6v-21l-3 -2s-53 2 -83 2
c-28 0 -112 -2 -112 -2l-2 2v21c0 3 3 6 7 6l18 2c23 3 40 6 40 19c0 3 -1 7 -2 11l-45 116h-171c-13 0 -20 -4 -22 -11z" />
    <glyph glyph-name="ae" unicode="&#xe6;" horiz-adv-x="662" 
d="M276 393l-59 -136c-1 -2 -2 -4 -2 -5c0 -4 6 -5 20 -5h97v144c0 31 -9 42 -22 42c-10 0 -23 -16 -34 -40zM505 34c61 0 84 40 99 90l26 -3c-12 -49 -20 -89 -21 -121h-240c-39 0 -99 -2 -99 -2l-1 2v22c0 2 1 4.5 5 5l17 2c31.5996 3.7002 41 12 41 32v155h-112
c-19 0 -25 -5 -29 -13l-72 -144c-9 -18 3 -21 33 -30l10 -2c3 -1 6 -3 6 -6v-21l-1 -2s-82 2 -101 2s-60 -2 -60 -2l-1 2v21c0 3 2 5.59961 6 6c33.5 3 52 20 60 34c20 32 66 117 97 177c16 32 73 146 73 174c0 12 -6.5 17.9004 -33 21c-6 0.700195 -6 3 -6 4v23l2 2
s88 -2 164 -2h137c30 0 101 2 101 2l2 -2c1 -43 8 -82 15 -120l-25 -4c-11 37 -30 90 -94 90h-70c-19 0 -29 -6 -29 -23v-156h61c27 0 34 12 39 32l5 21c1 4 3 6 6 6h17c2 0 3 -1 3 -3c-2 -23 -6 -51 -6 -75c0 -25 3 -45 6 -69l-2 -2h-18c-4 0 -6 3 -7 5l-4 22
c-5 21 -13 31 -39 31h-61v-156c0 -19 12 -25 29 -25h71z" />
    <glyph glyph-name="ccedilla" unicode="&#xe7;" horiz-adv-x="492" 
d="M270 -80c-19 0 -29 -1.00098 -45 -6.00098l-6 6l31 69.2002c-137.5 12.7998 -213 126.399 -213 234.8c0 146 102 250 234 250c80 0 125 -18 163 -18c1 -45 6 -87 12 -128l-26 -3c-12 70 -56 120 -143 120c-75 0 -158 -43 -158 -211c0 -99 41 -212 162 -212
c67 0 102 20 148 74l20 -16c-45.2998 -60.7998 -91.5996 -89.8994 -164.8 -91.8994l-16.2002 -39.0996c8 2 17 3 26 3c40 0 71 -24 71 -62c0 -43 -46 -71 -107 -71c-32 0 -49 6 -74 17l10 22c27 -10 38 -14 58 -14c30 0 60 14 60 41c0 21 -19 35 -42 35z" />
    <glyph glyph-name="egrave" unicode="&#xe8;" horiz-adv-x="454" 
d="M229 682l70 -126c5 -10 6 -17 6 -24c0 -5 -7 -11 -15 -11c-6 0 -13 5 -29 20l-114 109l2 11c8 6 31 23 65 23c5 0 11 -1 15 -2zM391 460c1 -43 7 -82 14 -120l-25 -3c-10 36 -29 89 -93 89h-80c-19 0 -29 -4 -29 -21v-148h75c28 0 35 12 39 32l6 21c0 3 2 5 6 5h17
c2 0 2 -1 2 -3c-2 -22 -6 -50 -6 -74c0 -25 4 -46 6 -69l-2 -2h-17c-5 0 -7 2 -7 5l-5 22c-4 20 -13 31 -39 31h-75v-167c0 -19 11 -24 29 -24h86c61 0 83 40 99 91l25 -3c-12 -49 -19 -90 -21 -122h-264l-99 -2l-1 2v22c0 2 1 5 6 5l23 2c31 3 40 11 40 31v341
c0 23 -12 29 -40 31l-23 2c-6 1 -6 3 -6 4v22l1 2l100 -2h72h186z" />
    <glyph glyph-name="eacute" unicode="&#xe9;" horiz-adv-x="454" 
d="M259 663c3 1 9 2 14 2c28 0 41 -11 49 -18c2 -2 4 -4 6 -5l3 -11l-115 -109c-15 -15 -22 -20 -29 -20s-14 6 -14 12s0 13 6 23zM391 460c1 -43 7 -82 14 -120l-25 -3c-10 36 -29 89 -93 89h-80c-19 0 -29 -4 -29 -21v-148h75c28 0 35 12 39 32l6 21c0 3 2 5 6 5h17
c2 0 2 -1 2 -3c-2 -22 -6 -50 -6 -74c0 -25 4 -46 6 -69l-2 -2h-17c-5 0 -7 2 -7 5l-5 22c-4 20 -13 31 -39 31h-75v-167c0 -19 11 -24 29 -24h86c61 0 83 40 99 91l25 -3c-12 -49 -19 -90 -21 -122h-264l-99 -2l-1 2v22c0 2 1 5 6 5l23 2c31 3 40 11 40 31v341
c0 23 -12 29 -40 31l-23 2c-6 1 -6 3 -6 4v22l1 2l100 -2h72h186z" />
    <glyph glyph-name="ecircumflex" unicode="&#xea;" horiz-adv-x="454" 
d="M270 650c29 -47 65 -89 101 -129l-21 -14c-39 29 -72 54 -106 90c-37 -38 -69 -63 -107 -90l-20 14c36 40 74 83 103 129h50zM391 460c1 -43 7 -82 14 -120l-25 -3c-10 36 -29 89 -93 89h-80c-19 0 -29 -4 -29 -21v-148h75c28 0 35 12 39 32l6 21c0 3 2 5 6 5h17
c2 0 2 -1 2 -3c-2 -22 -6 -50 -6 -74c0 -25 4 -46 6 -69l-2 -2h-17c-5 0 -7 2 -7 5l-5 22c-4 20 -13 31 -39 31h-75v-167c0 -19 11 -24 29 -24h86c61 0 83 40 99 91l25 -3c-12 -49 -19 -90 -21 -122h-264l-99 -2l-1 2v22c0 2 1 5 6 5l23 2c31 3 40 11 40 31v341
c0 23 -12 29 -40 31l-23 2c-6 1 -6 3 -6 4v22l1 2l100 -2h72h186z" />
    <glyph glyph-name="edieresis" unicode="&#xeb;" horiz-adv-x="454" 
d="M120 574c0 25 20 45 45 45s46 -20 46 -45s-21 -46 -46 -46s-45 21 -45 46zM280 574c0 25 21 45 46 45s45 -20 45 -45s-20 -46 -45 -46s-46 21 -46 46zM391 460c1 -43 7 -82 14 -120l-25 -3c-10 36 -29 89 -93 89h-80c-19 0 -29 -4 -29 -21v-148h75c28 0 35 12 39 32l6 21
c0 3 2 5 6 5h17c2 0 2 -1 2 -3c-2 -22 -6 -50 -6 -74c0 -25 4 -46 6 -69l-2 -2h-17c-5 0 -7 2 -7 5l-5 22c-4 20 -13 31 -39 31h-75v-167c0 -19 11 -24 29 -24h86c61 0 83 40 99 91l25 -3c-12 -49 -19 -90 -21 -122h-264l-99 -2l-1 2v22c0 2 1 5 6 5l23 2c31 3 40 11 40 31
v341c0 23 -12 29 -40 31l-23 2c-6 1 -6 3 -6 4v22l1 2l100 -2h72h186z" />
    <glyph glyph-name="igrave" unicode="&#xec;" horiz-adv-x="279" 
d="M112 665l70 -126c5 -10 6 -17 6 -24c0 -5 -7 -11 -15 -11c-6 0 -13 5 -29 20l-114 109l2 11c8 6 31 23 65 23c5 0 11 -1 15 -2zM179 400v-333c0 -22 10 -35 42 -38l21 -2c3 0 6 -2 6 -6v-21l-1 -2s-76 2 -107 2c-28 0 -106 -2 -106 -2l-2 2v21c0 4 3 6 7 6l20 2
c33 3.2998 43 19 43 38v333c0 22 -12 28.9004 -43 32l-20 2c-4 0 -7 1 -7 4v22l1 2s79 -2 110 -2c27 0 104 2 104 2l1 -2v-21c0 -3 -2 -5 -6 -5l-21 -2c-31 -3 -42 -12 -42 -32z" />
    <glyph glyph-name="iacute" unicode="&#xed;" horiz-adv-x="279" 
d="M173 663c3 1 9 2 14 2c28 0 41 -11 49 -18c2 -2 4 -4 6 -5l3 -11l-115 -109c-15 -15 -22 -20 -29 -20s-14 6 -14 12s0 13 6 23zM179 400v-333c0 -22 10 -35 42 -38l21 -2c3 0 6 -2 6 -6v-21l-1 -2s-76 2 -107 2c-28 0 -106 -2 -106 -2l-2 2v21c0 4 3 6 7 6l20 2
c33 3.2998 43 19 43 38v333c0 22 -12 28.9004 -43 32l-20 2c-4 0 -7 1 -7 4v22l1 2s79 -2 110 -2c27 0 104 2 104 2l1 -2v-21c0 -3 -2 -5 -6 -5l-21 -2c-31 -3 -42 -12 -42 -32z" />
    <glyph glyph-name="icircumflex" unicode="&#xee;" horiz-adv-x="279" 
d="M166 651c29 -47 65 -89 101 -129l-21 -14c-39 29 -72 54 -106 90c-37 -38 -69 -63 -107 -90l-20 14c36 40 74 83 103 129h50zM179 400v-333c0 -22 10 -35 42 -38l21 -2c3 0 6 -2 6 -6v-21l-1 -2s-76 2 -107 2c-28 0 -106 -2 -106 -2l-2 2v21c0 4 3 6 7 6l20 2
c33 3.2998 43 19 43 38v333c0 22 -12 28.9004 -43 32l-20 2c-4 0 -7 1 -7 4v22l1 2s79 -2 110 -2c27 0 104 2 104 2l1 -2v-21c0 -3 -2 -5 -6 -5l-21 -2c-31 -3 -42 -12 -42 -32z" />
    <glyph glyph-name="idieresis" unicode="&#xef;" horiz-adv-x="279" 
d="M10 574c0 25 20 45 45 45s46 -20 46 -45s-21 -46 -46 -46s-45 21 -45 46zM170 574c0 25 21 45 46 45s45 -20 45 -45s-20 -46 -45 -46s-46 21 -46 46zM179 400v-333c0 -22 10 -35 42 -38l21 -2c3 0 6 -2 6 -6v-21l-1 -2s-76 2 -107 2c-28 0 -106 -2 -106 -2l-2 2v21
c0 4 3 6 7 6l20 2c33 3.2998 43 19 43 38v333c0 22 -12 28.9004 -43 32l-20 2c-4 0 -7 1 -7 4v22l1 2s79 -2 110 -2c27 0 104 2 104 2l1 -2v-21c0 -3 -2 -5 -6 -5l-21 -2c-31 -3 -42 -12 -42 -32z" />
    <glyph glyph-name="eth" unicode="&#xf0;" horiz-adv-x="561" 
d="M178 71c0 -28 7 -45 83 -45c110 0 178 42 178 182c0 104 -29 226 -197 226c-39 0 -64 -3 -64 -28v-159h61v-39h-61v-137zM32 21c0 3 2 6 6 6l23 2c30 3 40 13 40 44v135h-71v39h71v153c0 26 -7 29 -40 32l-22 2c-4 0 -7 2 -7 5v21l1 2l98 -2c53 1 114 2 140 2
c150 0 249 -104 249 -237c0 -175 -124 -227 -235 -227c-80 0 -126 2 -154 2l-98 -2l-1 2v21z" />
    <glyph glyph-name="ntilde" unicode="&#xf1;" horiz-adv-x="571" 
d="M480 388v-373c0 -20 -8 -27 -20 -27c-15 0 -24 6 -39 22l-235 313c-13 16 -22 24 -27 24c-6 0 -10 -12 -10 -35v-241c0 -22 15 -39 45 -42l20 -2c4 0 7 -2 7 -6v-21l-1 -2s-61 2 -92 2c-27 0 -93 -2 -93 -2l-3 2v21c0 4 6 6 10 6l20 2c34 3 43 23 43 42v326
c-10 18 -23 34 -61 37c-3 0 -9 2 -9 6v19l2 3l135 -2l229 -311c14 -16 23 -24 28 -24c6 0 7 9 7 26v237c0 20 -14 41 -44 44l-21 2c-4 0 -10 2 -10 5v21l2 2s68 -2 95 -2c31 0 89 2 89 2l3 -1v-22c0 -3 -3 -5 -7 -5l-20 -2c-32 -3.2002 -43 -22 -43 -44zM375 571
c22 0 36 10 50 52l24 -6c-12 -60 -41 -90 -87 -90c-22 0 -43 12 -64 26c-18 11 -37 22 -54 22c-26 0 -39 -15 -49 -48l-24 5c14 59 37 89 80 89c30 0 52 -14 72 -28c16 -12 33 -22 52 -22z" />
    <glyph glyph-name="ograve" unicode="&#xf2;" horiz-adv-x="555" 
d="M265 668l70 -126c5 -10 6 -17 6 -24c0 -5 -7 -11 -15 -11c-6 0 -13 5 -29 20l-114 109l2 11c8 6 31 23 65 23c5 0 11 -1 15 -2zM519 235c0 -130 -84 -247 -248 -247c-135 0 -234 98 -234 234c0 147 103 252 242 252c130 0 240 -97 240 -239zM270 439
c-75 0 -150 -70 -150 -205c0 -123 69 -212 166 -212c89 0 150 76 150 199c0 134 -77 218 -166 218z" />
    <glyph glyph-name="oacute" unicode="&#xf3;" horiz-adv-x="555" 
d="M309 663c3 1 9 2 14 2c28 0 41 -11 49 -18c2 -2 4 -4 6 -5l3 -11l-115 -109c-15 -15 -22 -20 -29 -20s-14 6 -14 12s0 13 6 23zM519 235c0 -130 -84 -247 -248 -247c-135 0 -234 98 -234 234c0 147 103 252 242 252c130 0 240 -97 240 -239zM270 439
c-75 0 -150 -70 -150 -205c0 -123 69 -212 166 -212c89 0 150 76 150 199c0 134 -77 218 -166 218z" />
    <glyph glyph-name="ocircumflex" unicode="&#xf4;" horiz-adv-x="555" 
d="M309 647c29 -47 65 -89 101 -129l-21 -14c-39 29 -72 54 -106 90c-37 -38 -69 -63 -107 -90l-20 14c36 40 74 83 103 129h50zM519 235c0 -130 -84 -247 -248 -247c-135 0 -234 98 -234 234c0 147 103 252 242 252c130 0 240 -97 240 -239zM270 439
c-75 0 -150 -70 -150 -205c0 -123 69 -212 166 -212c89 0 150 76 150 199c0 134 -77 218 -166 218z" />
    <glyph glyph-name="otilde" unicode="&#xf5;" horiz-adv-x="555" 
d="M339 571c22 0 36 10 50 52l24 -6c-12 -60 -41 -90 -87 -90c-22 0 -43 12 -64 26c-18 11 -37 22 -54 22c-26 0 -39 -15 -49 -48l-24 5c14 59 37 89 80 89c30 0 52 -14 72 -28c16 -12 33 -22 52 -22zM519 235c0 -130 -84 -247 -248 -247c-135 0 -234 98 -234 234
c0 147 103 252 242 252c130 0 240 -97 240 -239zM270 439c-75 0 -150 -70 -150 -205c0 -123 69 -212 166 -212c89 0 150 76 150 199c0 134 -77 218 -166 218z" />
    <glyph glyph-name="odieresis" unicode="&#xf6;" horiz-adv-x="555" 
d="M156 573c0 25 20 45 45 45s46 -20 46 -45s-21 -46 -46 -46s-45 21 -45 46zM316 573c0 25 21 45 46 45s45 -20 45 -45s-20 -46 -45 -46s-46 21 -46 46zM519 235c0 -130 -84 -247 -248 -247c-135 0 -234 98 -234 234c0 147 103 252 242 252c130 0 240 -97 240 -239z
M270 439c-75 0 -150 -70 -150 -205c0 -123 69 -212 166 -212c89 0 150 76 150 199c0 134 -77 218 -166 218z" />
    <glyph glyph-name="divide" unicode="&#xf7;" horiz-adv-x="527" 
d="M220.8 366c0 24.2998 20.0996 44.5 44.3994 44.5s44.3994 -20.2002 44.3994 -44.5s-20.0996 -44.3994 -44.3994 -44.3994s-44.3994 20.0996 -44.3994 44.3994zM220.8 98c0 24.2998 20.0996 44.5 44.3994 44.5s44.3994 -20.2002 44.3994 -44.5
s-20.0996 -44.3994 -44.3994 -44.3994s-44.3994 20.0996 -44.3994 44.3994zM461 257v-49h-395v49h395z" />
    <glyph glyph-name="oslash" unicode="&#xf8;" horiz-adv-x="555" 
d="M399 362.6l-213.7 -301.1c27.2998 -25.2002 61.7002 -39.5 100.7 -39.5c89 0 150 76 150 199c0 57.2002 -14 105.3 -37 141.6zM519 235c0 -130 -84.001 -246.998 -248.001 -246.998c-43.5996 0 -83.5 10.2002 -117.5 28.7002l-44.5 -62.7002l-29 19l44.4004 62.5996
c-54.2002 41.5996 -87.4004 107.6 -87.4004 186.399c0 147 103 252 242 252c47.7002 0 92.7002 -13.0996 130.601 -36.5996l39.4004 55.5996l29 -19l-40.5 -57c49.5996 -42.2002 81.5 -105.601 81.5 -182.001zM269.999 439.002c-75 0 -150.001 -70.001 -150.001 -205.001
c0 -58.0996 15.4004 -108.6 41.8008 -145.699l215 302.9c-29.2002 30.7998 -66.7998 47.7998 -106.8 47.7998z" />
    <glyph glyph-name="ugrave" unicode="&#xf9;" horiz-adv-x="559" 
d="M268 668l70 -126c5 -10 6 -17 6 -24c0 -5 -7 -11 -15 -11c-6 0 -13 5 -29 20l-114 109l2 11c8 6 31 23 65 23c5 0 11 -1 15 -2zM275 -10c-69 0 -181 46 -181 191v219c0 22 -11 28 -43 32l-18 2c-3 0 -6 2 -6 5v21l1 2s76 -2 107 -2c28 0 104 2 104 2l1 -2v-21
c0 -3 -2 -5 -6 -5l-20 -2c-32 -3.2002 -43 -12 -43 -32v-198c0 -93 14 -183 121 -183c132 0 133 106 133 192v189c0 22 -13 29 -43 32l-20 2c-4 0 -7 2 -7 5v21l2 2s60 -2 90 -2c28 0 84 2 84 2l1 -2v-21c0 -3 -2 -5 -6 -5l-17 -2c-31 -4 -39 -12 -39 -32v-176
c0 -139 -34 -234 -195 -234z" />
    <glyph glyph-name="uacute" unicode="&#xfa;" horiz-adv-x="559" 
d="M343 663c3 1 9 2 14 2c28 0 41 -11 49 -18c2 -2 4 -4 6 -5l3 -11l-115 -109c-15 -15 -22 -20 -29 -20s-14 6 -14 12s0 13 6 23zM275 -10c-69 0 -181 46 -181 191v219c0 22 -11 28 -43 32l-18 2c-3 0 -6 2 -6 5v21l1 2s76 -2 107 -2c28 0 104 2 104 2l1 -2v-21
c0 -3 -2 -5 -6 -5l-20 -2c-32 -3.2002 -43 -12 -43 -32v-198c0 -93 14 -183 121 -183c132 0 133 106 133 192v189c0 22 -13 29 -43 32l-20 2c-4 0 -7 2 -7 5v21l2 2s60 -2 90 -2c28 0 84 2 84 2l1 -2v-21c0 -3 -2 -5 -6 -5l-17 -2c-31 -4 -39 -12 -39 -32v-176
c0 -139 -34 -234 -195 -234z" />
    <glyph glyph-name="ucircumflex" unicode="&#xfb;" horiz-adv-x="559" 
d="M323 646c29 -47 65 -89 101 -129l-21 -14c-39 29 -72 54 -106 90c-37 -38 -69 -63 -107 -90l-20 14c36 40 74 83 103 129h50zM275 -10c-69 0 -181 46 -181 191v219c0 22 -11 28 -43 32l-18 2c-3 0 -6 2 -6 5v21l1 2s76 -2 107 -2c28 0 104 2 104 2l1 -2v-21
c0 -3 -2 -5 -6 -5l-20 -2c-32 -3.2002 -43 -12 -43 -32v-198c0 -93 14 -183 121 -183c132 0 133 106 133 192v189c0 22 -13 29 -43 32l-20 2c-4 0 -7 2 -7 5v21l2 2s60 -2 90 -2c28 0 84 2 84 2l1 -2v-21c0 -3 -2 -5 -6 -5l-17 -2c-31 -4 -39 -12 -39 -32v-176
c0 -139 -34 -234 -195 -234z" />
    <glyph glyph-name="udieresis" unicode="&#xfc;" horiz-adv-x="559" 
d="M177 573c0 25 20 45 45 45s46 -20 46 -45s-21 -46 -46 -46s-45 21 -45 46zM337 573c0 25 21 45 46 45s45 -20 45 -45s-20 -46 -45 -46s-46 21 -46 46zM275 -10c-69 0 -181 46 -181 191v219c0 22 -11 28 -43 32l-18 2c-3 0 -6 2 -6 5v21l1 2s76 -2 107 -2
c28 0 104 2 104 2l1 -2v-21c0 -3 -2 -5 -6 -5l-20 -2c-32 -3.2002 -43 -12 -43 -32v-198c0 -93 14 -183 121 -183c132 0 133 106 133 192v189c0 22 -13 29 -43 32l-20 2c-4 0 -7 2 -7 5v21l2 2s60 -2 90 -2c28 0 84 2 84 2l1 -2v-21c0 -3 -2 -5 -6 -5l-17 -2
c-31 -4 -39 -12 -39 -32v-176c0 -139 -34 -234 -195 -234z" />
    <glyph glyph-name="yacute" unicode="&#xfd;" horiz-adv-x="479" 
d="M204 61v135l-126 207c-13 21 -29 28 -58 31c-3 0 -8 1 -8 5v21l2 2c9 0 71 -2 82 -2c5 0 89 1 101 2l1 -1v-22c0 -2 -2 -5 -5 -5l-22 -2c-24 -2.2002 -19.9004 -11.9004 -10 -28l101 -165h2l93 165c13 24 13 25.9004 -11 28l-23 2c-3 0 -4 3 -4 5v22l2 1
c11 0 67 -2 77 -2c7 0 53 1 68 2l1 -2v-21c0 -2 0 -4 -7 -5l-17 -2c-32 -4 -36.7998 -11.0996 -52 -38l-110 -194v-139c0 -22 11 -29 42 -32l21 -2c4 0 7 -3 7 -6v-21l-2 -2s-76 2 -107 2c-28 0 -106 -2 -106 -2l-2 2v21c0 3 3 6 7 6l20 2c31 3.09961 43 12 43 32zM300 669
c3 1 9 2 14 2c28 0 41 -11 49 -18c2 -2 4 -4 6 -5l3 -11l-115 -109c-15 -15 -22 -20 -29 -20s-14 6 -14 12s0 13 6 23z" />
    <glyph glyph-name="thorn" unicode="&#xfe;" horiz-adv-x="450" 
d="M168 334v-202c8 -3 27 -4 59 -4c75 0 113 31 113 111c0 74 -36 103 -99 103c-16 0 -55 -4 -73 -8zM168 371c26 1 59 2 74 2c151 0 178 -83 178 -135c0 -55 -44 -141 -189 -141c-29 0 -50 1 -63 5v-39c0 -30 6.2998 -32 30 -34l24 -2c3 -0.200195 7 -2 7 -6v-21l-1 -2
s-75 2 -99 2c-23 0 -80 -1 -98 -2l-2 2v21c1 3 2 5.59961 7 6l24 2c27.5996 2.2998 31 8 31 34v336c0 26 -6.90039 30 -31 32l-24 2c-4 0.299805 -7 2 -7 5v22l2 2s61 -2 97 -2c37 0 100 2 100 2l1 -2v-22c0 -1 -1 -4.59961 -6 -5l-25 -2c-19 -1.5 -30 -2 -30 -32v-28z" />
    <glyph glyph-name="ydieresis" unicode="&#xff;" horiz-adv-x="479" 
d="M204 61v135l-126 207c-13 21 -29 28 -58 31c-3 0 -8 1 -8 5v21l2 2c9 0 71 -2 82 -2c5 0 89 1 101 2l1 -1v-22c0 -2 -2 -5 -5 -5l-22 -2c-24 -2.2002 -19.9004 -11.9004 -10 -28l101 -165h2l93 165c13 24 13 25.9004 -11 28l-23 2c-3 0 -4 3 -4 5v22l2 1
c11 0 67 -2 77 -2c7 0 53 1 68 2l1 -2v-21c0 -2 0 -4 -7 -5l-17 -2c-32 -4 -36.7998 -11.0996 -52 -38l-110 -194v-139c0 -22 11 -29 42 -32l21 -2c4 0 7 -3 7 -6v-21l-2 -2s-76 2 -107 2c-28 0 -106 -2 -106 -2l-2 2v21c0 3 3 6 7 6l20 2c31 3.09961 43 12 43 32zM133 573
c0 25 20 45 45 45s46 -20 46 -45s-21 -46 -46 -46s-45 21 -45 46zM293 573c0 25 21 45 46 45s45 -20 45 -45s-20 -46 -45 -46s-46 21 -46 46z" />
    <glyph glyph-name="Amacron" unicode="&#x100;" horiz-adv-x="695" 
d="M472 726h-244c-9 0 -13 8 -13 15c0 12 11 29 22 29h245c10 0 14 -8 14 -14c0 -12 -11 -30 -24 -30zM152 79c-10 -25.4004 2.5 -47.4004 40 -50l29 -2c4 -0.299805 8 -3 8 -8v-19l-2 -2s-109 2 -133 2c-26 0 -90 -2 -90 -2l-2 2v19c0 5 3 7.7002 8 8
c43.5 3 69.2002 10.7998 97 75l222.3 520.3c11 25.7998 19 35.7002 33.7002 35.7002c14 0 19.4004 -9.90039 27 -30l205 -542c14 -39 34.2002 -54.4004 74 -58l11 -1c5 -0.5 10 -3 10 -8v-19l-3 -2s-77 2 -116 2c-35 0 -133 -2 -133 -2l-1 2v19c0 5 2 7.59961 7 8l28 2
c37.7998 2.7002 52 15.2998 42 43l-61 169h-208c-24 0 -29.9004 -4.40039 -35 -17zM263 283h174l-97 267h-2l-100.2 -253.7c-4.2002 -10.7998 3 -13.2998 25.2002 -13.2998z" />
    <glyph glyph-name="amacron" unicode="&#x101;" horiz-adv-x="538" 
d="M342 204l-77 197h-2l-77 -183c0 -5 0 -14 20 -14h136zM161 164l-44 -105c-2 -5 -4 -10 -4 -13c0 -13 16 -16 41 -18l13 -1c3 0 6 -3 6 -6v-21l-2 -2s-83 2 -102 2c-20 0 -65 -2 -65 -2l-2 2v21c0 3 3 6 6 6c25 3 47 7 64 43l175 376c9.90039 21.4004 24 26 33 26
c21 0 33 -8 40 -25l146 -371c16 -40 29 -46 62 -49c7 -1 8 -3 8 -6v-21l-3 -2s-53 2 -83 2c-28 0 -112 -2 -112 -2l-2 2v21c0 3 3 6 7 6l18 2c23 3 40 6 40 19c0 3 -1 7 -2 11l-45 116h-171c-13 0 -20 -4 -22 -11zM404 513h-244c-9 0 -13 8 -13 15c0 12 11 29 22 29h245
c10 0 14 -8 14 -14c0 -12 -11 -30 -24 -30z" />
    <glyph glyph-name="Abreve" unicode="&#x102;" horiz-adv-x="695" 
d="M493 804c-6 -71 -69 -113 -135 -113c-73 0 -131 43 -136 113h28c8 -39 55 -61 108 -61c49 0 101 22 108 61h27zM152 79c-10 -25.4004 2.5 -47.4004 40 -50l29 -2c4 -0.299805 8 -3 8 -8v-19l-2 -2s-109 2 -133 2c-26 0 -90 -2 -90 -2l-2 2v19c0 5 3 7.7002 8 8
c43.5 3 69.2002 10.7998 97 75l222.3 520.3c11 25.7998 19 35.7002 33.7002 35.7002c14 0 19.4004 -9.90039 27 -30l205 -542c14 -39 34.2002 -54.4004 74 -58l11 -1c5 -0.5 10 -3 10 -8v-19l-3 -2s-77 2 -116 2c-35 0 -133 -2 -133 -2l-1 2v19c0 5 2 7.59961 7 8l28 2
c37.7998 2.7002 52 15.2998 42 43l-61 169h-208c-24 0 -29.9004 -4.40039 -35 -17zM263 283h174l-97 267h-2l-100.2 -253.7c-4.2002 -10.7998 3 -13.2998 25.2002 -13.2998z" />
    <glyph glyph-name="abreve" unicode="&#x103;" horiz-adv-x="538" 
d="M342 204l-79 197h-1l-76 -183c0 -5 0 -14 20 -14h136zM161 164l-44 -105c-2 -5 -4 -10 -4 -13c0 -13 16 -16 41 -18l13 -1c3 0 6 -3 6 -6v-21l-2 -2s-83 2 -102 2c-20 0 -65 -2 -65 -2l-2 2v21c0 3 3 6 6 6c25 3 47 7 64 43l176 378c7 16 23 26 32 26c21 0 33 -8 40 -25
l146 -373c17 -40 29 -46 62 -49c7 -1 8 -3 8 -6v-21l-3 -2s-53 2 -83 2c-28 0 -112 -2 -112 -2l-2 2v21c0 3 3 6 7 6l18 2c23 3 40 6 40 19c0 3 -1 7 -2 11l-45 116h-171c-13 0 -20 -4 -22 -11zM179 662c2 -52 49 -92 109 -92c46 0 106 30 108 92l27 -14
c-10 -101 -85 -135 -135 -135c-77 0 -128 57 -135 135z" />
    <glyph glyph-name="Aogonek" unicode="&#x104;" horiz-adv-x="695" 
d="M263 283h174l-97 267h-2l-100.2 -253.7c-4.2002 -10.7998 3 -13.2998 25.2002 -13.2998zM584 -225c-53 0 -92.999 31 -92.999 85c0 47.9004 40.7998 106.7 101.8 139.9c-7.90039 0.0996094 -15.4004 0.0996094 -21.8008 0.0996094c-35 0 -133 -2 -133 -2l-1 2v19
c0 5 2 7.59961 7 8l28 2c37.7998 2.7002 52 15.2998 42 43l-61 169h-208c-24 0 -29.9004 -4.40039 -35 -17l-58 -145c-10 -25.4004 2.5 -47.4004 40 -50l29 -2c4 -0.299805 8 -3 8 -8v-19l-2 -2s-109 2 -133 2c-26 0 -90 -2 -90 -2l-2 2v19c0 5 3 7.7002 8 8
c43.5 3 69.2002 10.7998 97 75l222.3 520.3c11 25.7998 19 35.7002 33.7002 35.7002c14 0 19.4004 -9.90039 27 -30l205 -542c14 -39 34.2002 -54.4004 74 -58l11 -1c5 -0.5 10 -3 10 -8v-19l-3 -2l-13.9004 0.299805c-73 -7.5 -122.1 -77.0996 -122.1 -125.3
c0 -32 22 -59 58 -59c30 0 51 15 70 36l15 -8c-24 -47 -74 -67 -110 -67z" />
    <glyph glyph-name="aogonek" unicode="&#x105;" horiz-adv-x="538" 
d="M342 204l-79 197h-1l-76 -183c0 -5 0 -14 20 -14h136zM161 164l-43.999 -105c-2 -5 -4 -10 -4 -13c0 -13 16 -16 41 -18l13 -1c3 0 6 -3 6 -6v-21l-2 -2s-83 2 -102 2c-20 0 -65 -2 -65 -2l-2 2v21c0 3 3 6 6 6c25 3 47 7 64 43l176 378c7 16 23 26 32 26
c21 0 33 -8 40 -25l146 -373c17 -40 29 -46 62 -49c7 -1 8 -3 8 -6v-21l-3 -2s-20.2002 0.700195 -42.7998 1.2998c-72.9004 -7.40039 -121.2 -77.1006 -121.2 -125.301c0 -32 22 -59 58 -59c30 0 50 15 69 36l15 -8c-23 -47 -74 -67 -109 -67c-54 0 -93 31 -93 85
c0 47.2002 39.0996 105.101 98.3994 138.501c-32.9004 -0.599609 -69.4004 -1.5 -69.4004 -1.5l-2 2v21c0 3 3 6 7 6l18 2c23 3 40 6 40 19c0 3 -1 7 -2 11l-45 116h-171c-13 0 -20 -4 -22 -11z" />
    <glyph glyph-name="Cacute" unicode="&#x106;" horiz-adv-x="644" 
d="M392 819l62 -52l-144 -58c-21 -9 -34 -12 -43 -12s-14 5 -14 15c0 7 2 12 15 21zM355 -10c-215 0 -318 164 -318 325c0 197 153 343 319 343c123 0 162 -42 219 -45c4 -54 12 -103 22 -155l-30 -4c-26 86 -84 167 -222 167c-79 0 -221 -84 -221 -287
c0 -146 75 -303 230 -303c93 0 161 31 232 109l23 -15c-68 -89 -157 -135 -254 -135z" />
    <glyph glyph-name="cacute" unicode="&#x107;" horiz-adv-x="492" 
d="M276 -12c-154 0 -239 121 -239 236c0 146 102 250 234 250c80 0 125 -18 163 -18c1 -45 6 -87 12 -128l-26 -3c-12 70 -56 120 -143 120c-75 0 -158 -43 -158 -211c0 -99 41 -212 162 -212c67 0 102 20 148 74l20 -16c-47 -63 -95 -92 -173 -92zM283 674c3 1 9 2 14 2
c28 0 41 -11 49 -18c2 -2 4 -4 6 -5l3 -11l-115 -109c-15 -15 -22 -20 -29 -20s-14 6 -14 12s0 13 6 23z" />
    <glyph glyph-name="Ccircumflex" unicode="&#x108;" horiz-adv-x="644" 
d="M378 806c30 -36 65 -67 101 -94l-16 -21c-39 18 -73 37 -106 62c-37 -27 -69 -45 -107 -62l-14 21c37 28 68 60 99 94h43zM355 -10c-215 0 -318 164 -318 325c0 197 153 343 319 343c123 0 162 -42 219 -45c4 -54 12 -103 22 -155l-30 -4c-26 86 -84 167 -222 167
c-79 0 -221 -84 -221 -287c0 -146 75 -303 230 -303c93 0 161 31 232 109l23 -15c-68 -89 -157 -135 -254 -135z" />
    <glyph glyph-name="ccircumflex" unicode="&#x109;" horiz-adv-x="492" 
d="M276 -10c-154 0 -239 119 -239 234c0 146 102 246 234 246c80 0 125 -16 163 -16c1 -45 6 -87 12 -128l-26 -3c-12 70 -56 118 -143 118c-75 0 -153 -39 -153 -207c0 -99 36 -210 157 -210c67 0 102 20 148 74l20 -16c-47 -63 -95 -92 -173 -92zM307 657
c29 -47 65 -89 101 -129l-21 -14c-39 29 -72 54 -106 90c-37 -38 -69 -63 -107 -90l-20 14c36 40 74 83 103 129h50z" />
    <glyph glyph-name="Cdotaccent" unicode="&#x10a;" horiz-adv-x="644" 
d="M309 749c0 27 21 48 48 48c26 0 48 -21 48 -48c0 -26 -22 -47 -48 -47c-27 0 -48 21 -48 47zM355 -10c-215 0 -318 164 -318 325c0 197 153 343 319 343c123 0 162 -42 219 -45c4 -54 12 -103 22 -155l-30 -4c-26 86 -84 167 -222 167c-79 0 -221 -84 -221 -287
c0 -146 75 -303 230 -303c93 0 161 31 232 109l23 -15c-68 -89 -157 -135 -254 -135z" />
    <glyph glyph-name="cdotaccent" unicode="&#x10b;" horiz-adv-x="492" 
d="M276 -10c-154 0 -239 119 -239 234c0 146 102 246 234 246c80 0 125 -16 163 -16c1 -45 6 -87 12 -128l-26 -3c-12 70 -56 118 -143 118c-75 0 -153 -39 -153 -207c0 -99 36 -210 157 -210c67 0 102 20 148 74l20 -16c-47 -63 -95 -92 -173 -92zM224 561
c0 27 21 48 48 48c26 0 48 -21 48 -48c0 -26 -22 -47 -48 -47c-27 0 -48 21 -48 47z" />
    <glyph glyph-name="Ccaron" unicode="&#x10c;" horiz-adv-x="644" 
d="M333 697c-30 37 -65 67 -101 95l16 20c39 -17 73 -36 106 -61c37 26 69 45 107 61l15 -20c-38 -29 -70 -61 -100 -95h-43zM355 -10c-215 0 -318 164 -318 325c0 197 153 343 319 343c123 0 162 -42 219 -45c4 -54 12 -103 22 -155l-30 -4c-26 86 -84 167 -222 167
c-79 0 -221 -84 -221 -287c0 -146 75 -303 230 -303c93 0 161 31 232 109l23 -15c-68 -89 -157 -135 -254 -135z" />
    <glyph glyph-name="ccaron" unicode="&#x10d;" horiz-adv-x="492" 
d="M276 -12c-154 0 -239 121 -239 236c0 146 102 250 234 250c80 0 125 -18 163 -18c1 -45 6 -87 12 -128l-26 -3c-12 70 -56 120 -143 120c-75 0 -158 -43 -158 -211c0 -99 41 -212 162 -212c67 0 102 20 148 74l20 -16c-47 -63 -95 -92 -173 -92zM245 513
c-29 47 -66 92 -101 130l20 13c39 -29 72 -54 106 -90c37 38 71 63 108 90l19 -13c-35 -39 -73 -84 -102 -130h-50z" />
    <glyph glyph-name="Dcaron" unicode="&#x10e;" horiz-adv-x="697" 
d="M291 697c-30 37 -65 67 -101 95l16 20c39 -17 73 -36 106 -61c37 26 69 45 107 61l15 -20c-38 -29 -70 -61 -100 -95h-43zM187 72c0 -32 11 -40 109 -40c141 0 266 50 266 252c0 154 -75 328 -291 328c-49 0 -84 -3 -84 -38v-502zM17 18c0 5 3.00098 8.7002 7.00098 9
l30 2c34.9004 2.2998 52 13 52 45v498c0 36 -11.4004 41.0996 -52 44l-28 2c-5 0.400391 -9 3 -9 8v19l2 2c49.0996 -0.799805 76.8994 -2 125.999 -2c64.2998 0 100 2 164 2c192 0 345 -153 345 -339c0 -246 -186 -310 -327 -310c-103 0 -111 2 -182 2
c-49.0996 0 -82 0 -126 -2l-2 2v18z" />
    <glyph glyph-name="dcaron" unicode="&#x10f;" horiz-adv-x="561" 
d="M178 71c0 -28 7 -45 83 -45c110 0 178 42 178 182c0 104 -29 226 -197 226c-39 0 -64 -3 -64 -28v-335zM32 21c0 3 2 6 6 6l23 2c30 3 40 13 40 44v327c0 26 -7 29 -40 32l-22 2c-4 0 -7 2 -7 5v21l1 2l98 -2c53 1 114 2 140 2c150 0 249 -104 249 -237
c0 -175 -124 -227 -235 -227c-80 0 -126 2 -154 2l-98 -2l-1 2v21zM246 513c-29 47 -66 92 -101 130l20 13c39 -29 72 -54 106 -90c37 38 71 63 108 90l19 -13c-35 -39 -73 -84 -102 -130h-50z" />
    <glyph glyph-name="Dcroat" unicode="&#x110;" horiz-adv-x="697" 
d="M187 72c0 -32 11 -40 109 -40c141 0 266 50 266 252c0 154 -75 328 -291 328c-49 0 -84 -3 -84 -38v-247h157v-40h-157v-215zM17 18c0 5 3.00098 8.7002 7.00098 9l30 2c34.9004 2.2998 52 13 52 45v213h-89v40h89v245c0 36 -11.4004 41.0996 -52 44l-28 2
c-5 0.400391 -9 3 -9 8v19l2 2c49.0996 -0.799805 76.8994 -2 125.999 -2c64.2998 0 100 2 164 2c192 0 345 -153 345 -339c0 -246 -186 -310 -327 -310c-103 0 -111 2 -182 2c-49.0996 0 -82 0 -126 -2l-2 2v18z" />
    <glyph glyph-name="dcroat" unicode="&#x111;" horiz-adv-x="551" 
d="M178 71c0 -28 7 -45 83 -45c110 0 178 42 178 182c0 104 -29 226 -197 226c-39 0 -64 -3 -64 -28v-159h61v-39h-61v-137zM32 21c0 3 2 6 6 6l23 2c30 3 40 13 40 44v135h-71v39h71v153c0 26 -7 29 -40 32l-22 2c-4 0 -7 2 -7 5v21l1 2l98 -2c53 1 114 2 140 2
c150 0 249 -104 249 -237c0 -175 -124 -227 -235 -227c-80 0 -126 2 -154 2l-98 -2l-1 2v21z" />
    <glyph glyph-name="Emacron" unicode="&#x112;" horiz-adv-x="549" 
d="M385 733h-244c-9 0 -13 8 -13 15c0 12 11 29 22 29h245c10 0 14 -8 14 -14c0 -12 -11 -30 -24 -30zM445.3 646c1.40039 -7.59961 16.499 -104 21.6992 -145l-29 -5c-22 69 -40 109 -115 109h-105c-24 0 -36 -8 -36 -32v-212h127c35 0 46.5996 13.5996 50 42l3 25
c0 4 3 8 7 8h22c3 0 4 -2 4 -4c0 0 -4 -53 -4 -86c0 -34 4 -91 4 -91l-3 -3h-23c-5 0 -8 4 -8 7l-2 26c-2.2998 29.2998 -16 38 -50 38h-127v-251c0 -27 14 -33 36 -33h136c76 0 115 59 135 131l31 -5c-12 -52 -26.5 -115.5 -37 -167c0 0 -80.2998 2 -128 2h-213l-128 -2
l-2 2v20c0 3 2 6.59961 8 7l30 2c39.4004 2.59961 51 15 51 43v501c0 31 -12.5996 40.4004 -51 43l-30 2c-7 0.5 -8 4 -8 7v20l2 1s101 -1 128 -1h252.3c24.2002 0 29.5 0.599609 47 4c2.40039 0 3.60059 -0.700195 4.00098 -3z" />
    <glyph glyph-name="emacron" unicode="&#x113;" horiz-adv-x="454" 
d="M307 0h-175c-30 0 -99 -2 -99 -2l-1 2v22c0 2 1 4.59961 6 5l23 2c30.5996 2.7002 40 23 40 43v330c0 23 -12 26.5996 -40 29l-23 2c-6 0.5 -6 3 -6 4v23l1 2s78 -2 108 -2h147c30 0 101 2 101 2l2 -2c1 -43 8 -82 15 -120l-25 -4c-11 37 -30 90 -94 90h-80
c-19 0 -29 -7 -29 -24v-145h75c28 0 35 12 39 32l6 21c0 3 2 5 6 5h17c2 0 2 -1 2 -3c-2 -22 -6 -50 -6 -74c0 -25 4 -46 6 -69l-2 -2h-17c-5 0 -7 2 -7 5l-5 22c-4 20 -13 31 -39 31h-75v-153c0 -19 11 -38 29 -38h95c51 0 79 32 91 84l25 -3l-20 -115l-2 -2s-59 2 -89 2z
M357 509h-244c-9 0 -13 8 -13 15c0 12 11 29 22 29h245c10 0 14 -8 14 -14c0 -12 -11 -30 -24 -30z" />
    <glyph glyph-name="Ebreve" unicode="&#x114;" horiz-adv-x="549" 
d="M415 803c-6 -71 -69 -113 -135 -113c-73 0 -131 43 -136 113h28c8 -39 55 -61 108 -61c49 0 101 22 108 61h27zM445.3 646c1.40039 -7.59961 16.499 -104 21.6992 -145l-29 -5c-22 69 -40 109 -115 109h-105c-24 0 -36 -8 -36 -32v-212h127c35 0 46.5996 13.5996 50 42
l3 25c0 4 3 8 7 8h22c3 0 4 -2 4 -4c0 0 -4 -53 -4 -86c0 -34 4 -91 4 -91l-3 -3h-23c-5 0 -8 4 -8 7l-2 26c-2.2998 29.2998 -16 38 -50 38h-127v-251c0 -27 14 -33 36 -33h136c76 0 115 59 135 131l31 -5c-12 -52 -26.5 -115.5 -37 -167c0 0 -80.2998 2 -128 2h-213
l-128 -2l-2 2v20c0 3 2 6.59961 8 7l30 2c39.4004 2.59961 51 15 51 43v501c0 31 -12.5996 40.4004 -51 43l-30 2c-7 0.5 -8 4 -8 7v20l2 1s101 -1 128 -1h252.3c24.2002 0 29.5 0.599609 47 4c2.40039 0 3.60059 -0.700195 4.00098 -3z" />
    <glyph glyph-name="ebreve" unicode="&#x115;" horiz-adv-x="454" 
d="M307 0h-175c-30 0 -99 -2 -99 -2l-1 2v22c0 2 1 4.59961 6 5l23 2c30.5996 2.7002 40 23 40 43v330c0 23 -12 26.5996 -40 29l-23 2c-6 0.5 -6 3 -6 4v23l1 2s78 -2 108 -2h147c30 0 101 2 101 2l2 -2c1 -43 8 -82 15 -120l-25 -4c-11 37 -30 90 -94 90h-80
c-19 0 -29 -7 -29 -24v-145h75c28 0 35 12 39 32l6 21c0 3 2 5 6 5h17c2 0 2 -1 2 -3c-2 -22 -6 -50 -6 -74c0 -25 4 -46 6 -69l-2 -2h-17c-5 0 -7 2 -7 5l-5 22c-4 20 -13 31 -39 31h-75v-153c0 -19 11 -38 29 -38h95c51 0 79 32 91 84l25 -3l-20 -115l-2 -2s-59 2 -89 2z
M136 658c2 -52 49 -92 109 -92c46 0 106 30 108 92l27 -14c-10 -101 -85 -135 -135 -135c-77 0 -128 57 -135 135z" />
    <glyph glyph-name="Edotaccent" unicode="&#x116;" horiz-adv-x="549" 
d="M232 740c0 27 21 48 48 48c26 0 48 -21 48 -48c0 -26 -22 -47 -48 -47c-27 0 -48 21 -48 47zM445.3 646c1.40039 -7.59961 16.499 -104 21.6992 -145l-29 -5c-22 69 -40 109 -115 109h-105c-24 0 -36 -8 -36 -32v-212h127c35 0 46.5996 13.5996 50 42l3 25c0 4 3 8 7 8
h22c3 0 4 -2 4 -4c0 0 -4 -53 -4 -86c0 -34 4 -91 4 -91l-3 -3h-23c-5 0 -8 4 -8 7l-2 26c-2.2998 29.2998 -16 38 -50 38h-127v-251c0 -27 14 -33 36 -33h136c76 0 115 59 135 131l31 -5c-12 -52 -26.5 -115.5 -37 -167c0 0 -80.2998 2 -128 2h-213l-128 -2l-2 2v20
c0 3 2 6.59961 8 7l30 2c39.4004 2.59961 51 15 51 43v501c0 31 -12.5996 40.4004 -51 43l-30 2c-7 0.5 -8 4 -8 7v20l2 1s101 -1 128 -1h252.3c24.2002 0 29.5 0.599609 47 4c2.40039 0 3.60059 -0.700195 4.00098 -3z" />
    <glyph glyph-name="edotaccent" unicode="&#x117;" horiz-adv-x="454" 
d="M307 0h-175c-30 0 -99 -2 -99 -2l-1 2v22c0 2 1 4.59961 6 5l23 2c30.5996 2.7002 40 23 40 43v330c0 23 -12 26.5996 -40 29l-23 2c-6 0.5 -6 3 -6 4v23l1 2s78 -2 108 -2h147c30 0 101 2 101 2l2 -2c1 -43 8 -82 15 -120l-25 -4c-11 37 -30 90 -94 90h-80
c-19 0 -29 -7 -29 -24v-145h75c28 0 35 12 39 32l6 21c0 3 2 5 6 5h17c2 0 2 -1 2 -3c-2 -22 -6 -50 -6 -74c0 -25 4 -46 6 -69l-2 -2h-17c-5 0 -7 2 -7 5l-5 22c-4 20 -13 31 -39 31h-75v-153c0 -19 11 -38 29 -38h95c51 0 79 32 91 84l25 -3l-20 -115l-2 -2s-59 2 -89 2z
M209 572c0 27 21 48 48 48c26 0 48 -21 48 -48c0 -26 -22 -47 -48 -47c-27 0 -48 21 -48 47z" />
    <glyph glyph-name="Eogonek" unicode="&#x118;" horiz-adv-x="549" 
d="M404 -224c-53 0 -93 30.998 -93 84.998c0 47.2002 39.5996 105.101 99.1992 138.501c-19.2002 0.299805 -39.1006 0.5 -55.2002 0.5h-213l-128 -2l-2 2v20c0 3 2 6.59961 8 7l30 2c39.4004 2.59961 51 15 51 43v501c0 31 -12.5996 40.4004 -51 43l-30 2c-7 0.5 -8 4 -8 7
v20l2 1s101 -1 128 -1h252.3c24.2002 0 29.5 0.599609 47 4c2.40039 0 3.60059 -0.700195 4.00098 -3c1.40039 -7.59961 16.5 -104 21.7002 -145l-29 -5c-22 69 -40 109 -115 109h-105c-24 0 -36 -8 -36 -32v-212h127c35 0 46.5996 13.5996 50 42l3 25c0 4 3 8 7 8h22
c3 0 4 -2 4 -4c0 0 -4 -53 -4 -86c0 -34 4 -91 4 -91l-3 -3h-23c-5 0 -8 4 -8 7l-2 26c-2.2998 29.2998 -16 38 -50 38h-127v-251c0 -27 14 -33 36 -33h136c76 0 115 59 135 131l31 -5c-10.2002 -44.2998 -22.2998 -96.8994 -32.0996 -143.399l18.0996 -21.5996
c-80 0 -135 -75 -135 -126c0 -32 22 -59 58 -59c30 0 50 15 70 36l15 -8c-24 -47 -74 -67 -110 -67z" />
    <glyph glyph-name="eogonek" unicode="&#x119;" horiz-adv-x="454" 
d="M307 -224c-54 0 -94 30.999 -94 84.999c0 47.5 40.0996 105.6 100.199 139h-6.2002h-175c-30 0 -99 -2 -99 -2l-1 2v22c0 2 1 4.59961 6 5l23 2c30.5996 2.7002 40 23 40 43v330c0 23 -12 26.5996 -40 29l-23 2c-6 0.5 -6 3 -6 4v23l1 2s78 -2 108 -2h147
c30 0 101 2 101 2l2 -2c1 -43 8 -82 15 -120l-25 -4c-11 37 -30 90 -94 90h-80c-19 0 -29 -7 -29 -24v-145h75c28 0 35 12 39 32l6 21c0 3 2 5 6 5h17c2 0 2 -1 2 -3c-2 -22 -6 -50 -6 -74c0 -25 4 -46 6 -69l-2 -2h-17c-5 0 -7 2 -7 5l-5 22c-4 20 -13 31 -39 31h-75v-153
c0 -19 11 -38 29 -38h95c51 0 79 32 91 84l25 -3l-18.2998 -105.1l8.2998 -9.90039c-3.5 0 -7 -0.0996094 -10.4004 -0.399414l-1.59961 -1.59961l-8.7998 0.299805c-68.5996 -11.5 -114.199 -77.7998 -114.199 -124.3c0 -32 22 -59 59 -59c29 0 50 15 69 36l15 -8
c-23 -47 -74 -67 -109 -67z" />
    <glyph glyph-name="Ecaron" unicode="&#x11a;" horiz-adv-x="549" 
d="M268 697c-30 37 -65 67 -101 95l16 20c39 -17 73 -36 106 -61c37 26 69 45 107 61l15 -20c-38 -29 -70 -61 -100 -95h-43zM445.3 646c1.40039 -7.59961 16.499 -104 21.6992 -145l-29 -5c-22 69 -40 109 -115 109h-105c-24 0 -36 -8 -36 -32v-212h127
c35 0 46.5996 13.5996 50 42l3 25c0 4 3 8 7 8h22c3 0 4 -2 4 -4c0 0 -4 -53 -4 -86c0 -34 4 -91 4 -91l-3 -3h-23c-5 0 -8 4 -8 7l-2 26c-2.2998 29.2998 -16 38 -50 38h-127v-251c0 -27 14 -33 36 -33h136c76 0 115 59 135 131l31 -5c-12 -52 -26.5 -115.5 -37 -167
c0 0 -80.2998 2 -128 2h-213l-128 -2l-2 2v20c0 3 2 6.59961 8 7l30 2c39.4004 2.59961 51 15 51 43v501c0 31 -12.5996 40.4004 -51 43l-30 2c-7 0.5 -8 4 -8 7v20l2 1s101 -1 128 -1h252.3c24.2002 0 29.5 0.599609 47 4c2.40039 0 3.60059 -0.700195 4.00098 -3z" />
    <glyph glyph-name="ecaron" unicode="&#x11b;" horiz-adv-x="454" 
d="M391 460c1 -43 7 -82 14 -120l-25 -3c-10 36 -29 89 -93 89h-80c-19 0 -29 -4 -29 -21v-148h75c28 0 35 12 39 32l6 21c0 3 2 5 6 5h17c2 0 2 -1 2 -3c-2 -22 -6 -50 -6 -74c0 -25 4 -46 6 -69l-2 -2h-17c-5 0 -7 2 -7 5l-5 22c-4 20 -13 31 -39 31h-75v-167
c0 -19 11 -24 29 -24h86c61 0 83 40 99 91l25 -3c-12 -49 -19 -90 -21 -122h-264l-99 -2l-1 2v22c0 2 1 5 6 5l23 2c31 3 40 11 40 31v341c0 23 -12 29 -40 31l-23 2c-6 1 -6 3 -6 4v22l1 2l100 -2h72h186zM222 509c-29 47 -66 92 -101 130l20 13c39 -29 72 -54 106 -90
c37 38 71 63 108 90l19 -13c-35 -39 -73 -84 -102 -130h-50z" />
    <glyph glyph-name="Gcircumflex" unicode="&#x11c;" horiz-adv-x="693" 
d="M385 805c30 -36 65 -67 101 -94l-16 -21c-39 18 -73 37 -106 62c-37 -27 -69 -45 -107 -62l-14 21c37 28 68 60 99 94h43zM375 658c122 0 158 -45 218 -45c7 -72 13 -112 22 -154l-30 -6c-26 86 -79 168 -224 168c-135 0 -242 -119 -242 -294c0 -132 96 -301 274 -301
c54 0 113 16 147 48v153c0 31 -14.7998 38.9004 -55 42l-26 2c-4 0.299805 -8 3 -8 8v26l2 2s87 -2 126 -2c35 0 93 2 93 2l2 -2v-26c0 -5 -3 -7.5 -8 -8c-29 -3 -45 -8.7998 -45 -44v-116c0 -11 5 -19 16 -28c-68 -58 -149 -93 -267 -93c-201 0 -338 144 -338 317
c0 220 171 351 343 351z" />
    <glyph glyph-name="gcircumflex" unicode="&#x11d;" horiz-adv-x="545" 
d="M397 160c0 22 -14.2998 28.0996 -43 31l-20 2c-3 0.299805 -6 2 -6 6v22l1 1s80 -1 110 -1c28 0 75 1 75 1l2 -1v-22c0 -4 -2.09961 -5.2998 -6 -6c-24 -4 -36 -8.2002 -36 -33v-75c0 -7 7 -16 14 -23c-62 -43 -135 -72 -203 -72c-143 0 -247 102 -247 230
c0 159 113 250 260 250c56 0 130 -16 160 -16c1 -47 6 -88 13 -128l-26 -3c-13 68 -56 118 -160 118c-105 0 -161 -87 -161 -208c0 -82 54 -214 179 -214c35 0 69 13 94 38v103zM318 652c29 -47 65 -89 101 -129l-21 -14c-39 29 -72 54 -106 90c-37 -38 -69 -63 -107 -90
l-20 14c36 40 74 83 103 129h50z" />
    <glyph glyph-name="Gbreve" unicode="&#x11e;" horiz-adv-x="693" 
d="M507 806c-6 -71 -69 -113 -135 -113c-73 0 -131 43 -136 113h28c8 -39 55 -61 108 -61c49 0 101 22 108 61h27zM375 658c122 0 158 -45 218 -45c7 -72 13 -112 22 -154l-30 -6c-26 86 -79 168 -224 168c-135 0 -242 -119 -242 -294c0 -132 96 -301 274 -301
c54 0 113 16 147 48v153c0 31 -14.7998 38.9004 -55 42l-26 2c-4 0.299805 -8 3 -8 8v26l2 2s87 -2 126 -2c35 0 93 2 93 2l2 -2v-26c0 -5 -3 -7.5 -8 -8c-29 -3 -45 -8.7998 -45 -44v-116c0 -11 5 -19 16 -28c-68 -58 -149 -93 -267 -93c-201 0 -338 144 -338 317
c0 220 171 351 343 351z" />
    <glyph glyph-name="gbreve" unicode="&#x11f;" horiz-adv-x="545" 
d="M397 160c0 22 -14 28 -43 31l-20 2c-3 0 -6 2 -6 6v22l1 1s80 -1 110 -1c28 0 75 1 75 1l2 -1v-22c0 -4 -2 -5 -6 -6c-24 -4 -36 -8 -36 -33v-75c0 -7 7 -16 14 -23c-62 -43 -135 -72 -203 -72c-143 0 -247 102 -247 230c0 159 113 254 260 254c56 0 130 -18 160 -18
c1 -47 6 -88 13 -128l-26 -3c-13 68 -56 122 -160 122c-105 0 -165 -93 -165 -214c0 -82 58 -216 183 -216c35 0 69 15 94 40v103zM179 662c2 -52 49 -92 109 -92c46 0 106 30 108 92l27 -14c-10 -101 -85 -135 -135 -135c-77 0 -128 57 -135 135z" />
    <glyph glyph-name="Gdotaccent" unicode="&#x120;" horiz-adv-x="693" 
d="M327 753c0 27 21 48 48 48c26 0 48 -21 48 -48c0 -26 -22 -47 -48 -47c-27 0 -48 21 -48 47zM375 658c122 0 158 -45 218 -45c7 -72 13 -112 22 -154l-30 -6c-26 86 -79 168 -224 168c-135 0 -242 -119 -242 -294c0 -132 96 -301 274 -301c54 0 113 16 147 48v153
c0 31 -14.7998 38.9004 -55 42l-26 2c-4 0.299805 -8 3 -8 8v26l2 2s87 -2 126 -2c35 0 93 2 93 2l2 -2v-26c0 -5 -3 -7.5 -8 -8c-29 -3 -45 -8.7998 -45 -44v-116c0 -11 5 -19 16 -28c-68 -58 -149 -93 -267 -93c-201 0 -338 144 -338 317c0 220 171 351 343 351z" />
    <glyph glyph-name="gdotaccent" unicode="&#x121;" horiz-adv-x="545" 
d="M397 160c0 22 -14.2998 28.0996 -43 31l-20 2c-3 0.299805 -6 2 -6 6v22l1 1s80 -1 110 -1c28 0 75 1 75 1l2 -1v-22c0 -4 -2.09961 -5.2998 -6 -6c-24 -4 -36 -8.2002 -36 -33v-75c0 -7 7 -16 14 -23c-62 -43 -135 -72 -203 -72c-143 0 -247 102 -247 230
c0 159 113 250 260 250c56 0 130 -16 160 -16c1 -47 6 -88 13 -128l-26 -3c-13 68 -56 118 -160 118c-105 0 -161 -87 -161 -208c0 -82 54 -214 179 -214c35 0 69 13 94 38v103zM245 557c0 27 21 48 48 48c26 0 48 -21 48 -48c0 -26 -22 -47 -48 -47c-27 0 -48 21 -48 47z
" />
    <glyph glyph-name="Gcommaaccent" unicode="&#x122;" horiz-adv-x="693" 
d="M375 -53c39 0 62 -37 62 -72c0 -26 -17 -102 -107 -106l-4 17c76 15 79 73 79 79c0 4 -1 7 -2 10c-11 -6 -21 -9 -29 -9c-41 0 -50 25 -50 41s15 40 51 40zM375 658c122 0 158 -45 218 -45c7 -72 13 -112 22 -154l-30 -6c-26 86 -79 168 -224 168
c-135 0 -242 -119 -242 -294c0 -132 96 -301 274 -301c54 0 113 16 147 48v153c0 31 -14.7998 38.9004 -55 42l-26 2c-4 0.299805 -8 3 -8 8v26l2 2s87 -2 126 -2c35 0 93 2 93 2l2 -2v-26c0 -5 -3 -7.5 -8 -8c-29 -3 -45 -8.7998 -45 -44v-116c0 -11 5 -19 16 -28
c-68 -58 -149 -93 -267 -93c-201 0 -338 144 -338 317c0 220 171 351 343 351z" />
    <glyph glyph-name="gcommaaccent" unicode="&#x123;" horiz-adv-x="545" 
d="M397 160c0 22 -14.2998 28.0996 -43 31l-20 2c-3 0.299805 -6 2 -6 6v22l1 1s80 -1 110 -1c28 0 75 1 75 1l2 -1v-22c0 -4 -2.09961 -5.2998 -6 -6c-24 -4 -36 -8.2002 -36 -33v-75c0 -7 7 -16 14 -23c-62 -43 -135 -72 -203 -72c-143 0 -247 102 -247 230
c0 159 113 250 260 250c56 0 130 -16 160 -16c1 -47 6 -88 13 -128l-26 -3c-13 68 -56 118 -160 118c-105 0 -161 -87 -161 -208c0 -82 54 -214 179 -214c35 0 69 13 94 38v103zM297 513c-38 0 -60 37 -60 73c0 26 15 101 106 106l4 -17c-42 -9 -60 -46 -60 -69
c0 -10 4 -18 11 -18c41 0 46 -25 46 -41s-11 -34 -47 -34z" />
    <glyph glyph-name="Hcircumflex" unicode="&#x124;" horiz-adv-x="700" 
d="M513 74v247h-326v-249c0 -31 15.2998 -39.9004 55 -43l26 -2c4 -0.299805 8 -3 8 -8v-19l-2 -2s-86 2 -126 2c-35 0 -128 -2 -128 -2l-2 2v19c0 5 3 7.7002 7 8l27 2c40.7998 3 54 15 54 43v502c0 30 -16.2002 39.2002 -54 42l-27 2c-4 0.299805 -8 3 -8 8v19l2 2
s87 -2 126 -2c36 0 129 2 129 2l2 -2v-19c0 -5 -3 -7.59961 -8 -8l-26 -2c-40.2002 -3.09961 -55 -14 -55 -42v-211h326v211c0 30 -14.7002 39 -54 42l-26 2c-5 0.400391 -9 3 -9 8v19l2 2s87 -2 126 -2c36 0 129 2 129 2l2 -2v-19c0 -5 -3 -7.59961 -8 -8l-26 -2
c-40.2998 -3.09961 -55 -14 -55 -42v-500c0 -31 14.4004 -41.9004 55 -45l26 -2c5 -0.400391 9 -3 9 -8v-19l-2 -2s-87 2 -126 2c-36 0 -129 -2 -129 -2l-2 2v19c0 5 3 7.59961 8 8l26 2c43 3.2998 54 17 54 45zM368 803c30 -36 65 -67 101 -94l-16 -21
c-39 18 -73 37 -106 62c-37 -27 -69 -45 -107 -62l-14 21c37 28 68 60 99 94h43z" />
    <glyph glyph-name="hcircumflex" unicode="&#x125;" horiz-adv-x="590" 
d="M412 61v159h-233v-159c0 -22 11.5 -29.0996 42 -32l21 -2c3 -0.299805 6 -3 6 -6v-21l-1 -2s-77 2 -107 2c-28 0 -106 -2 -106 -2l-2 2v21c0 3 3 5.59961 7 6l20 2c34.5 3.40039 43 12 43 32v341c0 22 -11 25.7998 -43 29l-20 2c-4 0.400391 -7 2 -7 6v21l2 2
s75 -2 106 -2c27 0 107 2 107 2l1 -2v-21c0 -4 -2 -5.59961 -6 -6l-21 -2c-29.7998 -2.7998 -42 -9 -42 -29v-151h233v151c0 22 -13 26 -43 29l-20 2c-4 0.400391 -7 2 -7 6v21l2 2s74 -2 105 -2c28 0 108 2 108 2l1 -2v-21c0 -4 -2 -5.59961 -6 -6l-20 -2
c-32.7998 -3.2998 -43 -9 -43 -29v-341c0 -22 10.5 -28.7998 43 -32l20 -2c4 -0.400391 7 -3 7 -6v-21l-2 -2s-79 2 -109 2c-28 0 -104 -2 -104 -2l-1 2v21c0 3 2 5.59961 6 6l20 2c30.5 3 43 12 43 32zM321 652c29 -47 65 -89 101 -129l-21 -14c-39 29 -72 54 -106 90
c-37 -38 -69 -63 -107 -90l-20 14c36 40 74 83 103 129h50z" />
    <glyph glyph-name="Hbar" unicode="&#x126;" horiz-adv-x="700" 
d="M513 510h-326v-147h326v147zM513 74v247h-326v-249c0 -31 15.2998 -39.9004 55 -43l26 -2c4 -0.299805 8 -3 8 -8v-19l-2 -2s-86 2 -126 2c-35 0 -128 -2 -128 -2l-2 2v19c0 5 3 7.7002 7 8l27 2c40.7998 3 54 15 54 43v438h-65v39h65v25c0 30 -16.2002 39.2002 -54 42
l-27 2c-4 0.299805 -8 3 -8 8v19l2 2s87 -2 126 -2c36 0 129 2 129 2l2 -2v-19c0 -5 -3 -7.59961 -8 -8l-26 -2c-40.2002 -3.09961 -55 -14 -55 -42v-25h326v25c0 30 -14.7002 39 -54 42l-26 2c-5 0.400391 -9 3 -9 8v19l2 2s87 -2 126 -2c36 0 129 2 129 2l2 -2v-19
c0 -5 -3 -7.59961 -8 -8l-26 -2c-40.2998 -3.09961 -55 -14 -55 -42v-25h62v-39h-62v-436c0 -31 14.4004 -41.9004 55 -45l26 -2c5 -0.400391 9 -3 9 -8v-19l-2 -2s-87 2 -126 2c-36 0 -129 -2 -129 -2l-2 2v19c0 5 3 7.59961 8 8l26 2c43 3.2998 54 17 54 45z" />
    <glyph glyph-name="hbar" unicode="&#x127;" horiz-adv-x="590" 
d="M412 346h-233v-95h233v95zM412 61v159h-233v-159c0 -22 11.5 -29.0996 42 -32l21 -2c3 -0.299805 6 -3 6 -6v-21l-1 -2s-77 2 -107 2c-28 0 -106 -2 -106 -2l-2 2v21c0 3 3 5.59961 7 6l20 2c34.5 3.40039 43 12 43 32v285h-62v32h62v24c0 22 -11 25.7998 -43 29l-20 2
c-4 0.400391 -7 2 -7 6v21l2 2s75 -2 106 -2c27 0 107 2 107 2l1 -2v-21c0 -4 -2 -5.59961 -6 -6l-21 -2c-29.7998 -2.7998 -42 -9 -42 -29v-24h233v24c0 22 -13 26 -43 29l-20 2c-4 0.400391 -7 2 -7 6v21l2 2s74 -2 105 -2c28 0 108 2 108 2l1 -2v-21
c0 -4 -2 -5.59961 -6 -6l-20 -2c-32.7998 -3.2998 -43 -9 -43 -29v-24h64v-32h-64v-285c0 -22 10.5 -28.7998 43 -32l20 -2c4 -0.400391 7 -3 7 -6v-21l-2 -2s-79 2 -109 2c-28 0 -104 -2 -104 -2l-1 2v21c0 3 2 5.59961 6 6l20 2c30.5 3 43 12 43 32z" />
    <glyph glyph-name="Itilde" unicode="&#x128;" horiz-adv-x="293" 
d="M213 741c22 0 36 10 50 52l24 -6c-12 -60 -41 -90 -87 -90c-22 0 -43 12 -64 26c-18 11 -37 22 -54 22c-26 0 -39 -15 -49 -48l-24 5c14 59 37 89 80 89c30 0 52 -14 72 -28c16 -12 33 -22 52 -22zM187 574v-503c0 -30 15.2998 -38.9004 55 -42l26 -2
c4 -0.299805 8 -3 8 -8v-19l-2 -2c-47.5 2 -77.5 2 -127 2s-78 0 -127 -2l-2 2v19c0 5 3 7.7002 7 8l27 2c41.5996 3.09961 54 14 54 42v503c0 30 -14.7002 39.0996 -54 42l-27 2c-4 0.299805 -8 3 -8 8v19l2 2c50 -1 77.5 -2 127 -2c49.9004 0 79 1 128 2l2 -2v-19
c0 -5 -3 -7.59961 -8 -8l-26 -2c-39.7998 -3.09961 -55 -14 -55 -42z" />
    <glyph glyph-name="itilde" unicode="&#x129;" horiz-adv-x="279" 
d="M201 554c22 0 36 10 50 52l24 -6c-12 -60 -41 -90 -87 -90c-22 0 -43 12 -64 26c-18 11 -37 22 -54 22c-26 0 -39 -15 -49 -48l-24 5c14 59 37 89 80 89c30 0 52 -14 72 -28c16 -12 33 -22 52 -22zM179 400v-333c0 -22 10.5 -35 42 -38l21 -2c3 -0.299805 6 -2 6 -6v-21
l-1 -2s-76 2 -107 2c-28 0 -106 -2 -106 -2l-2 2v21c0 4 3 5.59961 7 6l20 2c33.5 3.2998 43 19 43 38v333c0 22 -12.2002 27.9004 -43 31l-20 2c-4 0.400391 -7 1 -7 4v23l1 2s79 -2 110 -2c27 0 104 2 104 2l1 -2v-22c0 -3 -2 -4.59961 -6 -5l-21 -2
c-30.7998 -2.90039 -42 -11 -42 -31z" />
    <glyph glyph-name="Imacron" unicode="&#x12a;" horiz-adv-x="293" 
d="M265 733h-244c-9 0 -13 8 -13 15c0 12 11 29 22 29h245c10 0 14 -8 14 -14c0 -12 -11 -30 -24 -30zM187 574v-503c0 -30 15.2998 -38.9004 55 -42l26 -2c4 -0.299805 8 -3 8 -8v-19l-2 -2c-47.5 2 -77.5 2 -127 2s-78 0 -127 -2l-2 2v19c0 5 3 7.7002 7 8l27 2
c41.5996 3.09961 54 14 54 42v503c0 30 -14.7002 39.0996 -54 42l-27 2c-4 0.299805 -8 3 -8 8v19l2 2c50 -1 77.5 -2 127 -2c49.9004 0 79 1 128 2l2 -2v-19c0 -5 -3 -7.59961 -8 -8l-26 -2c-39.7998 -3.09961 -55 -14 -55 -42z" />
    <glyph glyph-name="imacron" unicode="&#x12b;" horiz-adv-x="279" 
d="M253 509h-244c-9 0 -13 8 -13 15c0 12 11 29 22 29h245c10 0 14 -8 14 -14c0 -12 -11 -30 -24 -30zM179 400v-333c0 -22 10.5 -35 42 -38l21 -2c3 -0.299805 6 -2 6 -6v-21l-1 -2s-76 2 -107 2c-28 0 -106 -2 -106 -2l-2 2v21c0 4 3 5.59961 7 6l20 2
c33.5 3.2998 43 19 43 38v333c0 22 -12.2002 27.9004 -43 31l-20 2c-4 0.400391 -7 1 -7 4v23l1 2s79 -2 110 -2c27 0 104 2 104 2l1 -2v-22c0 -3 -2 -4.59961 -6 -5l-21 -2c-30.7998 -2.90039 -42 -11 -42 -31z" />
    <glyph glyph-name="Ibreve" unicode="&#x12c;" horiz-adv-x="293" 
d="M284 805c-6 -71 -69 -113 -135 -113c-73 0 -131 43 -136 113h28c8 -39 55 -61 108 -61c49 0 101 22 108 61h27zM187 574v-503c0 -30 15.2998 -38.9004 55 -42l26 -2c4 -0.299805 8 -3 8 -8v-19l-2 -2c-47.5 2 -77.5 2 -127 2s-78 0 -127 -2l-2 2v19c0 5 3 7.7002 7 8
l27 2c41.5996 3.09961 54 14 54 42v503c0 30 -14.7002 39.0996 -54 42l-27 2c-4 0.299805 -8 3 -8 8v19l2 2c50 -1 77.5 -2 127 -2c49.9004 0 79 1 128 2l2 -2v-19c0 -5 -3 -7.59961 -8 -8l-26 -2c-39.7998 -3.09961 -55 -14 -55 -42z" />
    <glyph glyph-name="ibreve" unicode="&#x12d;" horiz-adv-x="279" 
d="M27 658c2 -52 49 -92 109 -92c46 0 106 30 108 92l27 -14c-10 -101 -85 -135 -135 -135c-77 0 -128 57 -135 135zM179 400v-333c0 -22 10.5 -35 42 -38l21 -2c3 -0.299805 6 -2 6 -6v-21l-1 -2s-76 2 -107 2c-28 0 -106 -2 -106 -2l-2 2v21c0 4 3 5.59961 7 6l20 2
c33.5 3.2998 43 19 43 38v333c0 22 -12.2002 27.9004 -43 31l-20 2c-4 0.400391 -7 1 -7 4v23l1 2s79 -2 110 -2c27 0 104 2 104 2l1 -2v-22c0 -3 -2 -4.59961 -6 -5l-21 -2c-30.7998 -2.90039 -42 -11 -42 -31z" />
    <glyph glyph-name="Iogonek" unicode="&#x12e;" horiz-adv-x="293" 
d="M172 -225c-53 0 -93 30.999 -93 84.999c0 47.9004 40.7998 106.801 102 140.001h-34c-49.5 0 -78 0 -127 -2l-2 2v19c0 5 3 7.7002 7 8l27 2c41.5996 3.09961 54 14 54 42v503c0 30 -14.7002 39.0996 -54 42l-27 2c-4 0.299805 -8 3 -8 8v19l2 2c50 -1 77.5 -2 127 -2
c49.9004 0 79 1 128 2l2 -2v-19c0 -5 -3 -7.59961 -8 -8l-26 -2c-39.7998 -3.09961 -55 -14 -55 -42v-503c0 -30 15.2998 -38.9004 55 -42l26 -2c4 -0.299805 8 -3 8 -8v-19l-2 -2c-4 0.200195 -7.90039 0.400391 -11.7002 0.5c-73.5996 -6.7998 -123.3 -77 -123.3 -125.5
c0 -32 22 -59 58 -59c30 0 51 15 70 36l15 -8c-24 -47 -74 -67 -110 -67z" />
    <glyph glyph-name="iogonek" unicode="&#x12f;" horiz-adv-x="279" 
d="M127 -224c-54 0 -92.999 30.999 -92.999 84.999c0 47.5 39.5 105.6 99.7002 139c-31.7998 -0.200195 -99.7002 -2 -99.7002 -2l-2 2v21c0 4 3 5.59961 7 6l20 2c33.5 3.2998 43 19 43 38v333c0 22 -12.2002 27.9004 -43 31l-20 2c-4 0.400391 -7 1 -7 4v23l1 2
s79 -2 110 -2c27 0 104 2 104 2l1 -2v-22c0 -3 -2 -4.59961 -6 -5l-21 -2c-30.7998 -2.90039 -42 -11 -42 -31v-333c0 -22 10.5 -35 42 -38l21 -2c3 -0.299805 6 -2 6 -6v-21l-1 -2s-15.4004 0.5 -35.2002 0.900391c-71.4004 -9.59961 -117.801 -77.5996 -117.801 -124.899
c0 -32 22 -59 58 -59c30 0 50 15 69 36l16 -8c-24 -47 -75 -67 -110 -67z" />
    <glyph glyph-name="Idotaccent" unicode="&#x130;" horiz-adv-x="293" 
d="M98 750c0 27 21 48 48 48c26 0 48 -21 48 -48c0 -26 -22 -47 -48 -47c-27 0 -48 21 -48 47zM187 574v-503c0 -30 15.2998 -38.9004 55 -42l26 -2c4 -0.299805 8 -3 8 -8v-19l-2 -2c-47.5 2 -77.5 2 -127 2s-78 0 -127 -2l-2 2v19c0 5 3 7.7002 7 8l27 2
c41.5996 3.09961 54 14 54 42v503c0 30 -14.7002 39.0996 -54 42l-27 2c-4 0.299805 -8 3 -8 8v19l2 2c50 -1 77.5 -2 127 -2c49.9004 0 79 1 128 2l2 -2v-19c0 -5 -3 -7.59961 -8 -8l-26 -2c-39.7998 -3.09961 -55 -14 -55 -42z" />
    <glyph glyph-name="dotlessi" unicode="&#x131;" horiz-adv-x="279" 
d="M179 400v-333c0 -22 10.5 -35 42 -38l21 -2c3 -0.299805 6 -2 6 -6v-21l-1 -2s-76 2 -107 2c-28 0 -106 -2 -106 -2l-2 2v21c0 4 3 5.59961 7 6l20 2c33.5 3.2998 43 19 43 38v333c0 22 -12.2002 27.9004 -43 31l-20 2c-4 0.400391 -7 1 -7 4v23l1 2s79 -2 110 -2
c27 0 104 2 104 2l1 -2v-22c0 -3 -2 -4.59961 -6 -5l-21 -2c-30.7998 -2.90039 -42 -11 -42 -31zM89 597c0 27 21 48 48 48c26 0 48 -21 48 -48c0 -26 -22 -47 -48 -47c-27 0 -48 21 -48 47z" />
    <glyph glyph-name="IJ" unicode="&#x132;" horiz-adv-x="588" 
d="M332 -133c33 0 84 28 84 208v484c0 48.5 -19.7998 55.4004 -71 58l-20 1c-5 0.200195 -9 3 -9 8v19l2 2s98 -2 137 -2c35 0 119 2 119 2l2 -2v-19c0 -5 -3 -7.7002 -8 -8l-17 -1c-40.7998 -2.40039 -54 -15 -54 -43v-477c0 -128 -47 -190 -105 -236
c-45 -38 -89 -39 -114 -39c-22 0 -64 18 -64 54c0 22 24 36 38 36c31 0 42.2998 -13.7998 52 -27c7.2998 -10 14 -18 28 -18zM187 574v-503c0 -30 15.2998 -38.9004 55 -42l26 -2c4 -0.299805 8 -3 8 -8v-19l-2 -2c-47.5 2 -77.5 2 -127 2s-78 0 -127 -2l-2 2v19
c0 5 3 7.7002 7 8l27 2c41.5996 3.09961 54 14 54 42v503c0 30 -14.7002 39.0996 -54 42l-27 2c-4 0.299805 -8 3 -8 8v19l2 2c50 -1 77.5 -2 127 -2c49.9004 0 79 1 128 2l2 -2v-19c0 -5 -3 -7.59961 -8 -8l-26 -2c-39.7998 -3.09961 -55 -14 -55 -42z" />
    <glyph glyph-name="ij" unicode="&#x133;" horiz-adv-x="540" 
d="M178 400v-333c0 -22 10 -35 42 -38l21 -2c3 0 6 -2 6 -6v-21l-1 -2s-76 2 -107 2c-28 0 -106 -2 -106 -2l-2 2v21c0 4 3 6 7 6l20 2c33 3.2998 43 19 43 38v333c0 22 -12 28.9004 -43 32l-20 2c-4 0 -7 1 -7 4v22l1 2s79 -2 110 -2c27 0 104 2 104 2l1 -2v-21
c0 -3 -2 -5 -6 -5l-21 -2c-31 -3 -42 -12 -42 -32zM452 96c0 -126 -44 -192 -98 -235c-42 -35 -83 -36 -106 -36c-21 0 -60 17 -60 50c0 21 23 34 36 34c28 0 39 -13 48 -25c7 -10 13 -17 26 -17c31 0 76 28 76 208v326c0 22 -12 28.7998 -43 31l-28 2c-3 0 -6 2 -6 5v21
l1 2s86 -2 116 -2c28 0 98 2 98 2l2 -2v-21c0 -3 -3 -4 -7 -5l-13 -2c-31 -5 -42 -11 -42 -31v-305z" />
    <glyph glyph-name="Jcircumflex" unicode="&#x134;" horiz-adv-x="315" 
d="M199 805c30 -36 65 -67 101 -94l-16 -21c-39 18 -73 37 -106 62c-37 -27 -69 -45 -107 -62l-14 21c37 28 68 60 99 94h43zM59 -133c33 0 84 28 84 208v484c0 48.5 -19.7998 55.4004 -71 58l-20 1c-5 0.200195 -9 3 -9 8v19l2 2s98 -2 137 -2c35 0 119 2 119 2l2 -2v-19
c0 -5 -3 -7.7002 -8 -8l-17 -1c-40.7998 -2.40039 -54 -15 -54 -43v-477c0 -128 -47 -190 -105 -236c-45 -38 -89 -39 -114 -39c-22 0 -64 18 -64 54c0 22 24 36 38 36c31 0 42.2998 -13.7998 52 -27c7.2998 -10 14 -18 28 -18z" />
    <glyph glyph-name="jcircumflex" unicode="&#x135;" horiz-adv-x="301" 
d="M183 652c29 -47 65 -89 101 -129l-21 -14c-39 29 -72 54 -106 90c-37 -38 -69 -63 -107 -90l-20 14c36 40 74 83 103 129h50zM207 96c0 -126 -33 -192 -87 -235c-42 -35 -83 -36 -106 -36c-21 0 -60 17 -60 50c0 21 23 34 36 34c28 0 39 -13 48 -25c7 -10 13 -17 26 -17
c31 0 66 28 66 208v326c0 22 -11.5996 27.7998 -43 30l-28 2c-3 0.200195 -6 2 -6 5v22l1 2s86 -2 116 -2c28 0 98 2 98 2l2 -2v-22c0 -3 -3 -4.40039 -7 -5l-13 -2c-30.9004 -4.7998 -43 -10 -43 -30v-305z" />
    <glyph glyph-name="Kcommaaccent" unicode="&#x136;" horiz-adv-x="637" 
d="M187 309v-237.999c0 -30 15.2998 -38.9004 55 -42l26 -2c4 -0.299805 8 -3 8 -8v-19l-2 -2c-47.5 2 -77.5 2 -127 2s-78 0 -127 -2l-2 2v19c0 5 3 7.7002 7 8l27 2c41.5996 3.09961 54 14 54 42v503c0 30 -14.7002 39.0996 -54 42l-27 2c-4 0.299805 -8 3 -8 8v19l2 2
c50 -1 77.5 -2 127 -2c49.9004 0 79 1 128 2l2 -2v-19c0 -5 -3 -7.59961 -8 -8l-26 -2c-39.7998 -3.09961 -55 -14 -55 -42v-226.9c37.4004 2.2002 59.2002 17.1006 80 38.9004l168 176c28 31.0996 34.2002 50.3994 -4 53.999l-21 2c-4 0.400391 -8 3 -8 8v19l2 2
s76 -2 116 -2c35 0 96 2 96 2l5 -2v-19c0 -5 -5 -8 -11 -8c-40 -5 -79 -11 -125 -60l-140 -151c-32.7002 -35.2998 -37 -42 -37 -49c0 -8 3 -15 12 -25l219 -260c25 -31 49.2002 -40.9004 78 -45l7 -1c4 -0.599609 9 -3 9 -8v-19l-3 -2s-75 2 -114 2c-36 0 -60 -2 -60 -2
l-2 2v6c0 18 0 42 -20 67l-163 198c-20.7998 26.7002 -48.5 37.7998 -84 38zM355 -29.999c39 0 62 -37 62 -72c0 -26 -17 -102 -107 -106l-4 17c76 15 79 73 79 79c0 4 -1 7 -2 10c-11 -6 -21 -9 -29 -9c-41 0 -50 25 -50 41s15 40 51 40z" />
    <glyph glyph-name="kcommaaccent" unicode="&#x137;" horiz-adv-x="523" 
d="M179 215v-148c0 -22 13.2998 -32.7998 42 -38l11 -2c3 -0.5 6 -2 6 -6v-21l-1 -2s-63 2 -93 2c-28 0 -110 -2 -110 -2l-2 2v21c0 4 3 5.59961 7 6l20 2c30.5 3 43 19 43 38v333c0 22 -11.2002 27.7998 -43 31l-20 2c-4 0.400391 -7 1 -7 4v23l1 2s82 -2 113 -2
c28 0 91 2 91 2l1 -2v-22c0 -3 -2.09961 -4.2998 -6 -5l-11 -2c-30.5996 -5.59961 -42 -11 -42 -31v-151c33 0 52 17 96 64c40 44 71 81 71 100c0 8 -9.2002 17 -29 20c-4 0.599609 -6 2 -6 5v23l1 1s81 -2 110 -2c26 0 70 2 70 2l3 -1v-23c0 -2.7998 -3 -4.59961 -8 -5
c-39 -3.09961 -66.2002 -4.7998 -102 -46l-86 -99c-17 -18 -23 -29 -23 -37c0 -6 4 -11 9 -17l151 -182c11.9004 -14.4004 36 -20 56 -24l5 -1c2.90039 -0.599609 7 -3 7 -6v-21l-3 -1s-53 1 -81 1c-25 0 -61 -1 -61 -1l-1 1v12c0 13 -1 24 -15 40l-111 138
c-15 20 -31 25 -53 25zM283 -40c39 0 62 -37 62 -72c0 -26 -17 -102 -107 -106l-4 17c76 15 79 73 79 79c0 4 -1 7 -2 10c-11 -6 -21 -9 -29 -9c-41 0 -50 25 -50 41s15 40 51 40z" />
    <glyph glyph-name="kgreenlandic" unicode="&#x138;" horiz-adv-x="523" 
d="M179 215v-148c0 -22 13 -32.7002 42 -38l11 -2c3 -1 6 -2 6 -6v-21l-1 -2s-63 2 -93 2c-28 0 -110 -2 -110 -2l-2 2v21c0 4 3 6 7 6l20 2c30 3 43 19 43 38v333c0 22 -11 28.7998 -43 32l-20 2c-4 0 -7 1 -7 4v22l1 2s82 -2 113 -2c28 0 91 2 91 2l1 -2v-21
c0 -3 -2 -4 -6 -5l-11 -2c-31 -6 -42 -12 -42 -32v-151c33 0 52 17 96 64c40 44 71 81 71 100c0 8 -9 18 -29 21c-4 1 -6 2 -6 5v22l1 1s81 -2 110 -2c26 0 70 2 70 2l3 -1v-22c0 -3 -3 -5 -8 -5c-39 -3 -66 -6 -102 -47l-86 -99c-17 -18 -23 -29 -23 -37c0 -6 4 -11 9 -17
l151 -182c12 -14 36 -20 56 -24l5 -1c3 -1 7 -3 7 -6v-21l-3 -1s-53 1 -81 1c-25 0 -61 -1 -61 -1l-1 1v12c0 13 -1 24 -15 40l-111 138c-15 20 -31 25 -53 25z" />
    <glyph glyph-name="Lacute" unicode="&#x139;" horiz-adv-x="526" 
d="M192 819l62 -52l-144 -58c-21 -9 -34 -12 -43 -12s-14 5 -14 15c0 7 2 12 15 21zM349 39c76 0 106 59 126 131l30 -5c-11 -52 -22 -111 -26 -167c0 0 -92.2998 2 -119.3 2h-212.7c-27 0 -128 -2 -128 -2l-2 2v19c0 5 4 7.7002 8 8l30 2c40.2998 2.7002 51 8 51 43v502
c0 30 -16.2002 39.2002 -54 42l-27 2c-4 0.299805 -8 3 -8 8v19l2 2s87 -2 126 -2c36 0 129 2 129 2l2 -2v-19c0 -5 -3 -7.59961 -8 -8l-26 -2c-40.7002 -3.09961 -55 -14 -55 -42v-485c0 -31 18 -50 47 -50h115z" />
    <glyph glyph-name="lacute" unicode="&#x13a;" horiz-adv-x="430" 
d="M277 34c61 0 81 40 97 91l25 -3c-12 -49 -19 -90 -21 -122h-245c-10 0 -20 -1 -100 -2l-1 2v21c0 4 3 6 6 6l23 2c32 3 41 8 41 33v338c0 22 -12 28.9004 -43 32l-20 2c-4 0 -7 2 -7 6v20l1 2s79 -2 110 -2c27 0 104 2 104 2l1 -2v-20c0 -4 -2 -6 -6 -6l-21 -2
c-32 -3 -42 -12 -42 -32v-341c0 -19 10 -25 28 -25h70zM208 670c3 1 9 2 14 2c28 0 41 -11 49 -18c2 -2 4 -4 6 -5l3 -11l-115 -109c-15 -15 -22 -20 -29 -20s-14 6 -14 12s0 13 6 23z" />
    <glyph glyph-name="Lcommaaccent" unicode="&#x13b;" horiz-adv-x="526" 
d="M267 -34c39 0 62 -37 62 -72c0 -26 -17 -102 -107 -106l-4 17c76 15 79 73 79 79c0 4 -1 7 -2 10c-11 -6 -21 -9 -29 -9c-41 0 -50 25 -50 41s15 40 51 40zM349 39c76 0 106 59 126 131l30 -5c-11 -52 -22 -111 -26 -167c0 0 -92.2998 2 -119.3 2h-212.7
c-27 0 -128 -2 -128 -2l-2 2v19c0 5 4 7.7002 8 8l30 2c40.2998 2.7002 51 8 51 43v502c0 30 -16.2002 39.2002 -54 42l-27 2c-4 0.299805 -8 3 -8 8v19l2 2s87 -2 126 -2c36 0 129 2 129 2l2 -2v-19c0 -5 -3 -7.59961 -8 -8l-26 -2c-40.7002 -3.09961 -55 -14 -55 -42v-485
c0 -31 18 -50 47 -50h115z" />
    <glyph glyph-name="lcommaaccent" unicode="&#x13c;" horiz-adv-x="420" 
d="M277 34c61 0 81 40 97 91l25 -3c-12 -49 -19 -90 -21 -122h-245c-10 0 -20 -1 -100 -2l-1 2v21c0 4 3 5.7002 6 6l23 2c31.5996 2.7002 41 8 41 33v338c0 22 -12.2002 27.9004 -43 31l-20 2c-4 0.400391 -7 2 -7 6v21l1 2s79 -2 110 -2c27 0 104 2 104 2l1 -2v-21
c0 -4 -2 -5.59961 -6 -6l-21 -2c-31.7998 -3 -42 -11 -42 -31v-341c0 -19 10 -25 28 -25h70zM201 -41c39 0 62 -37 62 -72c0 -26 -17 -102 -107 -106l-4 17c76 15 79 73 79 79c0 4 -1 7 -2 10c-11 -6 -21 -9 -29 -9c-41 0 -50 25 -50 41s15 40 51 40z" />
    <glyph glyph-name="Lcaron" unicode="&#x13d;" horiz-adv-x="526" 
d="M400 698c38 0 60 -37 60 -73c0 -26 -15 -101 -106 -106l-4 17c42 9 60 46 60 69c0 10 -4 18 -11 18c-41 0 -46 25 -46 41s11 34 47 34zM349 39c76 0 106 59 126 131l30 -5c-11 -52 -22 -111 -26 -167c0 0 -92.2998 2 -119.3 2h-212.7c-27 0 -128 -2 -128 -2l-2 2v19
c0 5 4 7.7002 8 8l30 2c40.2998 2.7002 51 8 51 43v502c0 30 -16.2002 39.2002 -54 42l-27 2c-4 0.299805 -8 3 -8 8v19l2 2s87 -2 126 -2c36 0 129 2 129 2l2 -2v-19c0 -5 -3 -7.59961 -8 -8l-26 -2c-40.7002 -3.09961 -55 -14 -55 -42v-485c0 -31 18 -50 47 -50h115z" />
    <glyph glyph-name="lcaron" unicode="&#x13e;" horiz-adv-x="430" 
d="M277 34c61 0 81 40 97 91l25 -3c-12 -49 -19 -90 -21 -122h-245c-10 0 -20 -1 -100 -2l-1 2v21c0 4 3 6 6 6l23 2c32 3 41 8 41 33v338c0 22 -12 28.9004 -43 32l-20 2c-4 0 -7 2 -7 6v20l1 2s79 -2 110 -2c27 0 104 2 104 2l1 -2v-20c0 -4 -2 -6 -6 -6l-21 -2
c-32 -3 -42 -12 -42 -32v-341c0 -19 10 -25 28 -25h70zM339 550c38 0 60 -37 60 -73c0 -26 -15 -101 -106 -106l-4 17c42 9 60 46 60 69c0 10 -4 18 -11 18c-41 0 -46 25 -46 41s11 34 47 34z" />
    <glyph glyph-name="Ldot" unicode="&#x13f;" horiz-adv-x="526" 
d="M341 282c-33 0 -54 26 -54 54s25 55 54 55c27 0 54 -25 54 -55c0 -29 -23 -54 -54 -54zM349 39c76 0 106 59 126 131l30 -5c-11 -52 -22 -111 -26 -167c0 0 -92.2998 2 -119.3 2h-212.7c-27 0 -128 -2 -128 -2l-2 2v19c0 5 4 7.7002 8 8l30 2c40.2998 2.7002 51 8 51 43
v502c0 30 -16.2002 39.2002 -54 42l-27 2c-4 0.299805 -8 3 -8 8v19l2 2s87 -2 126 -2c36 0 129 2 129 2l2 -2v-19c0 -5 -3 -7.59961 -8 -8l-26 -2c-40.7002 -3.09961 -55 -14 -55 -42v-485c0 -31 18 -50 47 -50h115z" />
    <glyph glyph-name="ldot" unicode="&#x140;" horiz-adv-x="420" 
d="M277 34c61 0 81 40 97 91l25 -3c-12 -49 -19 -90 -21 -122h-245c-10 0 -20 -1 -100 -2l-1 2v21c0 4 3 5.7002 6 6l23 2c31.5996 2.7002 41 8 41 33v338c0 22 -12.2002 27.9004 -43 31l-20 2c-4 0.400391 -7 2 -7 6v21l1 2s79 -2 110 -2c27 0 104 2 104 2l1 -2v-21
c0 -4 -2 -5.59961 -6 -6l-21 -2c-31.7998 -3 -42 -11 -42 -31v-341c0 -19 10 -25 28 -25h70zM287 305c0 25 21 48 47 48c24 0 48 -21 48 -48c0 -25 -21 -47 -48 -47c-29 0 -47 23 -47 47z" />
    <glyph glyph-name="Lslash" unicode="&#x141;" horiz-adv-x="526" 
d="M310 449l18 -30l-141 -80.9004v-249.1c0 -31 18 -50 47 -50h115c76 0 106 59 126 131l30 -5c-11 -52 -22 -111 -26 -167c0 0 -92.2998 2 -119.3 2h-212.7c-27 0 -128 -2 -128 -2l-2 2v19c0 5 4 7.7002 8 8l30 2c40.2998 2.7002 51 8 51 43v219.6l-83 -47.5996l-18 31
l101 57.5996v241.4c0 30 -16.2002 39.2002 -54 42l-27 2c-4 0.299805 -8 3 -8 8v19l2 2s87 -2 126 -2c36 0 129 2 129 2l2 -2v-19c0 -5 -3 -7.59961 -8 -8l-26 -2c-40.7002 -3.09961 -55 -14 -55 -42v-195.2z" />
    <glyph glyph-name="lslash" unicode="&#x142;" horiz-adv-x="420" 
d="M277 34c61 0 81 40 97 91l25 -3c-12 -49 -19 -90 -21 -122h-245c-10 0 -20 -1 -100 -2l-1 2v21c0 4 3 6 6 6l23 2c32 3 41 8 41 33v147.7l-78 -45.7002l-17 30l95 55.7002v150.3c0 22 -12 28.9004 -43 32l-20 2c-4 0 -7 2 -7 6v20l1 2s79 -2 110 -2c27 0 104 2 104 2
l1 -2v-20c0 -4 -2 -6 -6 -6l-21 -2c-32 -3 -42 -12 -42 -32v-105.1l65 38.0996l17 -30l-82 -48.0996v-195.9c0 -19 10 -25 28 -25h70z" />
    <glyph glyph-name="Nacute" unicode="&#x143;" horiz-adv-x="695" 
d="M383 820l62 -52l-144 -58c-21 -9 -34 -12 -43 -12s-14 5 -14 15c0 7 2 12 15 21zM603 557v-536c0 -19 -7 -31 -21 -31c-16 0 -29 9 -40 24l-349 441c-17 22 -28 33 -34 33c-8 0 -10 -15 -10 -49v-351c0 -30 15.4004 -56 55 -59l26 -2c4 -0.299805 8 -3 8 -8v-19l-2 -2
s-71 2 -111 2c-35 0 -112 -2 -112 -2l-2 2v18c0 5 3 8.2002 13 9l26 2c40.7998 3.09961 54 32 54 59v462c-6 26 -36 65 -68 68c-8 0.700195 -17 3 -17 8v19l3 2h136l343 -444c28.7002 -37.2002 42 -55 50 -55c7 0 7 11 7 30v379c0 27 -12.2002 55.7998 -54 59l-26 2
c-5 0.400391 -14 3 -14 8v19l4 2s75 -2 111 -2c39 0 111 2 111 2l2 -2v-19c0 -5 -4 -7.7002 -8 -8l-27 -2c-38.9004 -2.90039 -54 -29 -54 -59z" />
    <glyph glyph-name="nacute" unicode="&#x144;" horiz-adv-x="571" 
d="M480 388v-373c0 -20 -8 -27 -20 -27c-15 0 -24 6 -39 22l-235 313c-13 16 -22 24 -27 24c-6 0 -10 -12 -10 -35v-241c0 -22 15 -39 45 -42l20 -2c4 0 7 -2 7 -6v-21l-1 -2s-61 2 -92 2c-27 0 -93 -2 -93 -2l-3 2v21c0 4 6 6 10 6l20 2c34 3 43 23 43 42v326
c-10 18 -23 34 -61 37c-3 0 -9 2 -9 6v19l2 3l135 -2l229 -311c14 -16 23 -24 28 -24c6 0 7 9 7 26v237c0 20 -14 41 -44 44l-21 2c-4 0 -10 2 -10 5v21l2 2s68 -2 95 -2c31 0 89 2 89 2l3 -1v-22c0 -3 -3 -5 -7 -5l-20 -2c-32 -3.2002 -43 -22 -43 -44zM378 671
c3 1 9 2 14 2c28 0 41 -11 49 -18c2 -2 4 -4 6 -5l3 -11l-115 -109c-15 -15 -22 -20 -29 -20s-14 6 -14 12s0 13 6 23z" />
    <glyph glyph-name="Ncommaaccent" unicode="&#x145;" horiz-adv-x="695" 
d="M358 -29c39 0 62 -37 62 -72c0 -26 -17 -102 -107 -106l-4 17c76 15 79 73 79 79c0 4 -1 7 -2 10c-11 -6 -21 -9 -29 -9c-41 0 -50 25 -50 41s15 40 51 40zM603 557v-536c0 -19 -7 -31 -21 -31c-16 0 -29 9 -40 24l-349 441c-17 22 -28 33 -34 33c-8 0 -10 -15 -10 -49
v-351c0 -30 15.4004 -56 55 -59l26 -2c4 -0.299805 8 -3 8 -8v-19l-2 -2s-71 2 -111 2c-35 0 -112 -2 -112 -2l-2 2v18c0 5 3 8.2002 13 9l26 2c40.7998 3.09961 54 32 54 59v462c-6 26 -36 65 -68 68c-8 0.700195 -17 3 -17 8v19l3 2h136l343 -444
c28.7002 -37.2002 42 -55 50 -55c7 0 7 11 7 30v379c0 27 -12.2002 55.7998 -54 59l-26 2c-5 0.400391 -14 3 -14 8v19l4 2s75 -2 111 -2c39 0 111 2 111 2l2 -2v-19c0 -5 -4 -7.7002 -8 -8l-27 -2c-38.9004 -2.90039 -54 -29 -54 -59z" />
    <glyph glyph-name="ncommaaccent" unicode="&#x146;" horiz-adv-x="571" 
d="M480 388v-373c0 -20 -8 -27 -20 -27c-15 0 -24 6 -39 22l-235 313c-13 16 -22 24 -27 24c-6 0 -10 -12 -10 -35v-241c0 -22 14.5 -39 45 -42l20 -2c4 -0.400391 7 -2 7 -6v-21l-1 -2s-61 2 -92 2c-27 0 -93 -2 -93 -2l-3 2v21c0 4 6 5.59961 10 6l20 2
c34.5 3.40039 43 23 43 42v326c-10 18 -22.7002 33 -61 36c-3 0.200195 -9 2 -9 6v20l2 3l135 -2l229 -311c14 -16 23 -24 28 -24c6 0 7 9 7 26v237c0 20 -14.2002 40.2002 -44 43l-21 2c-4 0.400391 -10 2 -10 5v22l2 2s68 -2 95 -2c31 0 89 2 89 2l3 -1v-23
c0 -3 -3 -4.59961 -7 -5l-20 -2c-31.7998 -3.2002 -43 -21 -43 -43zM306 -32c39 0 62 -37 62 -72c0 -26 -17 -102 -107 -106l-4 17c76 15 79 73 79 79c0 4 -1 7 -2 10c-11 -6 -21 -9 -29 -9c-41 0 -50 25 -50 41s15 40 51 40z" />
    <glyph glyph-name="Ncaron" unicode="&#x147;" horiz-adv-x="695" 
d="M331 697c-30 37 -65 67 -101 95l16 20c39 -17 73 -36 106 -61c37 26 69 45 107 61l15 -20c-38 -29 -70 -61 -100 -95h-43zM603 557v-536c0 -19 -7 -31 -21 -31c-16 0 -29 9 -40 24l-349 441c-17 22 -28 33 -34 33c-8 0 -10 -15 -10 -49v-351c0 -30 15.4004 -56 55 -59
l26 -2c4 -0.299805 8 -3 8 -8v-19l-2 -2s-71 2 -111 2c-35 0 -112 -2 -112 -2l-2 2v18c0 5 3 8.2002 13 9l26 2c40.7998 3.09961 54 32 54 59v462c-6 26 -36 65 -68 68c-8 0.700195 -17 3 -17 8v19l3 2h136l343 -444c28.7002 -37.2002 42 -55 50 -55c7 0 7 11 7 30v379
c0 27 -12.2002 55.7998 -54 59l-26 2c-5 0.400391 -14 3 -14 8v19l4 2s75 -2 111 -2c39 0 111 2 111 2l2 -2v-19c0 -5 -4 -7.7002 -8 -8l-27 -2c-38.9004 -2.90039 -54 -29 -54 -59z" />
    <glyph glyph-name="ncaron" unicode="&#x148;" horiz-adv-x="571" 
d="M480 388v-373c0 -20 -8 -27 -20 -27c-15 0 -24 6 -39 22l-235 313c-13 16 -22 24 -27 24c-6 0 -10 -12 -10 -35v-241c0 -22 15 -39 45 -42l20 -2c4 0 7 -2 7 -6v-21l-1 -2s-61 2 -92 2c-27 0 -93 -2 -93 -2l-3 2v21c0 4 6 6 10 6l20 2c34 3 43 23 43 42v326
c-10 18 -23 34 -61 37c-3 0 -9 2 -9 6v19l2 3l135 -2l229 -311c14 -16 23 -24 28 -24c6 0 7 9 7 26v237c0 20 -14 41 -44 44l-21 2c-4 0 -10 2 -10 5v21l2 2s68 -2 95 -2c31 0 89 2 89 2l3 -1v-22c0 -3 -3 -5 -7 -5l-20 -2c-32 -3.2002 -43 -22 -43 -44zM281 509
c-29 47 -66 92 -101 130l20 13c39 -29 72 -54 106 -90c37 38 71 63 108 90l19 -13c-35 -39 -73 -84 -102 -130h-50z" />
    <glyph glyph-name="napostrophe" unicode="&#x149;" horiz-adv-x="677" 
d="M52 662c38 0 60 -37 60 -73c0 -26 -15 -101 -106 -106l-4 17c42 9 60 46 60 69c0 10 -4 18 -11 18c-41 0 -46 25 -46 41s11 34 47 34zM544 388v-373c0 -20 -8 -27 -20 -27c-15 0 -24 6 -39 22l-235 313c-13 16 -22 24 -27 24c-6 0 -10 -12 -10 -35v-241
c0 -22 14.5 -39 45 -42l20 -2c4 -0.400391 7 -2 7 -6v-21l-1 -2s-61 2 -92 2c-27 0 -93 -2 -93 -2l-3 2v21c0 4 6 5.59961 10 6l20 2c34.5 3.40039 43 23 43 42v326c-10 18 -22.7002 33 -61 36c-3 0.200195 -9 2 -9 6v20l2 3l135 -2l229 -311c14 -16 23 -24 28 -24
c6 0 7 9 7 26v237c0 20 -14.2002 40.2002 -44 43l-21 2c-4 0.400391 -10 2 -10 5v22l2 2s68 -2 95 -2c31 0 89 2 89 2l3 -1v-23c0 -3 -3 -4.59961 -7 -5l-20 -2c-31.7998 -3.2002 -43 -21 -43 -43z" />
    <glyph glyph-name="Eng" unicode="&#x14a;" horiz-adv-x="695" 
d="M522 39l-329 416c-17 22 -28 33 -34 33c-8 0 -10 -15 -10 -49v-351c0 -30 15 -61 55 -61h26c4 0 8 -3 8 -8v-19l-2 -1s-71 2 -111 2c-35 0 -107 -2 -107 -2l-7 1v19c0 5 8 8 13 8h26c41 0 54 34 54 61v462c-6 26 -35 68 -68 68h-5c-5 0 -12 3 -12 8v16l2 5h131
s219 -266 349 -442c28 -37 44 -65 52 -65c4 0 6 4 6 15l-1 23v379c0 27 -13 61 -54 61h-26c-5 0 -14 3 -14 8v19l8 2s71 -3 107 -3c39 0 111 3 111 3l2 -2v-19c0 -5 -4 -8 -8 -8h-27c-39 0 -54 -31 -54 -61v-470v-1c-1 -116 -17 -181 -74 -241c-26 -26 -59 -43 -89 -43
c-33 0 -104 13 -104 66c0 25 17 30 32 30c28 0 35 -27 38 -39s6 -26 34 -26c47 0 79 47 82 206z" />
    <glyph glyph-name="eng" unicode="&#x14b;" horiz-adv-x="598" 
d="M440 8.2002l-257.001 316.8c-13 16 -21 24 -26 24c-7 0 -8 -11 -8 -35v-242c0 -22 11.5 -40.0996 42 -43l21 -2c3 0 7 -2 7 -6v-21l-2 -2s-62 2 -92 2c-28 0 -92 -2 -92 -2l-4 2v21c0 4 7 6 11 6l20 2c31.7998 3.2002 43 24 43 43v322c-5 18 -28.4004 31.5996 -54 38
l-4 1c-4 1 -9 2 -9 5v22l2 2h125l258 -316c15 -17 25 -29 28 -29s5 0 5 8v256c0 23 -11.0996 46.7998 -43 50l-20 2c-4 0 -11 2 -11 5v22l6 2s63 -2 91 -2c30 0 91 2 91 2l1 -1v-22c0 -3 -3 -6 -6 -6l-21 -2c-29.9004 -2.7998 -42 -25 -42 -50v-284v-1
c0 -126 -33 -192 -87 -235c-42 -35 -83 -36 -106 -36c-21 0 -60 17 -60 50c0 21 23 34 36 34c28 0 39 -13 48 -25c7 -10 13 -17 26 -17c26.7002 0 71.1006 20.7002 83.001 141.2z" />
    <glyph glyph-name="Omacron" unicode="&#x14c;" horiz-adv-x="698" 
d="M468 733h-244c-9 0 -13 8 -13 15c0 12 11 29 22 29h245c10 0 14 -8 14 -14c0 -12 -11 -30 -24 -30zM662 329c0 -200 -123 -339 -314 -339c-172 0 -311 123 -311 320c0 196 131 348 310 348c180 0 315 -131 315 -329zM334 624c-96 0 -205 -87 -205 -297
c0 -192 119 -303 239 -303c114 0 202 107 202 286c0 208 -95 314 -236 314z" />
    <glyph glyph-name="omacron" unicode="&#x14d;" horiz-adv-x="563" 
d="M527 235c0 -130 -88 -245 -252 -245c-135 0 -238 96 -238 232c0 147 107 248 246 248c130 0 244 -93 244 -235zM274 437c-75 0 -150 -68 -150 -203c0 -123 69 -211 166 -211c89 0 150 75 150 198c0 134 -77 216 -166 216zM397 509h-244c-9 0 -13 8 -13 15
c0 12 11 29 22 29h245c10 0 14 -8 14 -14c0 -12 -11 -30 -24 -30z" />
    <glyph glyph-name="Obreve" unicode="&#x14e;" horiz-adv-x="698" 
d="M489 805c-6 -71 -69 -113 -135 -113c-73 0 -131 43 -136 113h28c8 -39 55 -61 108 -61c49 0 101 22 108 61h27zM662 329c0 -200 -123 -339 -314 -339c-172 0 -311 123 -311 320c0 196 131 348 310 348c180 0 315 -131 315 -329zM334 624c-96 0 -205 -87 -205 -297
c0 -192 119 -303 239 -303c114 0 202 107 202 286c0 208 -95 314 -236 314z" />
    <glyph glyph-name="obreve" unicode="&#x14f;" horiz-adv-x="563" 
d="M527 235c0 -130 -88 -245 -252 -245c-135 0 -238 96 -238 232c0 147 107 248 246 248c130 0 244 -93 244 -235zM274 437c-75 0 -150 -68 -150 -203c0 -123 69 -211 166 -211c89 0 150 75 150 198c0 134 -77 216 -166 216zM172 658c2 -52 49 -92 109 -92
c46 0 106 30 108 92l27 -14c-10 -101 -85 -135 -135 -135c-77 0 -128 57 -135 135z" />
    <glyph glyph-name="Ohungarumlaut" unicode="&#x150;" horiz-adv-x="698" 
d="M357 826c10 -7 15 -18 15 -29c0 -8 -2 -15 -7 -19l-94 -86c-3 -1 -6 -2 -8 -2c-3 0 -6 2 -8 3c-4 3 -6 7 -6 11c0 1 0 3 1 4l57 115c5 8 12 12 27 12c9 0 18 -5 23 -9zM490 820c9 -7 13 -18 13 -28c0 -9 -3 -16 -7 -20l-99 -84c-2 -2 -4 -2 -7 -2c-5 0 -14 5 -14 13
c0 2 0 4 1 5l62 114c5 8 12 12 23 12c8 0 17 -1 28 -10zM662 329c0 -200 -123 -339 -314 -339c-172 0 -311 123 -311 320c0 196 131 348 310 348c180 0 315 -131 315 -329zM334 624c-96 0 -205 -87 -205 -297c0 -192 119 -303 239 -303c114 0 202 107 202 286
c0 208 -95 314 -236 314z" />
    <glyph glyph-name="ohungarumlaut" unicode="&#x151;" horiz-adv-x="555" 
d="M519 235c0 -130 -84 -247 -248 -247c-135 0 -234 98 -234 234c0 147 103 252 242 252c130 0 240 -97 240 -239zM270 439c-75 0 -150 -70 -150 -205c0 -123 69 -212 166 -212c89 0 150 76 150 199c0 134 -77 218 -166 218zM286 679c11 -7 17 -18 17 -30
c0 -5 -1 -11 -5 -16l-102 -121c-2 -2 -5 -3 -8 -3c-6 0 -14 5 -14 13c0 1 0 2 1 3l64 146c6 13 22 14 26 14c8 0 14 -2 21 -6zM421 671c9 -7 14 -18 14 -28c0 -6 -1 -13 -7 -19l-114 -110c-2 -2 -4 -2 -6 -2c-5 0 -14 5 -14 13c0 1 0 3 1 4l78 139c5 9 12 12 24 12
c9 0 17 -3 24 -9z" />
    <glyph glyph-name="OE" unicode="&#x152;" horiz-adv-x="849" 
d="M338 -2c-188 1 -296 140 -296 320s99 328 285 328c0 0 69 -1 114 -1h78h257l14 -139l-27 -3c-7 43 -41 102 -93 102h-153c-24 0 -36 -8 -36 -32v-207h105c36 0 44 16 51 44l7 30c0 4 3 8 7 8h22c2 0 3 -2 3 -4c-2 -32 -8 -62 -8 -95c0 -35 5 -64 8 -96l-2 -3h-23
c-5 0 -8 3 -8 7l-6 31c-6 28 -17 44 -51 44h-105v-260c0 -27 14 -33 36 -33h157c65 0 94 53 109 126l27 -5l-26 -160h-344c-39 0 -102 -2 -102 -2zM336 32h13c40 0 51 12 51 40v502c0 31 -13 37 -51 37h-35c-97 0 -181 -70 -181 -284c0 -207 100 -295 203 -295z" />
    <glyph glyph-name="oe" unicode="&#x153;" horiz-adv-x="679" 
d="M530 426h-101c-19 0 -31 -6 -31 -23v-151h80c27 0 34 12 39 32l5 21c1 3 3 6 6 6h17c2 0 3 -1 3 -3c-2 -23 -6 -51 -6 -75c0 -25 3 -45 6 -69l-2 -2h-18c-4 0 -6 3 -7 5l-4 22c-4 20 -13 31 -39 31h-80v-162c0 -19 14 -24 31 -24h112c51 0 74 32 86 84l25 -3l-20 -115
l-2 -2s-59 2 -89 2h-176c-38 0 -80 -2 -98 -2c-135 0 -238 84 -238 224s96 240 237 240c4 0 59 -2 96 -2h169c30 0 101 2 101 2l2 -2c1 -43 8 -82 15 -120l-25 -4c-11 37 -30 90 -94 90zM282 27c35 0 41 10 41 33v341c0 30 -24 32 -67 32c-75 0 -142 -49 -142 -199
c0 -138 65 -207 168 -207z" />
    <glyph glyph-name="Racute" unicode="&#x154;" horiz-adv-x="579" 
d="M312 820l62 -52l-144 -58c-21 -9 -34 -12 -43 -12s-14 5 -14 15c0 7 2 12 15 21zM271 654c63 0 125 -5 173 -50c36 -34 53 -75 53 -125c0 -105 -90 -157 -133 -171l126 -210c26 -43.4004 51 -77 96 -77l1 -24c-10 -5 -27 -7 -42 -7c-60 0 -103.3 42.4004 -132 89
l-107 174c-14.2998 23.2998 -35 38 -119 38v-219c0 -30 14.2002 -40.0996 54 -43l27 -2c4 -0.299805 8 -3 8 -8v-19l-2 -2s-87 2 -126 2c-36 0 -129 -2 -129 -2l-2 2v19c0 5 3 7.59961 8 8l26 2c42.2998 3.2998 55 15 55 43v502c0 32 -27 41.0996 -44 42l-39 2
c-4 0.200195 -6 2 -6 6v21l2 1s81 -1 127 -1c30 0 100 9 125 9zM272 620c-71 0 -85 -17 -85 -46v-249h50c97 0 172 28 172 153c0 118 -76 142 -137 142z" />
    <glyph glyph-name="racute" unicode="&#x155;" horiz-adv-x="481" 
d="M101 62v335c0 29 -27 32 -60 35c-4 0 -8 4 -8 6v22l2 2s62 -2 102 -2c37 0 71 2 96 2c96 0 165 -37 165 -116c0 -69 -52 -111 -110 -117v-1c33 -3 61 -36 73 -67l34 -75c19.4004 -42.7998 34 -69 70 -69l6 -21c-19 -7 -41 -8 -54 -8c-48 0 -83 62 -97 91l-30 60
c-13 31 -38 72 -106 72h-8v-145c0 -22 22 -33 45 -37l12 -2c4 -1 7 -2 7 -6v-21l-3 -2s-70 2 -100 2c-28 0 -104 -2 -104 -2l-1 2v21c0 4 2 6 6 6l21 2c31 3 42 13 42 33zM323 346c0 61 -22 86 -86 86c-52 0 -61 -11 -61 -30v-162h34c76 0 113 24 113 106zM326 670
c3 1 9 2 14 2c28 0 41 -11 49 -18c2 -2 4 -4 6 -5l3 -11l-115 -109c-15 -15 -22 -20 -29 -20s-14 6 -14 12s0 13 6 23z" />
    <glyph glyph-name="Rcommaaccent" unicode="&#x156;" horiz-adv-x="579" 
d="M290 -34c39 0 62 -37 62 -72c0 -26 -17 -102 -107 -106l-4 17c76 15 79 73 79 79c0 4 -1 7 -2 10c-11 -6 -21 -9 -29 -9c-41 0 -50 25 -50 41s15 40 51 40zM271 654c63 0 125 -5 173 -50c36 -34 53 -75 53 -125c0 -105 -90 -157 -133 -171l126 -210
c26 -43.4004 51 -77 96 -77l1 -24c-10 -5 -27 -7 -42 -7c-60 0 -103.3 42.4004 -132 89l-107 174c-14.2998 23.2998 -35 38 -119 38v-219c0 -30 14.2002 -40.0996 54 -43l27 -2c4 -0.299805 8 -3 8 -8v-19l-2 -2s-87 2 -126 2c-36 0 -129 -2 -129 -2l-2 2v19
c0 5 3 7.59961 8 8l26 2c42.2998 3.2998 55 15 55 43v502c0 32 -27 41.0996 -44 42l-39 2c-4 0.200195 -6 2 -6 6v21l2 1s81 -1 127 -1c30 0 100 9 125 9zM272 620c-71 0 -85 -17 -85 -46v-249h50c97 0 172 28 172 153c0 118 -76 142 -137 142z" />
    <glyph glyph-name="rcommaaccent" unicode="&#x157;" horiz-adv-x="481" 
d="M101 62v335c0 29 -27.2998 32.7002 -60 36c-4 0.400391 -8 4 -8 6v21l2 2s62 -2 102 -2c37 0 71 2 96 2c96 0 165 -37 165 -116c0 -69 -52 -111 -110 -117v-1c33 -3 61 -36 73 -67l34 -75c19.4004 -42.7998 34 -67 70 -67l6 -21c-19 -7 -41 -8 -54 -8
c-48 0 -83 60 -97 89l-30 60c-13 31 -38 72 -106 72h-8v-145c0 -22 21.9004 -33.2002 45 -37l12 -2c3.90039 -0.700195 7 -2 7 -6v-21l-3 -2s-70 2 -100 2c-28 0 -104 -2 -104 -2l-1 2v21c0 4 2 5.59961 6 6l21 2c30.7998 2.90039 42 13 42 33zM323 346c0 61 -22 87 -86 87
c-52 0 -61 -12 -61 -31v-162h34c76 0 113 24 113 106zM297 -35c39 0 62 -37 62 -72c0 -26 -17 -102 -107 -106l-4 17c76 15 79 73 79 79c0 4 -1 7 -2 10c-11 -6 -21 -9 -29 -9c-41 0 -50 25 -50 41s15 40 51 40z" />
    <glyph glyph-name="Rcaron" unicode="&#x158;" horiz-adv-x="579" 
d="M244 697c-30 37 -65 67 -101 95l16 20c39 -17 73 -36 106 -61c37 26 69 45 107 61l15 -20c-38 -29 -70 -61 -100 -95h-43zM271 654c63 0 125 -5 173 -50c36 -34 53 -75 53 -125c0 -105 -90 -157 -133 -171l126 -210c26 -43.4004 51 -77 96 -77l1 -24
c-10 -5 -27 -7 -42 -7c-60 0 -103.3 42.4004 -132 89l-107 174c-14.2998 23.2998 -35 38 -119 38v-219c0 -30 14.2002 -40.0996 54 -43l27 -2c4 -0.299805 8 -3 8 -8v-19l-2 -2s-87 2 -126 2c-36 0 -129 -2 -129 -2l-2 2v19c0 5 3 7.59961 8 8l26 2
c42.2998 3.2998 55 15 55 43v502c0 32 -27 41.0996 -44 42l-39 2c-4 0.200195 -6 2 -6 6v21l2 1s81 -1 127 -1c30 0 100 9 125 9zM272 620c-71 0 -85 -17 -85 -46v-249h50c97 0 172 28 172 153c0 118 -76 142 -137 142z" />
    <glyph glyph-name="rcaron" unicode="&#x159;" horiz-adv-x="481" 
d="M101 62v335c0 29 -27 32 -60 35c-4 0 -8 4 -8 6v22l2 2s62 -2 102 -2c37 0 71 2 96 2c96 0 165 -37 165 -116c0 -69 -52 -111 -110 -117v-1c33 -3 61 -36 73 -67l34 -75c19.4004 -42.7998 34 -69 70 -69l6 -21c-19 -7 -41 -8 -54 -8c-48 0 -83 62 -97 91l-30 60
c-13 31 -38 72 -106 72h-8v-145c0 -22 22 -33 45 -37l12 -2c4 -1 7 -2 7 -6v-21l-3 -2s-70 2 -100 2c-28 0 -104 -2 -104 -2l-1 2v21c0 4 2 6 6 6l21 2c31 3 42 13 42 33zM323 346c0 61 -22 86 -86 86c-52 0 -61 -11 -61 -30v-162h34c76 0 113 24 113 106zM207 509
c-29 47 -66 92 -101 130l20 13c39 -29 72 -54 106 -90c37 38 71 63 108 90l19 -13c-35 -39 -73 -84 -102 -130h-50z" />
    <glyph glyph-name="Sacute" unicode="&#x15a;" horiz-adv-x="475" 
d="M282 820l62 -52l-144 -58c-21 -9 -34 -12 -43 -12s-14 5 -14 15c0 7 2 12 15 21zM387 631c7 -54 8 -81 17 -129l-31 -6c-19 66 -45 128 -141 128c-66 0 -110 -51 -110 -112c0 -83 94 -121 136 -136c84 -30 176 -76 176 -192c0 -102 -92 -194 -207 -194
c-84.5 0 -114 15 -174 15c-2 51 -7 84 -19 160l31 3c21 -99.5 81 -142 170 -142c76 0 119 42 119 123c0 88 -49.5996 118.4 -111 142c-91 35 -189 82 -189 194c0 106 100 173 187 173c93 0 91 -19 146 -27z" />
    <glyph glyph-name="sacute" unicode="&#x15b;" horiz-adv-x="392" 
d="M322 448c6 -41 9 -75 11 -108l-27 -2c-15 64 -59 106 -108 106c-52 0 -80 -32 -80 -75c0 -48 73 -88 97 -99c49 -21 139 -62 139 -141c0 -82 -56 -141 -145 -141c-77 0 -107 17 -126 17c-12 0 -19 -4 -33 -6c0 29 -3 73 -11 141l28 2c18 -89 68 -125 124 -125
c59 0 85 32 85 90c0 57 -43 80.9004 -108 111c-41 19 -119 60 -119 133c0 82 78 123 148 123c81 0 100 -26 125 -26zM231 670c3 1 9 2 14 2c28 0 41 -11 49 -18c2 -2 4 -4 6 -5l3 -11l-115 -109c-15 -15 -22 -20 -29 -20s-14 6 -14 12s0 13 6 23z" />
    <glyph glyph-name="Scircumflex" unicode="&#x15c;" horiz-adv-x="475" 
d="M250 812c30 -36 65 -67 101 -94l-16 -21c-39 18 -73 37 -106 62c-37 -27 -69 -45 -107 -62l-14 21c37 28 68 60 99 94h43zM387 631c7 -54 8 -81 17 -129l-31 -6c-19 66 -45 128 -141 128c-66 0 -110 -51 -110 -112c0 -83 94 -121 136 -136c84 -30 176 -76 176 -192
c0 -102 -92 -194 -207 -194c-84.5 0 -114 15 -174 15c-2 51 -7 84 -19 160l31 3c21 -99.5 81 -142 170 -142c76 0 119 42 119 123c0 88 -49.5996 118.4 -111 142c-91 35 -189 82 -189 194c0 106 100 173 187 173c93 0 91 -19 146 -27z" />
    <glyph glyph-name="scircumflex" unicode="&#x15d;" horiz-adv-x="392" 
d="M322 448c6 -41 9 -75 11 -108l-27 -2c-15 64 -59 103 -108 103c-52 0 -80 -32 -80 -75c0 -48 73 -85 97 -96c49 -21 139 -62 139 -141c0 -82 -56 -141 -145 -141c-77 0 -107 17 -126 17c-12 0 -19 -4 -33 -6c0 29 -3 73 -11 141l28 2c18 -89 68 -125 124 -125
c59 0 85 32 85 90c0 57 -43 80.9004 -108 111c-41 19 -119 57 -119 130c0 82 78 122 148 122c81 0 100 -22 125 -22zM218 656c29 -47 65 -89 101 -129l-21 -14c-39 29 -72 54 -106 90c-37 -38 -69 -63 -107 -90l-20 14c36 40 74 83 103 129h50z" />
    <glyph glyph-name="Scedilla" unicode="&#x15e;" horiz-adv-x="475" 
d="M387 631c7 -54 8.00098 -81.001 17.001 -129.001l-31 -6c-19 66 -45 128 -141 128c-66 0 -110 -51 -110 -112c0 -83 94 -121 136 -136c84 -30 176 -76 176 -192c0 -94.2002 -78.4004 -179.8 -181 -192.399l-23 -55.5996c8 2 17 3 26 3c40 0 71 -24 71 -62
c0 -43 -46 -71 -107 -71c-32 0 -49 6 -74 17l10 22c27 -10 38 -14 58 -14c30 0 60 14 60 41c0 21 -19 35 -42 35c-19 0 -29 -1 -45 -6l-6 6l37.2002 83.0996c-77.9004 1 -107.301 14.9004 -165.201 14.9004c-2 51 -7 84 -19 160l31 3c21 -99.5 81 -142 170 -142
c76 0 119 42 119 123c0 88 -49.5996 118.4 -111 142c-91 35 -189 82 -189 194c0 106 100 173 187 173c93 0 91 -19 146 -27z" />
    <glyph glyph-name="scedilla" unicode="&#x15f;" horiz-adv-x="392" 
d="M201 -90c-19 0 -28.999 -1 -44.999 -6l-6 6l35.2002 78.5996c-59.7002 3 -85.2998 16.4004 -102.2 16.4004c-12 0 -19 -4 -33 -6c0 29 -3 73 -11 141l28 2c18 -89 68 -125 124 -125c59 0 85 32 85 90c0 57 -43 80.9004 -108 111c-41 19 -119 57 -119 130
c0 82 78 122 148 122c81 0 100 -22 125 -22c6 -41 9 -75 11 -108l-27 -2c-15 64 -59 103 -108 103c-52 0 -80 -32 -80 -75c0 -48 73 -85 97 -96c49 -21 139 -62 139 -141c0 -78.7998 -51.7002 -136.3 -134.601 -140.7l-20.4004 -49.2998c8 2 17 3 26 3c40 0 71 -24 71 -62
c0 -43 -46 -71 -107 -71c-32 0 -49 6 -74 17l10 22c27 -10 38 -14 58 -14c30 0 60 14 60 41c0 21 -19 35 -42 35z" />
    <glyph glyph-name="Scaron" unicode="&#x160;" horiz-adv-x="475" 
d="M215 697c-30 37 -65 67 -101 95l16 20c39 -17 73 -36 106 -61c37 26 69 45 107 61l15 -20c-38 -29 -70 -61 -100 -95h-43zM387 631c7 -54 8 -81 17 -129l-31 -6c-19 66 -45 128 -141 128c-66 0 -110 -51 -110 -112c0 -83 94 -121 136 -136c84 -30 176 -76 176 -192
c0 -102 -92 -194 -207 -194c-84.5 0 -114 15 -174 15c-2 51 -7 84 -19 160l31 3c21 -99.5 81 -142 170 -142c76 0 119 42 119 123c0 88 -49.5996 118.4 -111 142c-91 35 -189 82 -189 194c0 106 100 173 187 173c93 0 91 -19 146 -27z" />
    <glyph glyph-name="scaron" unicode="&#x161;" horiz-adv-x="392" 
d="M322 448c6 -41 9 -75 11 -108l-27 -2c-15 64 -59 106 -108 106c-52 0 -80 -32 -80 -75c0 -48 73 -88 97 -99c49 -21 139 -62 139 -141c0 -82 -56 -141 -145 -141c-77 0 -107 17 -126 17c-12 0 -19 -4 -33 -6c0 29 -3 73 -11 141l28 2c18 -89 68 -125 124 -125
c59 0 85 32 85 90c0 57 -43 80.9004 -108 111c-41 19 -119 60 -119 133c0 82 78 123 148 123c81 0 100 -26 125 -26zM169 508c-29 47 -66 92 -101 130l20 13c39 -29 72 -54 106 -90c37 38 71 63 108 90l19 -13c-35 -39 -73 -84 -102 -130h-50z" />
    <glyph glyph-name="Tcommaaccent" unicode="&#x162;" horiz-adv-x="567" 
d="M77 645h423.001c21 0 22 17 22 23l26 4c0 -49 5 -103 13 -154l-30 -5c-17 77 -24 93 -79 93h-66c-36 0 -48 -8 -48 -42v-492c0 -31 15.7002 -40 55 -43l26 -2c5 -0.400391 9 -3 9 -8v-19l-2 -2s-59.7002 1.2998 -102.601 1.7998l-19.4004 -46.7998c8 2 17 3 26 3
c40 0 71 -24 71 -62c0 -43 -46 -71 -107 -71c-32 0 -49 6 -74 17l10 22c27 -10 38 -14 58 -14c30 0 60 14 60 41c0 21 -19 35 -42 35c-19 0 -29 -1 -45 -6l-6 6l34.0996 76c-40 -0.299805 -118.1 -2 -118.1 -2l-2 2v19c0 5 3 7.59961 8 8l26 2c42.2002 3.2002 54 15 54 43
v495c0 31 -12 39 -49 39h-83c-55 0 -68 -13 -88 -93l-30 5c12 53 18 105 22 154l27 -4c0 -6 0 -23 21 -23z" />
    <glyph glyph-name="tcommaaccent" unicode="&#x163;" horiz-adv-x="489" 
d="M234 -81c-19 0 -29 -1.00098 -45 -6.00098l-6 6l36.2002 80.7002c-33.4004 -0.599609 -76.2002 -1.69922 -76.2002 -1.69922l-1 2v21c0 3 2 6 6 6l20 2c30 3 43 12 43 32v334c0 22 -9 31 -38 31h-45c-45 0 -57 -20 -77 -92l-27 3c8 47 8 93 8 137h25c2 -6 11 -14 27 -14
h321c16 0 25 8 27 14h25c0 -44 1 -89 8 -137l-27 -3c-20 72 -33 92 -76 92h-37c-28 0 -37 -9 -37 -32v-333c0 -22 12 -28.9004 43 -32l20 -2c3 0 7 -3 7 -6v-21l-2 -2s-69.5 1.7998 -102.5 2l-21.5 -52c8 2 17 3 26 3c40 0 71 -24 71 -62c0 -43 -46 -71 -107 -71
c-32 0 -49 6 -74 17l10 22c27 -10 38 -14 58 -14c30 0 60 14 60 41c0 21 -19 35 -42 35z" />
    <glyph glyph-name="Tcaron" unicode="&#x164;" horiz-adv-x="567" 
d="M280 697c-30 37 -65 67 -101 95l16 20c39 -17 73 -36 106 -61c37 26 69 45 107 61l15 -20c-38 -29 -70 -61 -100 -95h-43zM77 645h423c21 0 22 17 22 23l26 4c0 -49 5 -103 13 -154l-30 -5c-17 77 -24 93 -79 93h-66c-36 0 -48 -8 -48 -42v-492c0 -31 15.7002 -40 55 -43
l26 -2c5 -0.400391 9 -3 9 -8v-19l-2 -2s-88 2 -127 2c-35 0 -128 -2 -128 -2l-2 2v19c0 5 3 7.59961 8 8l26 2c42.2002 3.2002 54 15 54 43v495c0 31 -12 39 -49 39h-83c-55 0 -68 -13 -88 -93l-30 5c12 53 18 105 22 154l27 -4c0 -6 0 -23 21 -23z" />
    <glyph glyph-name="tcaron" unicode="&#x165;" horiz-adv-x="489" 
d="M362 426h-37c-28 0 -37 -9 -37 -32v-333c0 -22 12 -28.9004 43 -32l20 -2c3 0 7 -3 7 -6v-21l-2 -2s-78 2 -108 2c-28 0 -105 -2 -105 -2l-1 2v21c0 3 2 6 6 6l20 2c30 3 43 12 43 32v334c0 22 -9 31 -38 31h-45c-45 0 -57 -20 -77 -92l-27 3c8 47 8 93 8 137h25
c2 -6 11 -14 27 -14h321c16 0 25 8 27 14h25c0 -44 1 -89 8 -137l-27 -3c-20 72 -33 92 -76 92zM227 508c-29 47 -66 92 -101 130l20 13c39 -29 72 -54 106 -90c37 38 71 63 108 90l19 -13c-35 -39 -73 -84 -102 -130h-50z" />
    <glyph glyph-name="Tbar" unicode="&#x166;" horiz-adv-x="567" 
d="M128 329v39h129v199c0 31 -12 39 -49 39h-83c-55 0 -68 -13 -88 -93l-30 5c12 53 18 105 22 154l27 -4c0 -6 0 -23 21 -23h423c21 0 22 17 22 23l26 4c0 -49 5 -103 13 -154l-30 -5c-17 77 -24 93 -79 93h-66c-36 0 -48 -8 -48 -42v-196h137v-39h-137v-257
c0 -31 15.7002 -40 55 -43l26 -2c5 -0.400391 9 -3 9 -8v-19l-2 -2s-88 2 -127 2c-35 0 -128 -2 -128 -2l-2 2v19c0 5 3 7.59961 8 8l26 2c42.2002 3.2002 54 15 54 43v257h-129z" />
    <glyph glyph-name="tbar" unicode="&#x167;" horiz-adv-x="489" 
d="M362 426h-37c-28 0 -37 -9 -37 -32v-110h90v-39h-90v-184c0 -22 12 -28.9004 43 -32l20 -2c3 0 7 -3 7 -6v-21l-2 -2s-78 2 -108 2c-28 0 -105 -2 -105 -2l-1 2v21c0 3 2 6 6 6l20 2c30 3 43 12 43 32v184h-86v39h86v111c0 22 -9 31 -38 31h-45c-45 0 -57 -20 -77 -92
l-27 3c8 47 8 93 8 137h25c2 -6 11 -14 27 -14h321c16 0 25 8 27 14h25c0 -44 1 -89 8 -137l-27 -3c-20 72 -33 92 -76 92z" />
    <glyph glyph-name="Utilde" unicode="&#x168;" horiz-adv-x="661" 
d="M413 742c22 0 36 10 50 52l24 -6c-12 -60 -41 -90 -87 -90c-22 0 -43 12 -64 26c-18 11 -37 22 -54 22c-26 0 -39 -15 -49 -48l-24 5c14 59 37 89 80 89c30 0 52 -14 72 -28c16 -12 33 -22 52 -22zM321 -10c-90 0 -232 42 -232 246v336c0 31 -14.7002 41.0996 -54 44
l-27 2c-4 0.299805 -8 3 -8 8v19l2 2s87 -2 126 -2c36 0 129 2 129 2l2 -2v-19c0 -5 -3 -7.59961 -8 -8l-26 -2c-41.2998 -3.2002 -55 -16 -55 -44v-303c0 -65 0 -135 53 -188c30 -29 71 -50 119 -50c169 0 184 134 184 246v293c0 31 -14.0996 43 -54 46l-27 2
c-4 0.299805 -8 3 -8 8v19l2 2s71 -2 110 -2c36 0 110 2 110 2l2 -2v-19c0 -5 -3 -7.59961 -8 -8l-26 -2c-41.2998 -3.2002 -55 -18 -55 -46v-275c0 -178 -46 -305 -251 -305z" />
    <glyph glyph-name="utilde" unicode="&#x169;" horiz-adv-x="559" 
d="M275 -10c-69 0 -181 46 -181 191v219c0 22 -11.2998 27.5 -43 31l-18 2c-3 0.299805 -6 2 -6 5v22l2 2s75 -2 106 -2c28 0 103 2 103 2l2 -2v-22c0 -3 -2 -4.59961 -6 -5l-20 -2c-32 -3.2002 -43 -11 -43 -31v-198c0 -93 14 -183 121 -183c132 0 133 106 133 192v189
c0 22 -13 28 -43 31l-20 2c-4 0.400391 -7 2 -7 5v22l2 2s60 -2 90 -2c28 0 83 2 83 2l2 -2v-22c0 -3 -2 -4.5 -6 -5l-17 -2c-30.7002 -3.59961 -39 -11 -39 -31v-176c0 -139 -34 -234 -195 -234zM353 554c22 0 36 10 50 52l24 -6c-12 -60 -41 -90 -87 -90
c-22 0 -43 12 -64 26c-18 11 -37 22 -54 22c-26 0 -39 -15 -49 -48l-24 5c14 59 37 89 80 89c30 0 52 -14 72 -28c16 -12 33 -22 52 -22z" />
    <glyph glyph-name="Umacron" unicode="&#x16a;" horiz-adv-x="661" 
d="M463 732h-244c-9 0 -13 8 -13 15c0 12 11 29 22 29h245c10 0 14 -8 14 -14c0 -12 -11 -30 -24 -30zM321 -10c-90 0 -232 42 -232 246v336c0 31 -14.7002 41.0996 -54 44l-27 2c-4 0.299805 -8 3 -8 8v19l2 2s87 -2 126 -2c36 0 129 2 129 2l2 -2v-19
c0 -5 -3 -7.59961 -8 -8l-26 -2c-41.2998 -3.2002 -55 -16 -55 -44v-303c0 -65 0 -135 53 -188c30 -29 71 -50 119 -50c169 0 184 134 184 246v293c0 31 -14.0996 43 -54 46l-27 2c-4 0.299805 -8 3 -8 8v19l2 2s71 -2 110 -2c36 0 110 2 110 2l2 -2v-19
c0 -5 -3 -7.59961 -8 -8l-26 -2c-41.2998 -3.2002 -55 -18 -55 -46v-275c0 -178 -46 -305 -251 -305z" />
    <glyph glyph-name="umacron" unicode="&#x16b;" horiz-adv-x="559" 
d="M275 -10c-69 0 -181 46 -181 191v219c0 22 -11.2998 27.5 -43 31l-18 2c-3 0.299805 -6 2 -6 5v22l2 2s75 -2 106 -2c28 0 103 2 103 2l2 -2v-22c0 -3 -2 -4.59961 -6 -5l-20 -2c-32 -3.2002 -43 -11 -43 -31v-198c0 -93 14 -183 121 -183c132 0 133 106 133 192v189
c0 22 -13 28 -43 31l-20 2c-4 0.400391 -7 2 -7 5v22l2 2s60 -2 90 -2c28 0 83 2 83 2l2 -2v-22c0 -3 -2 -4.5 -6 -5l-17 -2c-30.7002 -3.59961 -39 -11 -39 -31v-176c0 -139 -34 -234 -195 -234zM404 509h-244c-9 0 -13 8 -13 15c0 12 11 29 22 29h245c10 0 14 -8 14 -14
c0 -12 -11 -30 -24 -30z" />
    <glyph glyph-name="Ubreve" unicode="&#x16c;" horiz-adv-x="661" 
d="M483 804c-6 -71 -69 -113 -135 -113c-73 0 -131 43 -136 113h28c8 -39 55 -61 108 -61c49 0 101 22 108 61h27zM321 -10c-90 0 -232 42 -232 246v336c0 31 -14.7002 41.0996 -54 44l-27 2c-4 0.299805 -8 3 -8 8v19l2 2s87 -2 126 -2c36 0 129 2 129 2l2 -2v-19
c0 -5 -3 -7.59961 -8 -8l-26 -2c-41.2998 -3.2002 -55 -16 -55 -44v-303c0 -65 0 -135 53 -188c30 -29 71 -50 119 -50c169 0 184 134 184 246v293c0 31 -14.0996 43 -54 46l-27 2c-4 0.299805 -8 3 -8 8v19l2 2s71 -2 110 -2c36 0 110 2 110 2l2 -2v-19
c0 -5 -3 -7.59961 -8 -8l-26 -2c-41.2998 -3.2002 -55 -18 -55 -46v-275c0 -178 -46 -305 -251 -305z" />
    <glyph glyph-name="ubreve" unicode="&#x16d;" horiz-adv-x="559" 
d="M275 -10c-69 0 -181 46 -181 191v219c0 22 -11.2998 27.5 -43 31l-18 2c-3 0.299805 -6 2 -6 5v22l2 2s75 -2 106 -2c28 0 103 2 103 2l2 -2v-22c0 -3 -2 -4.59961 -6 -5l-20 -2c-32 -3.2002 -43 -11 -43 -31v-198c0 -93 14 -183 121 -183c132 0 133 106 133 192v189
c0 22 -13 28 -43 31l-20 2c-4 0.400391 -7 2 -7 5v22l2 2s60 -2 90 -2c28 0 83 2 83 2l2 -2v-22c0 -3 -2 -4.5 -6 -5l-17 -2c-30.7002 -3.59961 -39 -11 -39 -31v-176c0 -139 -34 -234 -195 -234zM179 658c2 -52 49 -92 109 -92c46 0 106 30 108 92l27 -14
c-10 -101 -85 -135 -135 -135c-77 0 -128 57 -135 135z" />
    <glyph glyph-name="Uring" unicode="&#x16e;" horiz-adv-x="661" 
d="M261 723c0 46 39 83 85 83s86 -36 86 -83c0 -45 -38 -83 -86 -83c-46 0 -85 37 -85 83zM347 779c-31 0 -54 -26 -54 -56c0 -28 23 -56 54 -56s54 28 54 56c0 31 -25 56 -54 56zM321 -10c-90 0 -232 42 -232 246v336c0 31 -14.7002 41.0996 -54 44l-27 2
c-4 0.299805 -8 3 -8 8v19l2 2s87 -2 126 -2c36 0 129 2 129 2l2 -2v-19c0 -5 -3 -7.59961 -8 -8l-26 -2c-41.2998 -3.2002 -55 -16 -55 -44v-303c0 -65 0 -135 53 -188c30 -29 71 -50 119 -50c169 0 184 134 184 246v293c0 31 -14.0996 43 -54 46l-27 2
c-4 0.299805 -8 3 -8 8v19l2 2s71 -2 110 -2c36 0 110 2 110 2l2 -2v-19c0 -5 -3 -7.59961 -8 -8l-26 -2c-41.2998 -3.2002 -55 -18 -55 -46v-275c0 -178 -46 -305 -251 -305z" />
    <glyph glyph-name="uring" unicode="&#x16f;" horiz-adv-x="559" 
d="M275 -10c-69 0 -181 46 -181 191v219c0 22 -11 28 -43 32l-18 2c-3 0 -6 2 -6 5v21l1 2s76 -2 107 -2c28 0 104 2 104 2l1 -2v-21c0 -3 -2 -5 -6 -5l-20 -2c-32 -3.2002 -43 -12 -43 -32v-198c0 -93 14 -183 121 -183c132 0 133 106 133 192v189c0 22 -13 29 -43 32
l-20 2c-4 0 -7 2 -7 5v21l2 2s60 -2 90 -2c28 0 84 2 84 2l1 -2v-21c0 -3 -2 -5 -6 -5l-17 -2c-31 -4 -39 -12 -39 -32v-176c0 -139 -34 -234 -195 -234zM202 592c0 46 39 83 85 83s86 -36 86 -83c0 -45 -38 -83 -86 -83c-46 0 -85 37 -85 83zM288 648
c-31 0 -54 -26 -54 -56c0 -28 23 -56 54 -56s54 28 54 56c0 31 -25 56 -54 56z" />
    <glyph glyph-name="Uhungarumlaut" unicode="&#x170;" horiz-adv-x="661" 
d="M368 826c10 -7 15 -18 15 -29c0 -8 -2 -15 -7 -19l-94 -86c-3 -1 -6 -2 -8 -2c-3 0 -6 2 -8 3c-4 3 -6 7 -6 11c0 1 0 3 1 4l57 115c5 8 12 12 27 12c9 0 18 -5 23 -9zM501 820c9 -7 13 -18 13 -28c0 -9 -3 -16 -7 -20l-99 -84c-2 -2 -4 -2 -7 -2c-5 0 -14 5 -14 13
c0 2 0 4 1 5l62 114c5 8 12 12 23 12c8 0 17 -1 28 -10zM321 -10c-90 0 -232 42 -232 246v336c0 31 -14.7002 41.0996 -54 44l-27 2c-4 0.299805 -8 3 -8 8v19l2 2s87 -2 126 -2c36 0 129 2 129 2l2 -2v-19c0 -5 -3 -7.59961 -8 -8l-26 -2c-41.2998 -3.2002 -55 -16 -55 -44
v-303c0 -65 0 -135 53 -188c30 -29 71 -50 119 -50c169 0 184 134 184 246v293c0 31 -14.0996 43 -54 46l-27 2c-4 0.299805 -8 3 -8 8v19l2 2s71 -2 110 -2c36 0 110 2 110 2l2 -2v-19c0 -5 -3 -7.59961 -8 -8l-26 -2c-41.2998 -3.2002 -55 -18 -55 -46v-275
c0 -178 -46 -305 -251 -305z" />
    <glyph glyph-name="uhungarumlaut" unicode="&#x171;" horiz-adv-x="559" 
d="M275 -10c-69 0 -181 46 -181 191v219c0 22 -11 28 -43 32l-18 2c-3 0 -6 2 -6 5v21l1 2s76 -2 107 -2c28 0 104 2 104 2l1 -2v-21c0 -3 -2 -5 -6 -5l-20 -2c-32 -3.2002 -43 -12 -43 -32v-198c0 -93 14 -183 121 -183c132 0 133 106 133 192v189c0 22 -13 29 -43 32
l-20 2c-4 0 -7 2 -7 5v21l2 2s60 -2 90 -2c28 0 84 2 84 2l1 -2v-21c0 -3 -2 -5 -6 -5l-17 -2c-31 -4 -39 -12 -39 -32v-176c0 -139 -34 -234 -195 -234zM327 679c11 -7 17 -18 17 -30c0 -5 -1 -11 -5 -16l-102 -121c-2 -2 -5 -3 -8 -3c-6 0 -14 5 -14 13c0 1 0 2 1 3
l64 146c6 13 22 14 26 14c8 0 14 -2 21 -6zM462 671c9 -7 14 -18 14 -28c0 -6 -1 -13 -7 -19l-114 -110c-2 -2 -4 -2 -6 -2c-5 0 -14 5 -14 13c0 1 0 3 1 4l78 139c5 9 12 12 24 12c9 0 17 -3 24 -9z" />
    <glyph glyph-name="Uogonek" unicode="&#x172;" horiz-adv-x="661" 
d="M321 -10c-90 0 -232.001 42.001 -232.001 246.001v336c0 31 -14.7002 41.0996 -54 44l-27 2c-4 0.299805 -8 3 -8 8v19l2 2s87 -2 126 -2c36 0 129 2 129 2l2 -2v-19c0 -5 -3 -7.59961 -8 -8l-26 -2c-41.2998 -3.2002 -55 -16 -55 -44v-303c0 -65 0 -135 53 -188
c30 -29 71 -50 119 -50c169 0 184 134 184 246v293c0 31 -14.0996 43 -54 46l-27 2c-4 0.299805 -8 3 -8 8v19l2 2s71 -2 110 -2c36 0 110 2 110 2l2 -2v-19c0 -5 -3 -7.59961 -8 -8l-26 -2c-41.2998 -3.2002 -55 -18 -55 -46v-275
c0 -110.3 -17.7002 -201.1 -79.9004 -254.1l0.900391 -0.900391c-45 -42 -97 -89 -97 -155c0 -26 23 -52 60 -52c29 0 45 14 67 36l16 -7c-29 -45 -66 -67 -107 -67c-54 0 -96 29 -96 84c0 42.5996 29.4004 84.1992 66.3008 119.199
c-23.7998 -5.40039 -50.7998 -8.2002 -81.2998 -8.2002z" />
    <glyph glyph-name="uogonek" unicode="&#x173;" horiz-adv-x="559" 
d="M480 -130c-29 -45 -66 -67.001 -107 -67.001c-54 0 -96 29 -96 84c0 38.0996 23.4004 75.2998 54.7002 107.7c-16.9004 -3.09961 -35.7002 -4.69922 -56.7002 -4.69922c-69 0 -181 46 -181 191v219c0 22 -11.2998 27.5 -43 31l-18 2c-3 0.299805 -6 2 -6 5v22l2 2
s75 -2 106 -2c28 0 103 2 103 2l2 -2v-22c0 -3 -2 -4.59961 -6 -5l-20 -2c-32 -3.2002 -43 -11 -43 -31v-198c0 -93 14 -183 121 -183c132 0 133 106 133 192v189c0 22 -13 28 -43 31l-20 2c-4 0.400391 -7 2 -7 5v22l2 2s60 -2 90 -2c28 0 83 2 83 2l2 -2v-22
c0 -3 -2 -4.5 -6 -5l-17 -2c-30.7002 -3.59961 -39 -11 -39 -31v-176c0 -71.4004 -8.90039 -131.2 -39.5 -172.5l3.5 -3.5c-45 -42 -97 -89 -97 -155c0 -26 23 -52 60 -52c29 0 45 14 67 36z" />
    <glyph glyph-name="Wcircumflex" unicode="&#x174;" horiz-adv-x="924" 
d="M478 805c30 -36 65 -67 101 -94l-16 -21c-39 18 -73 37 -106 62c-37 -27 -69 -45 -107 -62l-14 21c37 28 68 60 99 94h43zM785 565c12.7998 39.0996 -7 49.7002 -44 52l-16 1c-4 0 -8 3 -8 8v19l2 2s71 -2 110 -2c35 0 92 2 92 2l2 -2v-19c0 -5 -3 -8 -8 -8
c-55 -3 -72.9004 -30 -85 -65l-187 -542c-5 -15 -13 -23 -27 -23c-13 0 -25 7 -31 24l-117 355c-5 14 -10 28 -14 28c-5 0 -10 -13 -14 -25l-119 -358c-4 -14 -14 -24 -28 -24c-15 0 -26 8 -31 24l-182 544c-18 53 -23 59 -68 62c-7 1 -12 3 -12 7v20l2 2s52 -2 90 -2
c51 0 121 2 121 2l2 -2v-19c0 -5 -3 -8 -9 -8l-22 -1c-19 -1 -28 -6 -28 -19c0 -7 2 -15 6 -26l150 -461h2l106 331c4 12 7 25 7 38c0 9 -1 18 -5 28l-15 46c-8.09961 25 -21 61 -74 64c-7 0 -12 3 -12 7v20l2 2s56 -2 96 -2c49 0 128 2 128 2l3 -2v-20c0 -5 -5 -7 -9 -7
l-29 -2c-26 -2 -35.5996 -19.9004 -22 -62l144 -445h2z" />
    <glyph glyph-name="wcircumflex" unicode="&#x175;" horiz-adv-x="768" 
d="M241 -12c-18 0 -30.001 29 -34.001 39l-135 368c-7 18 -22.0996 31.4004 -43 36l-9 2c-6.2002 1.40039 -10 2.7002 -10 5v22l2 2s41 -2 70 -2c40 0 106 2 106 2l1 -2v-21c0 -5 -4 -5.59961 -7 -6l-17 -2c-24.0996 -2.7998 -23.7998 -13.2002 -17 -29l117 -317l84 231
c3 9 6 19 6 26s0 14 -2 21l-15 39c-8.5 22.0996 -28.7002 28 -53 31c-5 0.599609 -9 2 -9 5v22l2 2s43 -2 75 -2c38 0 107 2 107 2l2 -2v-22c0 -4 -4 -4.7002 -7 -5l-23 -2c-20.9004 -1.7998 -26.1006 -14.5996 -16.001 -42l115 -311l118 321
c6.40039 12.7998 5.10059 29.2998 -22.999 32l-21 2c-4 0.400391 -6 3 -6 5v22l1 2s59 -2 91 -2c26 0 66 2 66 2l2 -1v-22c0 -5 -4 -5.7002 -9 -6c-44.2998 -3 -54.7998 -28 -61.3994 -46l-130.6 -359c-5 -13.5996 -16 -40 -42 -40c-31 0 -41 26 -46 40l-83 234
c-4 11 -8 21 -12 21c-3 0 -6 -7 -10 -18l-84 -237c-7.09961 -20 -15 -40 -40 -40zM409.999 652c29 -47 65 -89 101 -129l-21 -14c-39 29 -72 54 -106 90c-37 -38 -69 -63 -107 -90l-20 14c36 40 74 83 103 129h50z" />
    <glyph glyph-name="Ycircumflex" unicode="&#x176;" horiz-adv-x="574" 
d="M314 805c30 -36 65 -67 101 -94l-16 -21c-39 18 -73 37 -106 62c-37 -27 -69 -45 -107 -62l-14 21c37 28 68 60 99 94h43zM254 72v187.001c0 10.7002 -3.2002 33.5 -8.5 42.7002l-145.8 245.3c-31.5996 53.2002 -41.7998 67 -77.7002 70l-12 1c-3 0.200195 -10 1 -10 7
v20l2 2s92 -2 105 -2c6 0 114 2 114 2l2 -2v-19c0 -4 -2 -7.90039 -6 -8l-29 -1c-35.2998 -1.2002 -28 -14.6006 -13 -41.001l137 -241h2l128 241c16.7002 31.5 8.40039 38.5 -14 40l-30 2c-4 0.299805 -5 4 -5 7v20l2 2s78 -2 91 -2c9 0 87 2 87 2l2 -2v-20
c0 -5 -4 -6.40039 -10 -7l-21 -2c-35.2998 -3.40039 -45.5 -21.4004 -61.7998 -51l-140.9 -255c-5.7998 -10.5996 -7.2998 -24 -7.2998 -42.2998v-195.7c0 -31 16 -45 55 -45h27c4 0 8 -3 8 -8v-19l-2 -2s-87 2 -126 2c-36 0 -129 -2 -129 -2l-2 2v19c0 5 3 8 8 8h26
c41 0 55 17 55 45z" />
    <glyph glyph-name="ycircumflex" unicode="&#x177;" horiz-adv-x="479" 
d="M204 61l-0.000976562 135.002l-126 207c-13 21 -29 27 -58 30c-3 0.299805 -8 1 -8 5v22l2 2c9 0 71 -2 82 -2c5 0 89 1 101 2l1 -1v-23c0 -2 -2 -4.7002 -5 -5l-22 -2c-24.0996 -2.2002 -20.0996 -10.5 -10 -27l101 -165h2l93 165
c13.0996 24.0996 13 24.8994 -11 26.999l-23 2c-3 0.299805 -4 3 -4 5v23l2 1c11 0 67 -2 77 -2c7 0 53 1 68 2l1 -2v-22c0 -2 0 -4.2002 -7 -5l-17 -2c-31.5 -3.7002 -36.5996 -9.60059 -52.3994 -37.501l-109.6 -193.5v-139c0 -22 11.2998 -29.0996 42 -32l21 -2
c4 -0.400391 7 -3 7 -6v-21l-2 -2s-76 2 -107 2c-28 0 -106 -2 -106 -2l-2 2v21c0 3 3 5.59961 7 6l20 2c31.2002 3.09961 43 12 43 32zM262.999 652.002c29 -47 65 -89 101 -129l-21 -14c-39 29 -72 54 -106 90c-37 -38 -69 -63 -107 -90l-20 14c36 40 74 83 103 129h50z
" />
    <glyph glyph-name="Ydieresis" unicode="&#x178;" horiz-adv-x="574" 
d="M180 751c0 25 20 45 45 45s46 -20 46 -45s-21 -46 -46 -46s-45 21 -45 46zM340 751c0 25 21 45 46 45s45 -20 45 -45s-20 -46 -45 -46s-46 21 -46 46zM254 72v187.001c0 10.7002 -3.2002 33.5 -8.5 42.7002l-145.8 245.3c-31.5996 53.2002 -41.7998 67 -77.7002 70l-12 1
c-3 0.200195 -10 1 -10 7v20l2 2s92 -2 105 -2c6 0 114 2 114 2l2 -2v-19c0 -4 -2 -7.90039 -6 -8l-29 -1c-35.2998 -1.2002 -28 -14.6006 -13 -41.001l137 -241h2l128 241c16.7002 31.5 8.40039 38.5 -14 40l-30 2c-4 0.299805 -5 4 -5 7v20l2 2s78 -2 91 -2c9 0 87 2 87 2
l2 -2v-20c0 -5 -4 -6.40039 -10 -7l-21 -2c-35.2998 -3.40039 -45.5 -21.4004 -61.7998 -51l-140.9 -255c-5.7998 -10.5996 -7.2998 -24 -7.2998 -42.2998v-195.7c0 -31 16 -45 55 -45h27c4 0 8 -3 8 -8v-19l-2 -2s-87 2 -126 2c-36 0 -129 -2 -129 -2l-2 2v19c0 5 3 8 8 8
h26c41 0 55 17 55 45z" />
    <glyph glyph-name="Zacute" unicode="&#x179;" horiz-adv-x="604" 
d="M551 -2c0 0 -99.7002 2 -126.7 2h-364.3c-14 0 -19 5 -19 15c0 7 2 15 8 23l389 541c5 7 8 13 8 18c0 6 -3 8 -10 8h-231c-75 0 -93 -50 -114 -119l-30 5c8 41 18 113 22 167c37 -3 34 -13 81 -13h321c31 3 51 10 63 10c19 0 23 -3 23 -10c0 -11 -4 -26 -24 -54
l-375 -519c-5 -9 -8 -15 -8 -20c0 -9 8 -13 25 -13h233c76 0 105 59 125 131l31 -5c-12 -52 -22 -111 -27 -167zM348 820l62 -52l-144 -58c-21 -9 -34 -12 -43 -12s-14 5 -14 15c0 7 2 12 15 21z" />
    <glyph glyph-name="zacute" unicode="&#x17a;" horiz-adv-x="456" 
d="M107 461l234 -1c24 5 41 7 52 7c16 0 22 -4 22 -10c0 -8 -4 -15 -19 -36l-248 -362c-4 -6 -6 -11 -6 -15c0 -6 6 -10 20 -10h119c58 0 75 27 98 80l13 29l27 -7c-17 -58 -28 -105 -32 -136h-338c-11 0 -15 4 -15 10s3 11 7 17l263 378c4 6 7 11 7 14c0 4 -3 7 -9 7h-151
c-29 0 -63 -22 -84 -94l-26 3c9 49 14 91 15 136c0 2 2 3 4 3c17 -3 15 -12.9004 47 -13zM253 674c3 1 9 2 14 2c28 0 41 -11 49 -18c2 -2 4 -4 6 -5l3 -11l-115 -109c-15 -15 -22 -20 -29 -20s-14 6 -14 12s0 13 6 23z" />
    <glyph glyph-name="Zdotaccent" unicode="&#x17b;" horiz-adv-x="604" 
d="M262 750c0 27 21 48 48 48c26 0 48 -21 48 -48c0 -26 -22 -47 -48 -47c-27 0 -48 21 -48 47zM551 -2c0 0 -99.7002 2 -126.7 2h-364.3c-14 0 -19 5 -19 15c0 7 2 15 8 23l389 541c5 7 8 13 8 18c0 6 -3 8 -10 8h-231c-75 0 -93 -50 -114 -119l-30 5c8 41 18 113 22 167
c37 -3 34 -13 81 -13h321c31 3 51 10 63 10c19 0 23 -3 23 -10c0 -11 -4 -26 -24 -54l-375 -519c-5 -9 -8 -15 -8 -20c0 -9 8 -13 25 -13h233c76 0 105 59 125 131l31 -5c-12 -52 -22 -111 -27 -167z" />
    <glyph glyph-name="zdotaccent" unicode="&#x17c;" horiz-adv-x="456" 
d="M107 461l234 -1c24 5 41 7 52 7c16 0 22 -4 22 -10c0 -8 -4 -15 -19 -36l-248 -362c-4 -6 -6 -11 -6 -15c0 -6 6 -10 20 -10h119c58 0 75 27 98 80l13 29l27 -7c-17 -58 -28 -105 -32 -136h-338c-11 0 -15 4 -15 10s3 11 7 17l263 378c4 6 7 11 7 14c0 4 -3 7 -9 7h-151
c-29 0 -63 -22 -84 -94l-26 3c9 49 14 91 15 136c0 2 2 3 4 3c17 -3 15 -12.9004 47 -13zM189 553c0 27 21 48 48 48c26 0 48 -21 48 -48c0 -26 -22 -47 -48 -47c-27 0 -48 21 -48 47z" />
    <glyph glyph-name="Zcaron" unicode="&#x17d;" horiz-adv-x="604" 
d="M280 698c-30 37 -65 67 -101 95l16 20c39 -17 73 -36 106 -61c37 26 69 45 107 61l15 -20c-38 -29 -70 -61 -100 -95h-43zM551 -2c0 0 -99.7002 2 -126.7 2h-364.3c-14 0 -19 5 -19 15c0 7 2 15 8 23l389 541c5 7 8 13 8 18c0 6 -3 8 -10 8h-231c-75 0 -93 -50 -114 -119
l-30 5c8 41 18 113 22 167c37 -3 34 -13 81 -13h321c31 3 51 10 63 10c19 0 23 -3 23 -10c0 -11 -4 -26 -24 -54l-375 -519c-5 -9 -8 -15 -8 -20c0 -9 8 -13 25 -13h233c76 0 105 59 125 131l31 -5c-12 -52 -22 -111 -27 -167z" />
    <glyph glyph-name="zcaron" unicode="&#x17e;" horiz-adv-x="456" 
d="M107 461l234 -1c24 5 41 7 52 7c16 0 22 -4 22 -10c0 -8 -4 -15 -19 -36l-248 -362c-4 -6 -6 -11 -6 -15c0 -6 6 -10 20 -10h119c58 0 75 27 98 80l13 29l27 -7c-17 -58 -28 -105 -32 -136h-338c-11 0 -15 4 -15 10s3 11 7 17l263 378c4 6 7 11 7 14c0 4 -3 7 -9 7h-151
c-29 0 -63 -22 -84 -94l-26 3c9 49 14 91 15 136c0 2 2 3 4 3c17 -3 15 -12.9004 47 -13zM215 513c-29 47 -66 92 -101 130l20 13c39 -29 72 -54 106 -90c37 38 71 63 108 90l19 -13c-35 -39 -73 -84 -102 -130h-50z" />
    <glyph glyph-name="longs" unicode="&#x17f;" horiz-adv-x="392" 
d="M322 448c6 -41 9 -75 11 -108l-27 -2c-15 64 -59 103 -108 103c-52 0 -80 -32 -80 -75c0 -48 73 -85 97 -96c49 -21 139 -62 139 -141c0 -82 -56 -141 -145 -141c-77 0 -107 17 -126 17c-12 0 -19 -4 -33 -6c0 29 -3 73 -11 141l28 2c18 -89 68 -125 124 -125
c59 0 85 32 85 90c0 57 -43 80.9004 -108 111c-41 19 -119 57 -119 130c0 82 78 122 148 122c81 0 100 -22 125 -22z" />
    <glyph glyph-name="Ohorn" unicode="&#x1a0;" horiz-adv-x="698" 
d="M662 329c0 -200 -123 -339 -314 -339c-172 0 -311 123 -311 320c0 196 131 348 310 348c57.5996 0 110.6 -13.4004 156 -38.1006c11.4004 -2.7998 21.2002 -3.89941 33 -3.89941c11 0 55 9 55 43c0 13 -17 23 -31 25c-34 4 -47 27 -47 47c0 24 16 39 46 39
c38 0 69 -43 69 -91c0 -50.9004 -23.0996 -86.6006 -78.3994 -90.6006c69.5996 -57.5996 112.399 -147.899 112.399 -259.399zM334 624c-96 0 -205 -87 -205 -297c0 -192 119 -303 239 -303c114 0 202 107 202 286c0 208 -95 314 -236 314z" />
    <glyph glyph-name="ohorn" unicode="&#x1a1;" horiz-adv-x="563" 
d="M527 235c0 -130 -88 -244.999 -252 -244.999c-135 0 -238 96 -238 232c0 147 107 248 246 248c50.7998 0 99.2002 -14.2002 139.3 -40h5.7002c11 0 52 4 52 38c0 13 -13 21 -27 22c-35 4 -48 26 -48 46c0 24 17 39 46 39c38 0 64 -41 64 -88
c0 -42.7002 -22.4004 -72.1006 -62 -80.501c45.2002 -41 74 -100.1 74 -171.5zM274 437.001c-75 0 -150 -68 -150 -203c0 -123 69 -211 166 -211c89 0 150 75 150 198c0 134 -77 216 -166 216z" />
    <glyph glyph-name="Uhorn" unicode="&#x1af;" horiz-adv-x="690" 
d="M615 618c-29 0 -43 -16 -43 -44v-281c0 -178 -46 -305 -251 -305c-90 0 -232 42 -232 246v340c0 31 -15 44 -54 44h-27c-4 0 -8 3 -8 8v19l2 1s87 -1 126 -1c36 0 129 1 129 1l2 -1v-19c0 -5 -3 -8 -8 -8h-26c-41 0 -55 -16 -55 -44v-307c0 -65 0 -135 53 -188
c30 -29 71 -50 119 -50c169 0 184 134 184 246v299c0 31 -15 44 -54 44h-27c-4 0 -8 3 -8 8v19l2 1s71 -1 110 -1c83 0 99 5 99 26c0 14 -11 19 -30 19c-35 0 -47 21 -47 41c0 24 20 39 49 39c38 0 66 -37 66 -84c0 -43 -28 -68 -71 -68z" />
    <glyph glyph-name="uhorn" unicode="&#x1b0;" horiz-adv-x="627" 
d="M275 -10c-69 0 -181 46 -181 191v219c0 22 -11.2998 27.5 -43 31l-18 2c-3 0.299805 -6 2 -6 5v22l2 2s75 -2 106 -2c28 0 103 2 103 2l2 -2v-22c0 -3 -2 -4.59961 -6 -5l-20 -2c-32 -3.2002 -43 -11 -43 -31v-198c0 -93 14 -183 121 -183c132 0 133 106 133 192v189
c0 22 -13 28 -43 31l-20 2c-4 0.400391 -7 2 -7 5v22l2 2s60 -2 90 -2c28 0 83 2 83 2c17 1 40 17 40 27c0 12 -8 19.9004 -27 21c-34 2 -47 24 -47 44c0 24 17 39 46 39c38 0 63 -41 63 -89c0 -27.9004 -22.7998 -69.7002 -75.2998 -70
c-0.900391 -0.5 -2.2002 -0.799805 -3.7002 -1l-17 -2c-30.7002 -3.59961 -39 -11 -39 -31v-176c0 -139 -34 -234 -195 -234z" />
    <glyph glyph-name="uni01B7" unicode="&#x1b7;" horiz-adv-x="608" 
d="M167 645h355c21 0 28 -6 28 -14c0 -10 -6 -26 -15 -41l-168 -302c134 -27 197 -126 197 -237c0 -139 -132 -262 -292 -262c-80 0 -230 35 -230 101c0 23 10 50 44 50c27 0 55 -14 68 -35c32 -49 82 -79 137 -79c87 0 184 121 184 216c0 159 -115 213 -184 213
c-16 0 -27 0 -41 -3l196 353h-249c-74 -1 -103 -84 -107 -128l-26 2l21 188c23 -5 58 -22 82 -22z" />
    <glyph glyph-name="uni01C0" unicode="&#x1c0;" horiz-adv-x="186" 
d="M113 0h-40v698h40v-698z" />
    <glyph glyph-name="uni01C1" unicode="&#x1c1;" horiz-adv-x="278" 
d="M100 0h-40v698h40v-698zM202 0h-40v698h40v-698z" />
    <glyph glyph-name="uni01C2" unicode="&#x1c2;" horiz-adv-x="332" 
d="M291 328v-39h-115v-289h-40v289h-111v39h111v63h-111v39h111v268h40v-268h115v-39h-115v-63h115z" />
    <glyph glyph-name="uni01C3" unicode="&#x1c3;" horiz-adv-x="227" 
d="M60 43c0 29 24 53 53 53s53 -24 53 -53s-24 -53 -53 -53s-53 24 -53 53zM113 658c27 0 56 -23 56 -73c0 -65 -15.7998 -107 -26 -193c-12.7998 -108 -14 -168 -16 -182c-1 -11 -4 -20 -14 -20c-11 0 -13 7 -14 13c-2 21 -7 111 -15 189c-9 88 -25 123 -25 193
c0 54 32 73 54 73z" />
    <glyph glyph-name="uni01C4" unicode="&#x1c4;" horiz-adv-x="1266" 
d="M943 698c-30 37 -65 67 -101 95l16 20c39 -17 73 -36 106 -61c37 26 69 45 107 61l15 -20c-38 -29 -70 -61 -100 -95h-43zM1214 -2c0 0 -99.7002 2 -126.7 2h-364.3c-14 0 -19 5 -19 15c0 7 2 15 8 23l389 541c5 7 8 13 8 18c0 6 -3 8 -10 8h-231
c-75 0 -93 -50 -114 -119l-30 5c8 41 18 113 22 167c37 -3 34 -13 81 -13h321c31 3 51 10 63 10c19 0 23 -3 23 -10c0 -11 -4 -26 -24 -54l-375 -519c-5 -9 -8 -15 -8 -20c0 -9 8 -13 25 -13h233c76 0 105 59 125 131l31 -5c-12 -52 -22 -111 -27 -167zM187 72
c0 -32 11 -40 109 -40c141 0 266 50 266 252c0 154 -75 328 -291 328c-49 0 -84 -3 -84 -38v-502zM17 18c0 5 3.00098 8.7002 7.00098 9l30 2c34.9004 2.2998 52 13 52 45v498c0 36 -11.4004 41.0996 -52 44l-28 2c-5 0.400391 -9 3 -9 8v19l2 2
c49.0996 -0.799805 76.8994 -2 125.999 -2c64.2998 0 100 2 164 2c192 0 345 -153 345 -339c0 -246 -186 -310 -327 -310c-103 0 -111 2 -182 2c-49.0996 0 -82 0 -126 -2l-2 2v18z" />
    <glyph glyph-name="uni01C5" unicode="&#x1c5;" horiz-adv-x="1153" 
d="M783 461l234 -1c24 5 41 7 52 7c16 0 22 -4 22 -10c0 -8 -4 -15 -19 -36l-248 -362c-4 -6 -6 -11 -6 -15c0 -6 6 -10 20 -10h119c58 0 75 27 98 80l13 29l27 -7c-17 -58 -28 -105 -32 -136h-338c-11 0 -15 4 -15 10s3 11 7 17l263 378c4 6 7 11 7 14c0 4 -3 7 -9 7h-151
c-29 0 -63 -22 -84 -94l-26 3c9 49 14 91 15 136c0 2 2 3 4 3c17 -3 15 -12.9004 47 -13zM891 513c-29 47 -66 92 -101 130l20 13c39 -29 72 -54 106 -90c37 38 71 63 108 90l19 -13c-35 -39 -73 -84 -102 -130h-50zM187 72c0 -32 11 -40 109 -40c141 0 266 50 266 252
c0 154 -75 328 -291 328c-49 0 -84 -3 -84 -38v-502zM17 18c0 5 3.00098 8.7002 7.00098 9l30 2c34.9004 2.2998 52 13 52 45v498c0 36 -11.4004 41.0996 -52 44l-28 2c-5 0.400391 -9 3 -9 8v19l2 2c49.0996 -0.799805 76.8994 -2 125.999 -2c64.2998 0 100 2 164 2
c192 0 345 -153 345 -339c0 -246 -186 -310 -327 -310c-103 0 -111 2 -182 2c-49.0996 0 -82 0 -126 -2l-2 2v18z" />
    <glyph glyph-name="uni01C6" unicode="&#x1c6;" horiz-adv-x="1005" 
d="M640 461l234 -1c24 5 41 7 52 7c16 0 22 -4 22 -10c0 -8 -4 -15 -19 -36l-248 -362c-4 -6 -6 -11 -6 -15c0 -6 6 -10 20 -10h119c58 0 75 27 98 80l13 29l27 -7c-17 -58 -28 -105 -32 -136h-338c-11 0 -15 4 -15 10s3 11 7 17l263 378c4 6 7 11 7 14c0 4 -3 7 -9 7h-151
c-29 0 -63 -22 -84 -94l-26 3c9 49 14 91 15 136c0 2 2 3 4 3c17 -3 15 -12.9004 47 -13zM748 513c-29 47 -66 92 -101 130l20 13c39 -29 72 -54 106 -90c37 38 71 63 108 90l19 -13c-35 -39 -73 -84 -102 -130h-50zM178 72c0 -28 7 -45 83 -45c110 0 172 41 172 181
c0 104 -23 225 -191 225c-39 0 -64 -6 -64 -31v-330zM32 21c0 3 2 5.7002 6 6l23 2c29.5996 2.59961 40 12 40 43v330c0 26 -7.2002 26 -40 29l-22 2c-4 0.400391 -7 2 -7 5v22l1 2s88 -2 106 -2c19 0 106 2 132 2c167 0 249 -104 249 -237c0 -175 -124 -227 -235 -227
c-80 0 -115 2 -146 2c-30 0 -106 -2 -106 -2l-1 2v21z" />
    <glyph glyph-name="uni01C7" unicode="&#x1c7;" horiz-adv-x="768" 
d="M511 -131c33 0 84 28 84 208v484c0 48.5 -19.7998 55.4004 -71 58l-20 1c-5 0.200195 -9 3 -9 8v19l2 2s98 -2 137 -2c35 0 119 2 119 2l2 -2v-19c0 -5 -3 -7.7002 -8 -8l-17 -1c-40.7998 -2.40039 -54 -15 -54 -43v-477c0 -128 -47 -190 -105 -236
c-45 -38 -89 -39 -114 -39c-22 0 -64 18 -64 54c0 22 24 36 38 36c31 0 42.2998 -13.7998 52 -27c7.2998 -10 14 -18 28 -18zM349 39c76 0 106 59 126 131l30 -5c-11 -52 -22 -111 -26 -167c0 0 -92.2998 2 -119.3 2h-212.7c-27 0 -128 -2 -128 -2l-2 2v19c0 5 4 7.7002 8 8
l30 2c40.2998 2.7002 51 8 51 43v502c0 30 -16.2002 39.2002 -54 42l-27 2c-4 0.299805 -8 3 -8 8v19l2 2s87 -2 126 -2c36 0 129 2 129 2l2 -2v-19c0 -5 -3 -7.59961 -8 -8l-26 -2c-40.7002 -3.09961 -55 -14 -55 -42v-485c0 -31 18 -50 47 -50h115z" />
    <glyph glyph-name="uni01C8" unicode="&#x1c8;" horiz-adv-x="758" 
d="M667 101c0 -126 -33 -192 -87 -235c-42 -35 -83 -36 -106 -36c-21 0 -60 17 -60 50c0 21 23 34 36 34c28 0 39 -13 48 -25c7 -10 13 -17 26 -17c31 0 66 28 66 208v326c0 22 -11.5996 27.7998 -43 30l-28 2c-3 0.200195 -6 2 -6 5v22l1 2s86 -2 116 -2c28 0 98 2 98 2
l2 -2v-22c0 -3 -3 -4.40039 -7 -5l-13 -2c-30.9004 -4.7998 -43 -10 -43 -30v-305zM349 39c76 0 106 59 126 131l30 -5c-11 -52 -22 -111 -26 -167c0 0 -92.2998 2 -119.3 2h-212.7c-27 0 -128 -2 -128 -2l-2 2v19c0 5 4 7.7002 8 8l30 2c40.2998 2.7002 51 8 51 43v502
c0 30 -16.2002 39.2002 -54 42l-27 2c-4 0.299805 -8 3 -8 8v19l2 2s87 -2 126 -2c36 0 129 2 129 2l2 -2v-19c0 -5 -3 -7.59961 -8 -8l-26 -2c-40.7002 -3.09961 -55 -14 -55 -42v-485c0 -31 18 -50 47 -50h115z" />
    <glyph glyph-name="uni01C9" unicode="&#x1c9;" horiz-adv-x="638" 
d="M277 34c61 0 81 40 97 91l25 -3c-12 -49 -19 -90 -21 -122h-245c-10 0 -20 -1 -100 -2l-1 2v21c0 4 3 5.7002 6 6l23 2c31.5996 2.7002 41 8 41 33v338c0 22 -12.2002 27.9004 -43 31l-20 2c-4 0.400391 -7 2 -7 6v21l1 2s79 -2 110 -2c27 0 104 2 104 2l1 -2v-21
c0 -4 -2 -5.59961 -6 -6l-21 -2c-31.7998 -3 -42 -11 -42 -31v-341c0 -19 10 -25 28 -25h70zM547 96c0 -126 -33 -192 -87 -235c-42 -35 -83 -36 -106 -36c-21 0 -60 17 -60 50c0 21 23 34 36 34c28 0 39 -13 48 -25c7 -10 13 -17 26 -17c31 0 66 28 66 208v326
c0 22 -11.5996 27.7998 -43 30l-28 2c-3 0.200195 -6 2 -6 5v22l1 2s86 -2 116 -2c28 0 98 2 98 2l2 -2v-22c0 -3 -3 -4.40039 -7 -5l-13 -2c-30.9004 -4.7998 -43 -10 -43 -30v-305z" />
    <glyph glyph-name="uni01CA" unicode="&#x1ca;" horiz-adv-x="1018" 
d="M761 -133c33 0 84 28 84 208v484c0 48.5 -19.7998 55.4004 -71 58l-20 1c-5 0.200195 -9 3 -9 8v19l2 2s98 -2 137 -2c35 0 119 2 119 2l2 -2v-19c0 -5 -3 -7.7002 -8 -8l-17 -1c-40.7998 -2.40039 -54 -15 -54 -43v-477c0 -128 -47 -190 -105 -236
c-45 -38 -89 -39 -114 -39c-22 0 -64 18 -64 54c0 22 24 36 38 36c31 0 42.2998 -13.7998 52 -27c7.2998 -10 14 -18 28 -18zM603 557v-536c0 -19 -7 -31 -21 -31c-16 0 -29 9 -40 24l-349 441c-17 22 -28 33 -34 33c-8 0 -10 -15 -10 -49v-351c0 -30 15.4004 -56 55 -59
l26 -2c4 -0.299805 8 -3 8 -8v-19l-2 -2s-71 2 -111 2c-35 0 -112 -2 -112 -2l-2 2v18c0 5 3 8.2002 13 9l26 2c40.7998 3.09961 54 32 54 59v462c-6 26 -36 65 -68 68c-8 0.700195 -17 3 -17 8v19l3 2h136l343 -444c28.7002 -37.2002 42 -55 50 -55c7 0 7 11 7 30v379
c0 27 -12.2002 55.7998 -54 59l-26 2c-5 0.400391 -14 3 -14 8v19l4 2s75 -2 111 -2c39 0 111 2 111 2l2 -2v-19c0 -5 -4 -7.7002 -8 -8l-27 -2c-38.9004 -2.90039 -54 -29 -54 -59z" />
    <glyph glyph-name="uni01CB" unicode="&#x1cb;" horiz-adv-x="936" 
d="M851 96c0 -126 -33 -192 -87 -235c-42 -35 -83 -36 -106 -36c-21 0 -60 17 -60 50c0 21 23 34 36 34c28 0 39 -13 48 -25c7 -10 13 -17 26 -17c31 0 66 28 66 208v326c0 22 -11.5996 27.7998 -43 30l-28 2c-3 0.200195 -6 2 -6 5v22l1 2s86 -2 116 -2c28 0 98 2 98 2
l2 -2v-22c0 -3 -3 -4.40039 -7 -5l-13 -2c-30.9004 -4.7998 -43 -10 -43 -30v-305zM603 557v-536c0 -19 -7 -31 -21 -31c-16 0 -29 9 -40 24l-349 441c-17 22 -28 33 -34 33c-8 0 -10 -15 -10 -49v-351c0 -30 15.4004 -56 55 -59l26 -2c4 -0.299805 8 -3 8 -8v-19l-2 -2
s-71 2 -111 2c-35 0 -112 -2 -112 -2l-2 2v18c0 5 3 8.2002 13 9l26 2c40.7998 3.09961 54 32 54 59v462c-6 26 -36 65 -68 68c-8 0.700195 -17 3 -17 8v19l3 2h136l343 -444c28.7002 -37.2002 42 -55 50 -55c7 0 7 11 7 30v379c0 27 -12.2002 55.7998 -54 59l-26 2
c-5 0.400391 -14 3 -14 8v19l4 2s75 -2 111 -2c39 0 111 2 111 2l2 -2v-19c0 -5 -4 -7.7002 -8 -8l-27 -2c-38.9004 -2.90039 -54 -29 -54 -59z" />
    <glyph glyph-name="uni01CC" unicode="&#x1cc;" horiz-adv-x="850" 
d="M768 96c0 -126 -33 -192 -87 -235c-42 -35 -83 -36 -106 -36c-21 0 -60 17 -60 50c0 21 23 34 36 34c28 0 39 -13 48 -25c7 -10 13 -17 26 -17c31 0 66 28 66 208v326c0 22 -11.5996 27.7998 -43 30l-28 2c-3 0.200195 -6 2 -6 5v22l1 2s86 -2 116 -2c28 0 98 2 98 2
l2 -2v-22c0 -3 -3 -4.40039 -7 -5l-13 -2c-30.9004 -4.7998 -43 -10 -43 -30v-305zM480 388v-373c0 -20 -8 -27 -20 -27c-15 0 -24 6 -39 22l-235 313c-13 16 -22 24 -27 24c-6 0 -10 -12 -10 -35v-241c0 -22 14.5 -39 45 -42l20 -2c4 -0.400391 7 -2 7 -6v-21l-1 -2
s-61 2 -92 2c-27 0 -93 -2 -93 -2l-3 2v21c0 4 6 5.59961 10 6l20 2c34.5 3.40039 43 23 43 42v326c-10 18 -22.7002 33 -61 36c-3 0.200195 -9 2 -9 6v20l2 3l135 -2l229 -311c14 -16 23 -24 28 -24c6 0 7 9 7 26v237c0 20 -14.2002 40.2002 -44 43l-21 2
c-4 0.400391 -10 2 -10 5v22l2 2s68 -2 95 -2c31 0 89 2 89 2l3 -1v-23c0 -3 -3 -4.59961 -7 -5l-20 -2c-31.7998 -3.2002 -43 -21 -43 -43z" />
    <glyph glyph-name="uni01CD" unicode="&#x1cd;" horiz-adv-x="695" 
d="M336 697c-30 37 -65 67 -101 95l16 20c39 -17 73 -36 106 -61c37 26 69 45 107 61l15 -20c-38 -29 -70 -61 -100 -95h-43zM152 79c-10 -25.4004 2.5 -47.4004 40 -50l29 -2c4 -0.299805 8 -3 8 -8v-19l-2 -2s-109 2 -133 2c-26 0 -90 -2 -90 -2l-2 2v19c0 5 3 7.7002 8 8
c43.5 3 69.2002 10.7998 97 75l222.3 520.3c11 25.7998 19 35.7002 33.7002 35.7002c14 0 19.4004 -9.90039 27 -30l205 -542c14 -39 34.2002 -54.4004 74 -58l11 -1c5 -0.5 10 -3 10 -8v-19l-3 -2s-77 2 -116 2c-35 0 -133 -2 -133 -2l-1 2v19c0 5 2 7.59961 7 8l28 2
c37.7998 2.7002 52 15.2998 42 43l-61 169h-208c-24 0 -29.9004 -4.40039 -35 -17zM263 283h174l-97 267h-2l-100.2 -253.7c-4.2002 -10.7998 3 -13.2998 25.2002 -13.2998z" />
    <glyph glyph-name="uni01CE" unicode="&#x1ce;" horiz-adv-x="538" 
d="M342 204l-77 197h-2l-77 -183c0 -5 0 -14 20 -14h136zM161 164l-44 -105c-2 -5 -4 -10 -4 -13c0 -13 16 -16 41 -18l13 -1c3 0 6 -3 6 -6v-21l-2 -2s-83 2 -102 2c-20 0 -65 -2 -65 -2l-2 2v21c0 3 3 6 6 6c25 3 47 7 64 43l175 376c9.90039 21.4004 24 26 33 26
c21 0 33 -8 40 -25l146 -371c16 -40 29 -46 62 -49c7 -1 8 -3 8 -6v-21l-3 -2s-53 2 -83 2c-28 0 -112 -2 -112 -2l-2 2v21c0 3 3 6 7 6l18 2c23 3 40 6 40 19c0 3 -1 7 -2 11l-45 116h-171c-13 0 -20 -4 -22 -11zM262 513c-29 47 -66 92 -101 130l20 13
c39 -29 72 -54 106 -90c37 38 71 63 108 90l19 -13c-35 -39 -73 -84 -102 -130h-50z" />
    <glyph glyph-name="uni01CF" unicode="&#x1cf;" horiz-adv-x="293" 
d="M122 697c-30 37 -65 67 -101 95l16 20c39 -17 73 -36 106 -61c37 26 69 45 107 61l15 -20c-38 -29 -70 -61 -100 -95h-43zM187 574v-503c0 -30 15.2998 -38.9004 55 -42l26 -2c4 -0.299805 8 -3 8 -8v-19l-2 -2c-47.5 2 -77.5 2 -127 2s-78 0 -127 -2l-2 2v19
c0 5 3 7.7002 7 8l27 2c41.5996 3.09961 54 14 54 42v503c0 30 -14.7002 39.0996 -54 42l-27 2c-4 0.299805 -8 3 -8 8v19l2 2c50 -1 77.5 -2 127 -2c49.9004 0 79 1 128 2l2 -2v-19c0 -5 -3 -7.59961 -8 -8l-26 -2c-39.7998 -3.09961 -55 -14 -55 -42z" />
    <glyph glyph-name="uni01D0" unicode="&#x1d0;" horiz-adv-x="279" 
d="M110 509c-29 47 -66 92 -101 130l20 13c39 -29 72 -54 106 -90c37 38 71 63 108 90l19 -13c-35 -39 -73 -84 -102 -130h-50zM179 400v-333c0 -22 10.5 -35 42 -38l21 -2c3 -0.299805 6 -2 6 -6v-21l-1 -2s-76 2 -107 2c-28 0 -106 -2 -106 -2l-2 2v21c0 4 3 5.59961 7 6
l20 2c33.5 3.2998 43 19 43 38v333c0 22 -12.2002 27.9004 -43 31l-20 2c-4 0.400391 -7 1 -7 4v23l1 2s79 -2 110 -2c27 0 104 2 104 2l1 -2v-22c0 -3 -2 -4.59961 -6 -5l-21 -2c-30.7998 -2.90039 -42 -11 -42 -31z" />
    <glyph glyph-name="uni01D1" unicode="&#x1d1;" horiz-adv-x="698" 
d="M326 697c-30 37 -65 67 -101 95l16 20c39 -17 73 -36 106 -61c37 26 69 45 107 61l15 -20c-38 -29 -70 -61 -100 -95h-43zM662 329c0 -200 -123 -339 -314 -339c-172 0 -311 123 -311 320c0 196 131 348 310 348c180 0 315 -131 315 -329zM334 624
c-96 0 -205 -87 -205 -297c0 -192 119 -303 239 -303c114 0 202 107 202 286c0 208 -95 314 -236 314z" />
    <glyph glyph-name="uni01D2" unicode="&#x1d2;" horiz-adv-x="563" 
d="M527 235c0 -130 -88 -245 -252 -245c-135 0 -238 96 -238 232c0 147 107 248 246 248c130 0 244 -93 244 -235zM274 437c-75 0 -150 -68 -150 -203c0 -123 69 -211 166 -211c89 0 150 75 150 198c0 134 -77 216 -166 216zM255 509c-29 47 -66 92 -101 130l20 13
c39 -29 72 -54 106 -90c37 38 71 63 108 90l19 -13c-35 -39 -73 -84 -102 -130h-50z" />
    <glyph glyph-name="uni01D3" unicode="&#x1d3;" horiz-adv-x="661" 
d="M326 697c-30 37 -65 67 -101 95l16 20c39 -17 73 -36 106 -61c37 26 69 45 107 61l15 -20c-38 -29 -70 -61 -100 -95h-43zM321 -10c-90 0 -232 42 -232 246v336c0 31 -14.7002 41.0996 -54 44l-27 2c-4 0.299805 -8 3 -8 8v19l2 2s87 -2 126 -2c36 0 129 2 129 2l2 -2
v-19c0 -5 -3 -7.59961 -8 -8l-26 -2c-41.2998 -3.2002 -55 -16 -55 -44v-303c0 -65 0 -135 53 -188c30 -29 71 -50 119 -50c169 0 184 134 184 246v293c0 31 -14.0996 43 -54 46l-27 2c-4 0.299805 -8 3 -8 8v19l2 2s71 -2 110 -2c36 0 110 2 110 2l2 -2v-19
c0 -5 -3 -7.59961 -8 -8l-26 -2c-41.2998 -3.2002 -55 -18 -55 -46v-275c0 -178 -46 -305 -251 -305z" />
    <glyph glyph-name="uni01D4" unicode="&#x1d4;" horiz-adv-x="559" 
d="M275 -10c-69 0 -181 46 -181 191v219c0 22 -11.2998 27.5 -43 31l-18 2c-3 0.299805 -6 2 -6 5v22l2 2s75 -2 106 -2c28 0 103 2 103 2l2 -2v-22c0 -3 -2 -4.59961 -6 -5l-20 -2c-32 -3.2002 -43 -11 -43 -31v-198c0 -93 14 -183 121 -183c132 0 133 106 133 192v189
c0 22 -13 28 -43 31l-20 2c-4 0.400391 -7 2 -7 5v22l2 2s60 -2 90 -2c28 0 83 2 83 2l2 -2v-22c0 -3 -2 -4.5 -6 -5l-17 -2c-30.7002 -3.59961 -39 -11 -39 -31v-176c0 -139 -34 -234 -195 -234zM262 509c-29 47 -66 92 -101 130l20 13c39 -29 72 -54 106 -90
c37 38 71 63 108 90l19 -13c-35 -39 -73 -84 -102 -130h-50z" />
    <glyph glyph-name="uni01D5" unicode="&#x1d5;" horiz-adv-x="661" 
d="M320 -12c-89 0 -231 42 -231 246v338c0 40 -36 46 -70 46c-5 0 -9 3 -9 8v19l2 1s76 -1 115 -1c36 0 56 1 92 1c5 0 6 -4 6 -10v-10c0 -5 -3 -8 -8 -8c-40 -6 -48 -21 -48 -49v-302c0 -65 1 -135 54 -188c29 -29 71 -50 119 -50c168 0 184 134 184 246v294
c0 31 -14 42 -48 49c-4 0 -8 3 -8 8v11c0 6 6 9 9 9c27 0 31 -1 70 -1c35 0 100 1 100 1l2 -1v-19c0 -7 -8 -8 -25 -8c-41 0 -54 -18 -54 -46v-279c0 -178 -46 -305 -252 -305zM376 687c0 24 20 45 44 45c25 0 46 -21 46 -45c0 -25 -21 -46 -46 -46c-24 0 -44 21 -44 46z
M232 687c0 25 20 45 45 45s44 -20 44 -45s-19 -45 -44 -45s-45 20 -45 45zM456 756h-244c-9 0 -13 8 -13 15c0 12 11 29 22 29h245c10 0 14 -8 14 -14c0 -12 -11 -30 -24 -30z" />
    <glyph glyph-name="uni01D6" unicode="&#x1d6;" horiz-adv-x="568" 
d="M177 573c0 25 20 45 45 45s46 -20 46 -45s-21 -46 -46 -46s-45 21 -45 46zM337 573c0 25 21 45 46 45s45 -20 45 -45s-20 -46 -45 -46s-46 21 -46 46zM275 -10c-69 0 -181 46 -181 191v219c0 22 -11 28 -43 32l-18 2c-3 0 -6 2 -6 5v21l1 2s76 -2 107 -2
c28 0 104 2 104 2l1 -2v-21c0 -3 -2 -5 -6 -5l-20 -2c-32 -3.2002 -43 -12 -43 -32v-198c0 -93 14 -183 121 -183c132 0 133 106 133 192v189c0 22 -13 29 -43 32l-20 2c-4 0 -7 2 -7 5v21l2 2s60 -2 90 -2c28 0 84 2 84 2l1 -2v-21c0 -3 -2 -5 -6 -5l-17 -2
c-31 -4 -39 -12 -39 -32v-176c0 -139 -34 -234 -195 -234zM428 651h-244c-9 0 -13 8 -13 15c0 12 11 29 22 29h245c10 0 14 -8 14 -14c0 -12 -11 -30 -24 -30z" />
    <glyph glyph-name="uni01D7" unicode="&#x1d7;" horiz-adv-x="661" 
d="M320 -12c-89 0 -231 42 -231 246v338c0 40 -36 46 -70 46c-5 0 -9 3 -9 8v19l2 1s76 -1 115 -1c36 0 56 1 92 1c5 0 6 -4 6 -10v-10c0 -5 -3 -8 -8 -8c-40 -6 -48 -21 -48 -49v-302c0 -65 1 -135 54 -188c29 -29 71 -50 119 -50c168 0 184 134 184 246v294
c0 31 -14 42 -48 49c-4 0 -8 3 -8 8v11c0 6 6 9 9 9c27 0 31 -1 70 -1c35 0 100 1 100 1l2 -1v-19c0 -7 -8 -8 -25 -8c-41 0 -54 -18 -54 -46v-279c0 -178 -46 -305 -252 -305zM376 687c0 24 20 45 44 45c25 0 46 -21 46 -45c0 -25 -21 -46 -46 -46c-24 0 -44 21 -44 46z
M232 687c0 25 20 45 45 45s44 -20 44 -45s-19 -45 -44 -45s-45 20 -45 45zM423.1 840.8l47.7012 -45.7012l-110.8 -51.0996c-16.2002 -7.90039 -26.2002 -10.5 -33.1006 -10.5s-10.8008 4.40039 -10.8008 13.2002c0 6.2002 1.5 10.6006 11.5 18.501z" />
    <glyph glyph-name="uni01D8" unicode="&#x1d8;" horiz-adv-x="568" 
d="M177 573c0 25 20 45 45 45s46 -20 46 -45s-21 -46 -46 -46s-45 21 -45 46zM337 573c0 25 21 45 46 45s45 -20 45 -45s-20 -46 -45 -46s-46 21 -46 46zM275 -10c-69 0 -181 46 -181 191v219c0 22 -11 28 -43 32l-18 2c-3 0 -6 2 -6 5v21l1 2s76 -2 107 -2
c28 0 104 2 104 2l1 -2v-21c0 -3 -2 -5 -6 -5l-20 -2c-32 -3.2002 -43 -12 -43 -32v-198c0 -93 14 -183 121 -183c132 0 133 106 133 192v189c0 22 -13 29 -43 32l-20 2c-4 0 -7 2 -7 5v21l2 2s60 -2 90 -2c28 0 84 2 84 2l1 -2v-21c0 -3 -2 -5 -6 -5l-17 -2
c-31 -4 -39 -12 -39 -32v-176c0 -139 -34 -234 -195 -234zM372 761c3 1 9 2 14 2c28 0 41 -11 49 -18c2 -2 4 -4 6 -5l3 -11l-115 -109c-15 -15 -22 -20 -29 -20s-14 6 -14 12s0 13 6 23z" />
    <glyph glyph-name="uni01D9" unicode="&#x1d9;" horiz-adv-x="661" 
d="M320 -12c-89 0 -231 42 -231 246v338c0 40 -36 46 -70 46c-5 0 -9 3 -9 8v19l2 1s76 -1 115 -1c36 0 56 1 92 1c5 0 6 -4 6 -10v-10c0 -5 -3 -8 -8 -8c-40 -6 -48 -21 -48 -49v-302c0 -65 1 -135 54 -188c29 -29 71 -50 119 -50c168 0 184 134 184 246v294
c0 31 -14 42 -48 49c-4 0 -8 3 -8 8v11c0 6 6 9 9 9c27 0 31 -1 70 -1c35 0 100 1 100 1l2 -1v-19c0 -7 -8 -8 -25 -8c-41 0 -54 -18 -54 -46v-279c0 -178 -46 -305 -252 -305zM376 687c0 24 20 45 44 45c25 0 46 -21 46 -45c0 -25 -21 -46 -46 -46c-24 0 -44 21 -44 46z
M232 687c0 25 20 45 45 45s44 -20 44 -45s-19 -45 -44 -45s-45 20 -45 45zM322.2 737.1c-23.0996 32.5996 -50.1006 59.001 -77.8008 83.6006l12.2998 17.5996c30 -15 56.2002 -31.7002 81.6006 -53.7002c28.5 22.9004 53.0996 39.6006 82.3994 53.7002l11.5996 -17.5996
c-29.2998 -25.5 -53.8994 -53.7002 -76.999 -83.6006h-33.0996z" />
    <glyph glyph-name="uni01DA" unicode="&#x1da;" horiz-adv-x="559" 
d="M177 573c0 25 20 45 45 45s46 -20 46 -45s-21 -46 -46 -46s-45 21 -45 46zM337 573c0 25 21 45 46 45s45 -20 45 -45s-20 -46 -45 -46s-46 21 -46 46zM275 -10c-69 0 -181 46 -181 191v219c0 22 -11 28 -43 32l-18 2c-3 0 -6 2 -6 5v21l1 2s76 -2 107 -2
c28 0 104 2 104 2l1 -2v-21c0 -3 -2 -5 -6 -5l-20 -2c-32 -3.2002 -43 -12 -43 -32v-198c0 -93 14 -183 121 -183c132 0 133 106 133 192v189c0 22 -13 29 -43 32l-20 2c-4 0 -7 2 -7 5v21l2 2s60 -2 90 -2c28 0 84 2 84 2l1 -2v-21c0 -3 -2 -5 -6 -5l-17 -2
c-31 -4 -39 -12 -39 -32v-176c0 -139 -34 -234 -195 -234zM276 640c-29 47 -66 92 -101 130l20 13c39 -29 72 -54 106 -90c37 38 71 63 108 90l19 -13c-35 -39 -73 -84 -102 -130h-50z" />
    <glyph glyph-name="uni01DB" unicode="&#x1db;" horiz-adv-x="661" 
d="M320 -12c-89 0 -231 42 -231 246v338c0 40 -36 46 -70 46c-5 0 -9 3 -9 8v19l2 1s76 -1 115 -1c36 0 56 1 92 1c5 0 6 -4 6 -10v-10c0 -5 -3 -8 -8 -8c-40 -6 -48 -21 -48 -49v-302c0 -65 1 -135 54 -188c29 -29 71 -50 119 -50c168 0 184 134 184 246v294
c0 31 -14 42 -48 49c-4 0 -8 3 -8 8v11c0 6 6 9 9 9c27 0 31 -1 70 -1c35 0 100 1 100 1l2 -1v-19c0 -7 -8 -8 -25 -8c-41 0 -54 -18 -54 -46v-279c0 -178 -46 -305 -252 -305zM376 687c0 24 20 45 44 45c25 0 46 -21 46 -45c0 -25 -21 -46 -46 -46c-24 0 -44 21 -44 46z
M232 687c0 25 20 45 45 45s44 -20 44 -45s-19 -45 -44 -45s-45 20 -45 45zM249.9 844.1l93.2002 -73.8994c8.5 -7 11.5 -12.2998 11.5 -18.5c0 -8.7998 -3.7998 -13.2002 -11.5 -13.2002c-6.2002 0 -16.2002 2.59961 -33.1006 10.5l-118.6 55.5z" />
    <glyph glyph-name="uni01DC" unicode="&#x1dc;" horiz-adv-x="568" 
d="M177 573c0 25 20 45 45 45s46 -20 46 -45s-21 -46 -46 -46s-45 21 -45 46zM337 573c0 25 21 45 46 45s45 -20 45 -45s-20 -46 -45 -46s-46 21 -46 46zM275 -10c-69 0 -181 46 -181 191v219c0 22 -11 28 -43 32l-18 2c-3 0 -6 2 -6 5v21l1 2s76 -2 107 -2
c28 0 104 2 104 2l1 -2v-21c0 -3 -2 -5 -6 -5l-20 -2c-32 -3.2002 -43 -12 -43 -32v-198c0 -93 14 -183 121 -183c132 0 133 106 133 192v189c0 22 -13 29 -43 32l-20 2c-4 0 -7 2 -7 5v21l2 2s60 -2 90 -2c28 0 84 2 84 2l1 -2v-21c0 -3 -2 -5 -6 -5l-17 -2
c-31 -4 -39 -12 -39 -32v-176c0 -139 -34 -234 -195 -234zM256 782l70 -126c5 -10 6 -17 6 -24c0 -5 -7 -11 -15 -11c-6 0 -13 5 -29 20l-114 109l2 11c8 6 31 23 65 23c5 0 11 -1 15 -2z" />
    <glyph glyph-name="uni01DD" unicode="&#x1dd;" horiz-adv-x="454" 
d="M154 462h175c30 0 99 2 99 2l1 -2v-22c0 -2 -1 -4.59961 -6 -5l-23 -2c-30.5996 -2.7002 -40 -23 -40 -43v-330c0 -23 12 -26.5996 40 -29l23 -2c6 -0.5 6 -3 6 -4v-23l-1 -2s-78 2 -108 2h-147c-30 0 -101 -2 -101 -2l-2 2c-1 43 -8 82 -15 120l25 4
c11 -37 30 -90 94 -90h80c19 0 29 7 29 24v145h-75c-28 0 -35 -12 -39 -32l-6 -21c0 -3 -2 -5 -6 -5h-17c-2 0 -2 1 -2 3c2 22 6 50 6 74c0 25 -4 46 -6 69l2 2h17c5 0 7 -2 7 -5l5 -22c4 -20 13 -31 39 -31h75v153c0 19 -11 38 -29 38h-95c-51 0 -79 -32 -91 -84l-25 3
l20 115l2 2s59 -2 89 -2z" />
    <glyph glyph-name="uni01DE" unicode="&#x1de;" horiz-adv-x="695" 
d="M152 79c-10 -25.4004 2.5 -47.4004 40 -50l29 -2c4 -0.299805 8 -3 8 -8v-19l-2 -2s-109 2 -133 2c-26 0 -90 -2 -90 -2l-2 2v19c0 5 3 7.7002 8 8c43.5 3 69.2002 10.7998 97 75l222.3 520.3c11 25.7998 19 35.7002 33.7002 35.7002c14 0 19.4004 -9.90039 27 -30
l205 -542c14 -39 34.2002 -54.4004 74 -58l11 -1c5 -0.5 10 -3 10 -8v-19l-3 -2s-77 2 -116 2c-35 0 -133 -2 -133 -2l-1 2v19c0 5 2 7.59961 7 8l28 2c37.7998 2.7002 52 15.2998 42 43l-61 169h-208c-24 0 -29.9004 -4.40039 -35 -17zM263 283h174l-97 267h-2
l-100.2 -253.7c-4.2002 -10.7998 3 -13.2998 25.2002 -13.2998zM198 685c0 25 21 45 46 45s45 -20 45 -45s-20 -45 -45 -45s-46 20 -46 45zM420 686c0 24 21 45 46 45s45 -21 45 -45c0 -25 -20 -46 -45 -46s-46 21 -46 46zM472 760h-244c-9 0 -13 8 -13 15c0 12 11 29 22 29
h245c10 0 14 -8 14 -14c0 -12 -11 -30 -24 -30z" />
    <glyph glyph-name="uni01DF" unicode="&#x1df;" horiz-adv-x="538" 
d="M162 573c0 25 20 45 45 45s46 -20 46 -45s-21 -46 -46 -46s-45 21 -45 46zM322 573c0 25 21 45 46 45s45 -20 45 -45s-20 -46 -45 -46s-46 21 -46 46zM342 204l-79 197h-1l-76 -183c0 -5 0 -14 20 -14h136zM161 164l-44 -105c-2 -5 -4 -10 -4 -13c0 -13 16 -16 41 -18
l13 -1c3 0 6 -3 6 -6v-21l-2 -2s-83 2 -102 2c-20 0 -65 -2 -65 -2l-2 2v21c0 3 3 6 6 6c25 3 47 7 64 43l176 378c7 16 23 26 32 26c21 0 33 -8 40 -25l146 -373c17 -40 29 -46 62 -49c7 -1 8 -3 8 -6v-21l-3 -2s-53 2 -83 2c-28 0 -112 -2 -112 -2l-2 2v21c0 3 3 6 7 6
l18 2c23 3 40 6 40 19c0 3 -1 7 -2 11l-45 116h-171c-13 0 -20 -4 -22 -11zM400 657h-244c-9 0 -13 8 -13 15c0 12 11 29 22 29h245c10 0 14 -8 14 -14c0 -12 -11 -30 -24 -30z" />
    <glyph glyph-name="uni01E0" unicode="&#x1e0;" horiz-adv-x="695" 
d="M152 79c-10 -25.4004 2.5 -47.4004 40 -50l29 -2c4 -0.299805 8 -3 8 -8v-19l-2 -2s-109 2 -133 2c-26 0 -90 -2 -90 -2l-2 2v19c0 5 3 7.7002 8 8c43.5 3 69.2002 10.7998 97 75l222.3 520.3c11 25.7998 19 35.7002 33.7002 35.7002c14 0 19.4004 -9.90039 27 -30
l205 -542c14 -39 34.2002 -54.4004 74 -58l11 -1c5 -0.5 10 -3 10 -8v-19l-3 -2s-77 2 -116 2c-35 0 -133 -2 -133 -2l-1 2v19c0 5 2 7.59961 7 8l28 2c37.7998 2.7002 52 15.2998 42 43l-61 169h-208c-24 0 -29.9004 -4.40039 -35 -17zM263 283h174l-97 267h-2
l-100.2 -253.7c-4.2002 -10.7998 3 -13.2998 25.2002 -13.2998zM310 751c0 27 21 48 48 48c26 0 48 -21 48 -48c0 -26 -22 -47 -48 -47c-27 0 -48 21 -48 47zM274 733h-85c-9 0 -12 8 -12 15c0 11 10 29 22 29h84zM441 777h84c10 0 14 -8 14 -15c0 -12 -11 -29 -23 -29h-83z
" />
    <glyph glyph-name="uni01E1" unicode="&#x1e1;" horiz-adv-x="561" 
d="M410 653h-244c-9 0 -13 8 -13 15c0 12 11 29 22 29h245c10 0 14 -8 14 -14c0 -12 -11 -30 -24 -30zM241 570c0 27 21 48 48 48c26 0 48 -21 48 -48c0 -26 -22 -47 -48 -47c-27 0 -48 21 -48 47zM342 204l-77 197h-2l-77 -183c0 -5 0 -14 20 -14h136zM161 164l-44 -105
c-2 -5 -4 -10 -4 -13c0 -13 16 -16 41 -18l13 -1c3 0 6 -3 6 -6v-21l-2 -2s-83 2 -102 2c-20 0 -65 -2 -65 -2l-2 2v21c0 3 3 6 6 6c25 3 47 7 64 43l175 376c9.90039 21.4004 24 26 33 26c21 0 33 -8 40 -25l146 -371c16 -40 29 -46 62 -49c7 -1 8 -3 8 -6v-21l-3 -2
s-53 2 -83 2c-28 0 -112 -2 -112 -2l-2 2v21c0 3 3 6 7 6l18 2c23 3 40 6 40 19c0 3 -1 7 -2 11l-45 116h-171c-13 0 -20 -4 -22 -11z" />
    <glyph glyph-name="uni01E2" unicode="&#x1e2;" horiz-adv-x="870" 
d="M675 733h-244c-9 0 -13 8 -13 15c0 12 11 29 22 29h245c10 0 14 -8 14 -14c0 -12 -11 -30 -24 -30zM468 1c-35 0 -129 -2 -129 -2l-2 2v18c0 5 3 9 8 9h27c41 0 54 16 54 44v194h-178l-106 -198c-9 -17 -13 -23 -13 -29c0 -9 9 -11 33 -11h29c4 0 6 -3 6 -6v-21l-2 -2
s-64 2 -103 2c-35 0 -91 -2 -91 -2l-1 2v19c0 5 4 8 10 8h22c29 0 41 7 60 42l267 507c3 5 4 10 4 14c0 17 -17 27 -32 27h-32c-5 0 -7 3 -7 7v20l1 1l174 -1l77 1h246l14 -140l-27 -3c-7 43 -41 103 -92 103h-142c-24 0 -36 -8 -36 -32v-208h101c35 0 44 16 50 44l7 30
c1 4 3 8 7 8h22c3 0 4 -2 4 -4c-3 -32 -8 -62 -8 -95c0 -35 4 -64 8 -96l-3 -3h-23c-5 0 -7 3 -8 7l-6 31c-5 28 -16 44 -50 44h-101v-260c0 -27 14 -33 36 -33h152c66 0 94 53 110 126l26 -5l-25 -160h-262zM268 305h158v270c0 13 0 17 -1 23z" />
    <glyph glyph-name="uni01E3" unicode="&#x1e3;" horiz-adv-x="720" 
d="M276 393l-59 -136c-1 -2 -2 -4 -2 -5c0 -4 6 -5 20 -5h97v144c0 31 -9 42 -22 42c-10 0 -23 -16 -34 -40zM505 34c61 0 84 40 99 90l26 -3c-12 -49 -20 -89 -21 -121h-240c-39 0 -99 -2 -99 -2l-1 2v22c0 2 1 4.5 5 5l17 2c31.5996 3.7002 41 12 41 32v155h-112
c-19 0 -25 -5 -29 -13l-72 -144c-9 -18 3 -21 33 -30l10 -2c3 -1 6 -3 6 -6v-21l-1 -2s-82 2 -101 2s-60 -2 -60 -2l-1 2v21c0 3 2 5.59961 6 6c33.5 3 52 20 60 34c20 32 66 117 97 177c16 32 73 146 73 174c0 12 -6.5 17.9004 -33 21c-6 0.700195 -6 3 -6 4v23l2 2
s88 -2 164 -2h137c30 0 101 2 101 2l2 -2c1 -43 8 -82 15 -120l-25 -4c-11 37 -30 90 -94 90h-70c-19 0 -29 -6 -29 -23v-156h61c27 0 34 12 39 32l5 21c1 4 3 6 6 6h17c2 0 3 -1 3 -3c-2 -23 -6 -51 -6 -75c0 -25 3 -45 6 -69l-2 -2h-18c-4 0 -6 3 -7 5l-4 22
c-5 21 -13 31 -39 31h-61v-156c0 -19 12 -25 29 -25h71zM547 529h-244c-9 0 -13 8 -13 15c0 12 11 29 22 29h245c10 0 14 -8 14 -14c0 -12 -11 -30 -24 -30z" />
    </font>
</defs>
</svg>
